<svg width="46" height="46" xmlns="http://www.w3.org/2000/svg"><g id="Page-1" stroke="none" stroke-width="1" fill="none" fill-rule="evenodd"><g id="arrow-page-left" fill="#BEBEBE" fill-rule="nonzero"><path d="M23 .48C10.597.48.48 10.559.48 23S10.598 45.52 23 45.52c12.403 0 22.52-10.117 22.52-22.52C45.52 10.597 35.402.48 23 .48zm0 41.861C12.341 42.341 3.659 33.66 3.659 23S12.341 3.659 23 3.659 42.341 12.34 42.341 23 33.66 42.341 23 42.341z" id="Shape"/><path d="M28.194 11.76a1.552 1.552 0 00-1.124-.465c-.388 0-.814.155-1.124.465L15.713 21.992c-.31.31-.465.698-.465 1.124 0 .427.155.814.465 1.124l10.233 10.233a1.59 1.59 0 002.248-2.248l-9.109-9.109 9.109-9.108a1.59 1.59 0 000-2.248z" id="Path"/></g></g></svg>