<svg width="46" height="46" fill="none" xmlns="http://www.w3.org/2000/svg"><path d="M23 45.52c12.403 0 22.52-10.078 22.52-22.52S35.402.48 23 .48C10.597.48.48 10.598.48 23 .48 35.403 10.598 45.52 23 45.52zm0-41.861c10.659 0 19.341 8.682 19.341 19.341S33.66 42.341 23 42.341 3.659 33.66 3.659 23 12.34 3.659 23 3.659z" fill="#380F54"/><path d="M17.806 34.24c.31.31.698.465 1.124.465.388 0 .814-.155 1.124-.465l10.233-10.232c.31-.31.465-.698.465-1.124 0-.427-.155-.814-.465-1.124L20.054 11.527a1.59 1.59 0 00-2.248 2.248l9.109 9.109-9.109 9.108a1.59 1.59 0 000 2.248z" fill="#380F54"/></svg>