<svg version="1.1" id="Layer_1" xmlns="http://www.w3.org/2000/svg" x="0" y="0" width="150" height="150" xml:space="preserve"><style>@-webkit-keyframes email{0%{-webkit-transform:translateY(-7px)}50%{-webkit-transform:translateY(7px)}}@-moz-keyframes email{0%{-moz-transform:translateY(-7px)}50%{-moz-transform:translateY(7px)}}@keyframes email{0%{transform:translateY(-7px)}50%{transform:translateY(7px)}}@-webkit-keyframes swish-1{0%{-webkit-transform:translateX(90px)}}@-moz-keyframes swish-1{0%{-moz-transform:translateX(90px)}}@keyframes swish-1{0%{transform:translateX(90px)}}@-webkit-keyframes swish-2{0%{-webkit-transform:translateX(120px)}}@-moz-keyframes swish-2{0%{-moz-transform:translateX(120px)}}@keyframes swish-2{0%{transform:translateX(120px)}}@-webkit-keyframes swish-3{0%{-webkit-transform:translateX(90px)}}@-moz-keyframes swish-3{0%{-moz-transform:translateX(90px)}}@keyframes swish-3{0%{transform:translateX(90px)}}.st1,.st2{fill:#fff}.st2{clip-path:url(#SVGID_2_)}</style><g id="email-icon" style="-webkit-animation:email 3s cubic-bezier(.57,.08,.52,.91) infinite alternate;-moz-animation:email 3s cubic-bezier(.57,.08,.52,.91) infinite alternate;-o-animation:email 3s cubic-bezier(.57,.08,.52,.91) infinite alternate;animation:email 3s cubic-bezier(.57,.08,.52,.91) infinite alternate"><path class="st1" d="M64 58.665V85.71l18.422-12.315zm30.527 20.791L125.095 55H64m61 30.71V58.709l-18.576 14.807z"/><path class="st1" d="M94.621 83l-10.373-7.534L64 89.249V96h61v-6.91l-20.338-13.624z"/></g><defs><clipPath id="SVGID_2_"><path id="SVGID_1_" d="M2.452 75a72.527 72.527 0 003.056 20.85h58.64V54.882H5.301A72.518 72.518 0 002.452 75z"/></clipPath></defs><g clip-path="url(#SVGID_2_)"><path class="st2" opacity=".5" style="-webkit-animation:swish-1 .8s linear infinite;-moz-animation:swish-1 .8s linear infinite;-o-animation:swish-1 .8s linear infinite;animation:swish-1 .8s linear infinite" d="M60.299 61.227l-40.091-2.11 40.091-2.926z"/><path class="st2" opacity=".15" style="-webkit-animation:swish-2 1.5s linear infinite;-moz-animation:swish-2 1.5s linear infinite;-o-animation:swish-2 1.5s linear infinite;animation:swish-2 1.5s linear infinite" d="M40.254 77.985L.162 75.874l40.092-2.926z"/><path class="st2" opacity=".35" style="-webkit-animation:swish-3 1s linear infinite;-moz-animation:swish-3 1s linear infinite;-o-animation:swish-3 1s linear infinite;animation:swish-3 1s linear infinite" d="M69.869 93.699l-40.092-2.11 40.092-2.927z"/></g></svg>