<svg width="538" height="467" fill="none" xmlns="http://www.w3.org/2000/svg"><g clip-path="url(#clip0_955_39073)"><path d="M73.278 355.481c-1.06-.529-1.678-1.589-1.766-2.825 0-1.148.618-2.296 1.677-2.825l28.429-15.541c.265-.176.265-.353.265-.529 0-.089 0-.354-.265-.53l-28.076-15.629c-.97-.529-1.589-1.589-1.677-2.737 0-1.148.53-2.207 1.589-2.825l39.553-23.752c2.913-1.766 6.621-1.854 9.623-.088l21.984 12.449c.618.354.883 1.148.53 1.766-.354.618-1.148.883-1.766.53l-22.072-12.45c-2.207-1.236-4.856-1.236-6.975.089l-39.553 23.751c-.265.177-.265.354-.265.53 0 .088 0 .353.265.442l28.076 15.628c1.059.53 1.677 1.678 1.677 2.826 0 1.147-.618 2.207-1.677 2.825l-28.429 15.54c-.265.177-.265.353-.265.53 0 .088 0 .353.265.53" fill="#7EC4F7"/><path d="M152.978 310.824l3.557-6.205-13.326-7.642-3.557 6.205 13.326 7.642z" fill="#7EC4F7"/><path d="M138.875 301.532c0-1.589 1.148-3.531 2.472-4.326 1.413-.795 2.472-.177 2.56 1.413 0 1.589-1.147 3.531-2.472 4.326-1.412.795-2.56.177-2.56-1.413zm31.552 21.803l5.753-10.034-20.909-11.99-5.753 10.035 20.909 11.989z" fill="#7EC4F7"/><path d="M154.327 303.298l-4.503-2.56c-1.854 1.324-3.354 3.885-3.531 6.18l4.503 2.561c1.854-1.325 3.266-3.885 3.531-6.181z" fill="#3981EA"/><path d="M148.32 308.684c0-2.56 1.766-5.739 4.062-7.064 2.207-1.324 4.061-.264 4.061 2.384 0 2.561-1.766 5.74-4.061 7.064-2.208 1.325-4.062.265-4.062-2.384z" fill="#7EC4F7"/><path d="M143.112 299.855c-.618-.353-.618-.972 0-1.325s1.677-.353 2.384 0c.618.353.618.972 0 1.325-.707.353-1.766.353-2.384 0z" fill="#D4ECFF"/><path d="M497.941 171.383L313.155 64.721c-2.384-1.412-4.591-1.589-6.357-.883l-.265.177h-.088l-6.004 2.826 6.534 3.266v.354l.088 151.87c0 7.593 4.679 16.511 10.506 19.778l179.93 103.837 1.06 8.476 6.533-3.179c2.207-1.236 3.532-4.15 3.532-8.211l-.089-151.87c-.088-7.594-4.767-16.512-10.594-19.779z" fill="#58B4ED"/><path d="M497.941 171.383L313.155 64.721c-2.384-1.412-4.591-1.589-6.357-.883l-.265.177h-.088l-6.004 2.826 6.534 3.266v100.394l84.138 66.487 114.244-57.481c-1.942-3.532-4.503-6.534-7.416-8.124z" fill="#7EC4F7"/><path d="M501.033 173.768l-18.099 7.593 13.684 10.507 11.389-4.856c-.971-4.945-3.62-9.977-6.974-13.244z" fill="#7EC4F7"/><path d="M491.939 353.539L307.153 246.877c-5.827-3.355-10.506-12.185-10.506-19.778l-.088-151.87c0-7.594 4.679-11.037 10.506-7.682l184.786 106.662c5.827 3.355 10.506 12.185 10.506 19.778l.088 151.87c0 7.594-4.679 11.037-10.506 7.682z" fill="#D3E9F8"/><path d="M485.757 342.237l-172.602-99.51c-5.298-3.09-9.624-11.214-9.624-18.101V85.648c0-6.976 4.326-10.066 9.624-7.064l172.602 99.51c5.297 3.09 9.623 11.214 9.623 18.101l.088 138.978c-.088 6.976-4.326 10.154-9.711 7.064z" fill="#fff"/><path d="M485.757 342.237l-172.602-99.51c-5.298-3.09-9.624-11.214-9.624-18.101V85.648c0-6.976 4.326-10.066 9.624-7.064l172.602 99.51c5.297 3.09 9.623 11.214 9.623 18.101l.088 138.978c-.088 6.976-4.326 10.154-9.711 7.064z" fill="#fff"/><g clip-path="url(#clip1_955_39073)"><path d="M372.171 224.469c1.975-16.196-8.597-38.2-23.612-49.148-15.016-10.948-28.79-6.694-30.765 9.502-1.974 16.196 8.597 38.201 23.613 49.149s28.789 6.694 30.764-9.503z" fill="#FCCA2E"/><mask id="mask0_955_39073" style="mask-type:alpha" maskUnits="userSpaceOnUse" x="317" y="169" width="56" height="72"><path d="M372.171 224.469c1.975-16.196-8.597-38.201-23.612-49.149-15.016-10.948-28.79-6.693-30.765 9.503-1.974 16.196 8.597 38.201 23.613 49.149s28.789 6.693 30.764-9.503z" fill="#F9B233"/></mask><g mask="url(#mask0_955_39073)"><path d="M351.17 217.927l-10.486-6.053v8.172l10.486 6.053v-8.172z" fill="#F9C2A7"/><path d="M343.2 219.259c1.573 1.634 3.303 3.057 5.034 4.056a20.8 20.8 0 002.936 1.392v-6.78l-10.486-6.053v4.237c.734 1.211 1.677 2.24 2.516 3.148z" fill="#EDEDED"/><path d="M357.305 206.093c.052-.273.472-.515.682-.575.419-.121.891.514.996 1.059.105.484.105.969.157 1.423.052 1.119-.052 2.149-.524 2.845-.262.514-.734.787-1.259.847 0 0-.576-.03-.681-.817 0 .06.629-4.782.629-4.782z" fill="#F9C2A7"/><path d="M357.201 206.698c0-.242.367-.333.472-.393.314-.061.629.363.734.787.104.363.104.726.104 1.029.053.817-.052 1.483-.367 2.027-.209.364-.524.545-.891.636 0 0-.419 0-.472-.575 0-.061.42-3.511.42-3.511z" fill="#E1B099"/><path d="M334.289 192.806c-.053-.333-.472-1.06-.682-1.362-.419-.606-.891-.515-.996-.091-.105.363-.105.847-.157 1.241-.053 1.059.052 2.209.524 3.45.262.818.734 1.635 1.258 2.301 0 0 .577.635.682-.031 0 .061-.629-5.508-.629-5.508z" fill="#F9C2A7"/><path d="M334.394 193.532c0-.242-.367-.757-.472-.938-.315-.424-.629-.363-.734-.061-.105.242-.105.606-.105.908-.052.757.053 1.544.367 2.452.21.605.525 1.15.892 1.665 0 0 .419.484.471-.031 0-.06-.419-3.995-.419-3.995z" fill="#E1B099"/><path d="M357.671 207.273c0 3.451-.524 6.598-1.888 8.778-1.205 1.906-3.041 2.905-5.033 3.389-1.573.424-3.303.999-5.348-.363-2.097-1.392-3.775-4.479-5.295-6.931-2.15-3.541-3.88-7.324-4.929-11.259-.629-2.421-.944-4.903-.944-7.143 0-11.078 5.243-15.012 11.745-11.259 6.501 3.753 11.692 13.771 11.692 24.788zm6.607 30.085l-13.108-11.501-5.243-3.027-5.243-3.026-13.108-3.632s-6.082-.908-6.764 6.931l25.115 14.497 25.114 14.498c-.681-8.626-6.763-14.74-6.763-14.74z" fill="#F9C2A7"/><path d="M364.278 237.358l-13.108-11.501-5.243-3.027-5.243-3.026-13.108-3.632s-6.082-.908-6.764 6.931l25.115 14.497 25.114 14.498c-.681-8.626-6.763-14.74-6.763-14.74z" fill="#fff"/><path d="M337.379 182.848s3.932 8.989 13.842 15.497c0 0-.839-.908-1.783-4.419 0 0 3.251 5.084 7.288 9.473l.944 2.724s0-1.15.891-.393c0 0 .734-8.354-2.412-14.528 0 0 1.521.938 2.464 2.451 0 0-1.415-4.267-6.291-9.019 0 0 1.206-.454 3.355 1.574 0 0-2.883-3.239-7.707-5.721 0 .061-9.438-5.811-10.591 2.361z" fill="#432918"/><path d="M338.902 185.3l-4.666 7.294s-.419-.847-.629-1.15c0 0-.262-13.832 6.344-12.621l-1.049 6.477z" fill="#432918"/><path d="M364.278 237.358l-9.7-8.504-8.651 8.747-8.546-18.675-9.805-2.754s-6.082-.908-6.764 6.931l25.115 14.498 25.114 14.497c-.681-8.626-6.763-14.74-6.763-14.74z" fill="#3C3C3B"/><path d="M344.775 230.034l-2.412 5.508 6.869 3.965-2.36-8.262-2.097-1.211z" fill="#BC1621"/><path d="M345.769 222.861l-3.093 2.996 2.149 4.268 1.049.544 1.049.606 2.044-1.907-3.198-6.507z" fill="#BE1622"/><path d="M347.812 228.218c-.367.696-1.101 1.301-2.097.484-1.048-.847-1.52-2.27-1.258-3.269.21-.968.839-1.573 1.206-2.391l-2.936 2.845 2.149 4.268 2.097 1.15 2.045-1.907-.891-1.785c-.105.242-.21.423-.315.605z" fill="#DADADA"/><path d="M345.926 237.6l-8.546-18.674-6.868-1.907 8.756 12.137-2.255-.151 4.037 5.781 4.876 2.814zm0 0l8.546-8.807 6.868 6.023-8.755 2.088 2.254 2.452-4.037 1.059-4.876-2.815z" fill="#2D2D2C"/><path d="M335.547 217.14l5.138.182 5.191 5.539 5.243.484 5.505 5.962-7.76 1.514-2.988-6.629-3.199 3.057-7.13-10.109z" fill="#E9E9E9"/></g></g><g clip-path="url(#clip2_955_39073)"><path d="M403.951 169.198c2.106-13.705-6.664-32.833-19.587-42.724-12.923-9.891-25.106-6.799-27.212 6.906-2.105 13.705 6.664 32.833 19.588 42.724 12.923 9.891 25.106 6.799 27.211-6.906z" fill="#1ED8A6"/><mask id="mask1_955_39073" style="mask-type:alpha" maskUnits="userSpaceOnUse" x="356" y="120" width="49" height="62"><path d="M403.951 169.198c2.106-13.705-6.664-32.833-19.587-42.724-12.923-9.891-25.106-6.799-27.212 6.906-2.105 13.705 6.664 32.833 19.588 42.724 12.923 9.891 25.106 6.799 27.211-6.906z" fill="#1DB2A8"/></mask><g mask="url(#mask1_955_39073)"><path d="M369.721 142.704c-.136.131-.544 18.945 2.357 24.545l16.41 9.473s4.487-12.011 1.45-22.347l-20.308-11.724" fill="#130800"/><path d="M385.363 162.199l-9.066-5.234v7.066l9.066 5.233v-7.065z" fill="#F9C2A7"/><path d="M378.516 163.376c1.36 1.413 2.856 2.643 4.351 3.559.862.497 1.723.89 2.539 1.204v-5.914l-9.066-5.234v3.664c.589 1.02 1.405 1.91 2.176 2.721z" fill="#EDEDED"/><path d="M390.665 151.967c.045-.235.408-.445.589-.497.363-.105.771.445.862.916.09.419.09.837.136 1.23.045.968-.046 1.858-.454 2.46-.226.444-.634.68-1.088.732 0 0-.498-.026-.589-.706 0 .052.544-4.135.544-4.135z" fill="#F9C2A7"/><path d="M390.574 152.491c0-.21.317-.288.408-.341.272-.052.544.314.634.681.091.314.091.628.091.89.045.706-.045 1.282-.317 1.753-.182.314-.454.471-.771.549 0 0-.363 0-.408-.497 0-.052.363-3.035.363-3.035z" fill="#E1B099"/><path d="M370.765 140.479c-.045-.287-.408-.915-.589-1.177-.363-.523-.771-.445-.861-.079-.091.314-.091.733-.136 1.073a7.191 7.191 0 00.453 2.983c.227.707.635 1.413 1.088 1.989 0 0 .498.55.589-.026 0 .052-.544-4.763-.544-4.763z" fill="#F9C2A7"/><path d="M370.855 141.107c0-.209-.317-.654-.408-.811-.272-.366-.544-.314-.634-.052-.091.209-.091.523-.091.785-.045.654.045 1.335.317 2.12.182.523.454.994.771 1.439 0 0 .363.418.408-.026 0-.053-.363-3.455-.363-3.455z" fill="#E1B099"/><path d="M390.981 152.988c0 2.983-.453 5.704-1.631 7.589-1.043 1.648-2.63 2.512-4.352 2.93-1.36.367-2.856.864-4.624-.314-1.813-1.203-3.264-3.873-4.578-5.992-1.859-3.062-3.355-6.333-4.261-9.735-.544-2.093-.816-4.239-.816-6.175 0-9.578 4.533-12.979 10.154-9.735 5.575 3.219 10.108 11.907 10.108 21.432zm3.673 24.833l-9.882-9.106-3.943-2.277-3.944-2.276-9.882-2.303s-4.579-.393-5.077 6.437l18.903 10.912 18.902 10.912c-.498-7.405-5.077-12.299-5.077-12.299z" fill="#F9C2A7"/><path d="M394.654 177.821l-5.439-5.024-8.386 4.788-8.387-14.47-5.439-1.256s-4.579-.393-5.077 6.437l18.903 10.912 18.902 10.912c-.498-7.406-5.077-12.299-5.077-12.299z" fill="#E74645"/><path d="M373.937 131.373s4.896 11.776 16.999 20.28c0 0 2.312-8.818-6.21-18.71 0 0-6.527-6.856-10.789-1.57z" fill="#432918"/><path d="M375.207 133.937s-3.173.524-4.533 6.281c0 0-1.451-13.189 6.119-10.389l-1.586 4.108zm12.377 14.733s3.263 25.749-1.904 29.517c0 0 6.573 2.696 6.89-7.588 0 0 1.179-20.62-3.264-30.512l-1.722 8.583z" fill="#432918"/><path d="M373.712 171.279s-7.571-5.417-5.485-31.009c0 0 .498-14.628 8.068-10.572l-.453 5.391s-4.352-.994-3.762 11.121c0-.052-.454 18.684 1.632 25.069z" fill="#432918"/></g></g><g clip-path="url(#clip3_955_39073)"><path d="M463.467 273.747c4.768-20.481-7.679-50.964-27.803-68.087-20.124-17.123-40.303-14.4-45.072 6.08-4.769 20.481 7.679 50.965 27.802 68.087 20.124 17.123 40.304 14.401 45.073-6.08z" fill="#191551"/><mask id="mask2_955_39073" style="mask-type:alpha" maskUnits="userSpaceOnUse" x="389" y="194" width="76" height="98"><path d="M463.467 273.747c4.768-20.481-7.679-50.964-27.803-68.087-20.124-17.123-40.303-14.4-45.072 6.08-4.769 20.481 7.679 50.965 27.802 68.087 20.124 17.123 40.304 14.401 45.073-6.08z" fill="#0D3953"/></mask><g mask="url(#mask2_955_39073)"><path d="M434.19 259.066l-14.319-8.266v11.159l14.319 8.266v-11.159z" fill="#F9C2A7"/><path d="M423.378 260.925c2.148 2.232 4.511 4.175 6.873 5.539a28.519 28.519 0 004.01 1.901v-9.258l-14.32-8.266v5.786c.931 1.612 2.22 3.017 3.437 4.298z" fill="#EDEDED"/><path d="M442.922 243.443c.071-.372.644-.703.93-.785.573-.166 1.218.702 1.361 1.446.143.661.143 1.323.215 1.943.071 1.529-.072 2.851-.716 3.802-.358.703-1.003.992-1.719 1.157 0 0-.787-.041-.931-1.116 0 .083.788-6.488.86-6.447z" fill="#F9C2A7"/><path d="M442.778 244.27c0-.331.501-.455.644-.538.429-.082.859.496 1.002 1.075.143.496.143.992.143 1.405.072 1.116-.071 2.025-.501 2.769-.286.496-.716.744-1.217.868 0 0-.573 0-.644-.785-.072-.124.573-4.794.573-4.794z" fill="#E1B099"/><path d="M410.847 224.927c-.072-.455-.645-1.447-.931-1.86-.573-.826-1.217-.702-1.36-.124-.143.496-.143 1.157-.215 1.695-.072 1.446.072 2.934.716 4.629.358 1.116 1.002 2.149 1.718 3.141 0 0 .788.868.931-.042 0 .083-.859-7.439-.859-7.439z" fill="#F9C2A7"/><path d="M410.991 225.919c0-.331-.501-1.033-.644-1.281-.43-.579-.859-.496-1.003-.083-.143.331-.143.827-.143 1.24-.071 1.033.072 2.108.501 3.348.287.826.716 1.57 1.217 2.273 0 0 .573.661.645-.041 0-.083-.573-5.456-.573-5.456z" fill="#E1B099"/><path d="M443.351 245.013c0 4.629-.716 8.845-2.649 11.779-1.718 2.48-4.224 3.844-7.017 4.464-2.219.537-4.582 1.323-7.446-.661-2.935-1.943-5.226-6.076-7.374-9.547-3.007-4.795-5.37-9.961-6.873-15.375-.931-3.265-1.289-6.613-1.289-9.589 0-14.961 7.303-20.086 16.324-14.879 9.021 5.291 16.324 18.93 16.324 33.808zm8.736 40.586l-17.899-15.705-7.159-4.133-7.16-4.133-17.899-4.96s-8.305-1.24-9.236 9.465l34.295 19.797 34.294 19.797c-.93-11.779-9.236-20.128-9.236-20.128z" fill="#F9C2A7"/><path d="M452.087 285.599l-17.899-15.705-7.159-4.133-7.16-4.133-17.899-4.96s-8.305-1.24-9.236 9.465l34.295 19.797 34.294 19.797c-.93-11.779-9.236-20.128-9.236-20.128z" fill="#fff"/><path d="M452.087 285.599l-13.245-11.613-11.813 11.944-11.67-25.501-13.389-3.678s-8.305-1.24-9.236 9.465l34.295 19.797 34.294 19.797c-.93-11.862-9.236-20.211-9.236-20.211z" fill="#002638"/><path d="M425.454 275.597l-3.294 7.523 9.379 5.414-3.222-11.283-2.863-1.654z" fill="#F9B233"/><path d="M426.813 265.802l-4.153 4.133 2.864 5.787 1.432.744 1.432.826 2.792-2.604-4.367-8.886z" fill="#F9B233"/><path d="M429.605 273.118c-.573.909-1.504 1.777-2.864.661-1.432-1.157-2.076-3.1-1.718-4.464.286-1.322 1.145-2.149 1.647-3.265l-4.01 3.885 2.936 5.828 2.863 1.57 2.793-2.603-1.217-2.439a7.723 7.723 0 01-.43.827z" fill="#DADADA"/><path d="M443.569 243.319s-2.649 12.853-11.598 11.82c0 0-1.146 2.563-4.797.455-3.723-2.149-4.797-5.993-4.797-5.993-8.949-9.299-11.599-25.211-11.599-25.211-.787 15.664 9.236 28.393 9.236 28.393 5.442 8.266 7.16 8.432 7.16 8.432s1.718 1.901 7.16-.166c0 0 9.951-.785 9.235-17.73z" fill="#432918"/><path d="M427.031 247.493s-3.723-3.472-4.654 2.108c0 0-1.074-.785-2.721-3.224 0-.082 2.506-5.745 7.375 1.116zm.356.207s3.723.826 4.653 7.48c0 0 1.074.455 2.721-.082 0-.083-2.506-8.638-7.374-7.398zm-16.61-23.31s2.363-15.416 9.88-9.424c0 0 6.73 8.762 12.386 7.068 0 0 6.802 3.678 10.597 21.409 0 0 .93-16.078-9.379-27.898 0 0-9.523-10.539-17.685-7.729-.071-.124-7.804 2.439-5.799 16.574z" fill="#432918"/><path d="M427.03 285.93l-11.67-25.501-9.38-2.603 11.957 16.573-3.079-.207 5.585 7.936 6.587 3.802z" fill="#001A2A"/><path d="M427.027 285.93l11.742-11.986 9.308 8.184-11.957 2.851 3.079 3.348-5.513 1.447-6.659-3.844z" fill="#001A2A"/><path d="M412.852 257.991l7.016.248 7.16 7.605 7.159.661 7.446 8.101-10.596 2.066-4.009-9.01-4.368 4.175-9.808-13.846z" fill="#E9E9E9"/></g></g><path d="M177.9 273.366l-75.574-43.089c-2.737-1.589-2.384-4.415.795-6.269l43.526-25.076c3.178-1.855 8.034-2.031 10.771-.442l75.574 43.089c2.737 1.589 2.384 4.415-.795 6.269l-43.526 25.076c-3.178 1.854-8.034 2.031-10.771.442z" fill="#F3F3F3"/><path d="M239.701 227.01V50.505L169.512 32.14l-12.89-7.417c-3.001-1.678-8.122-1.501-11.565.441l-12.096 6.976H95.527l11.125 170.412c-.089 1.148.529 2.296 2.03 3.09l70.012 52.89c3.002 1.678 8.123 1.501 11.566-.442l46.704-26.93c1.854-1.236 2.825-2.737 2.737-4.15z" fill="#7EC4F7"/><path d="M151.241 23.575c-2.207.088-4.414.618-6.18 1.59l-12.095 6.975H95.532v177.034c-.089 1.148.53 2.296 2.03 3.091l81.137 46.267c1.412.795 3.354 1.236 5.385 1.148l.795-178.094-33.638-58.01z" fill="#D3E9F8"/><path d="M179.402 258.797c2.561 1.059 6.269 1.059 9.271-.088V79.379h-9.271v179.418z" fill="#7EC4F7"/><path d="M178.606 81.498L97.47 35.23c-3.002-1.677-2.56-4.68.794-6.71L144.97 1.59c3.443-1.943 8.563-2.208 11.565-.442l81.137 46.267c3.001 1.678 2.56 4.68-.795 6.71l-46.704 26.931c-3.355 1.943-8.564 2.207-11.566.442z" fill="#D3E9F8"/><path d="M236.878 50.77L190.173 77.7c-3.443 1.943-8.563 2.208-11.565.442L97.471 31.875c-.618-.353-1.147-.795-1.5-1.325-1.06 1.678-.53 3.444 1.5 4.592l81.137 46.267c3.002 1.678 8.122 1.501 11.565-.441l46.705-26.93c2.648-1.502 3.443-3.71 2.295-5.387-.441.795-1.236 1.501-2.295 2.12z" fill="#F9FCFF"/><path d="M180.904 62.779l-54.032-31.346c-1.413-.794-1.236-2.207.353-3.09l21.807-12.626c1.589-.883 4.061-1.06 5.386-.265l54.12 31.345c1.413.795 1.236 2.208-.353 3.09l-21.807 12.627c-1.589.971-4.061 1.06-5.474.265z" fill="#7EC4F7"/><path d="M151.768 32.846l-3.09-1.766c-.177-.088-.177-.264.088-.441l3.002-1.766c.265-.088.53-.177.706 0l3.09 1.766c.177.088.177.265-.088.441l-3.002 1.766c-.176.089-.53.177-.706 0zm10.508 6.004l-3.09-1.766c-.177-.088-.177-.264.088-.441l3.002-1.766c.264-.088.529-.177.706 0l3.09 1.766c.177.088.177.265-.088.441l-3.002 1.766c-.177.177-.53.177-.706 0zm10.418 6.005l-3.09-1.766c-.177-.089-.177-.265.088-.442l3.002-1.766c.264-.088.529-.176.706 0l3.09 1.766c.177.089.177.265-.088.442l-3.002 1.766c-.177.176-.53.176-.706 0zm10.414 6.092l-3.09-1.766c-.177-.088-.177-.265.088-.441l3.002-1.766c.265-.088.529-.177.706 0l3.09 1.766c.177.088.177.265-.088.441l-3.002 1.766c-.177.088-.441.088-.706 0z" fill="#D3E9F8"/><path d="M126.961 31.434c.177 0 .265-.088.354-.176l21.807-12.627c1.589-.883 4.061-1.06 5.385-.265l53.944 31.257c1.236-.883 1.324-2.119.088-2.914l-53.944-31.168c-1.412-.795-3.796-.707-5.385.265l-21.807 12.626c-1.678.795-1.854 2.208-.442 3.002z" fill="#44A6E2"/><path d="M199.356 116.463l30.724-17.57c1.766-.972 3.09-3.71 3.09-6.005V81.939c0-2.295-1.413-3.355-3.09-2.384l-30.724 17.571c-1.766.971-3.09 3.709-3.09 6.004v10.949c-.089 2.384 1.324 3.444 3.09 2.384z" fill="#203E79"/><path d="M231.579 79.29c.441.442.795 1.236.795 2.296v10.949c0 2.296-1.413 4.944-3.09 6.004l-30.725 17.571c-.529.353-1.059.441-1.5.353.529.53 1.412.618 2.383.088l30.724-17.57c1.766-.972 3.091-3.71 3.091-6.005V81.94c-.089-1.59-.707-2.472-1.678-2.649z" fill="#fff"/><path d="M208.538 104.543l2.826-1.589c.353-.177.706-.795.706-1.325v-3.002c0-.53-.265-.706-.706-.53l-2.826 1.59c-.353.176-.706.794-.706 1.324v3.002c.088.53.353.795.706.53z" fill="#3A6DAA"/><path d="M217.984 99.157l2.825-1.59c.353-.176.706-.794.706-1.324v-3.002c0-.53-.265-.706-.706-.53l-2.825 1.59c-.354.176-.707.794-.707 1.324v3.002c0 .53.353.707.707.53z" fill="#fff"/><path d="M199.356 195.841l30.724-17.571c1.766-.971 3.09-3.708 3.09-6.004v-10.948c0-2.296-1.413-3.356-3.09-2.384l-30.724 17.571c-1.766.971-3.09 3.708-3.09 6.004v10.948c-.089 2.296 1.324 3.356 3.09 2.384z" fill="#203E79"/><path d="M231.579 158.58c.441.442.795 1.236.795 2.296v10.949c0 2.295-1.413 4.944-3.09 6.004L198.559 195.4c-.529.353-1.059.441-1.5.353.529.53 1.412.618 2.383.088l30.724-17.571c1.766-.971 3.091-3.708 3.091-6.004v-10.948c-.089-1.59-.707-2.561-1.678-2.738z" fill="#fff"/><path d="M208.538 183.922l2.826-1.59c.353-.176.706-.794.706-1.324v-3.002c0-.53-.265-.707-.706-.53l-2.826 1.589c-.353.177-.706.795-.706 1.325v3.002c.088.53.353.706.706.53z" fill="#3A6DAA"/><path d="M217.984 178.447l2.825-1.589c.353-.177.706-.795.706-1.325v-3.002c0-.529-.265-.706-.706-.529l-2.825 1.589c-.354.176-.707.795-.707 1.324v3.002c0 .53.353.795.707.53z" fill="#fff"/><path d="M199.356 235.487l30.724-17.571c1.766-.971 3.09-3.709 3.09-6.004v-10.949c0-2.296-1.413-3.355-3.09-2.384l-30.724 17.571c-1.766.971-3.09 3.708-3.09 6.004v10.949c-.089 2.384 1.324 3.443 3.09 2.384z" fill="#203E79"/><path d="M231.579 198.314c.441.441.795 1.236.795 2.296v10.948c0 2.296-1.413 4.945-3.09 6.005l-30.725 17.571c-.529.353-1.059.441-1.5.353.529.53 1.412.618 2.383.088l30.724-17.571c1.766-.971 3.091-3.708 3.091-6.004v-10.949c-.089-1.589-.707-2.56-1.678-2.737z" fill="#fff"/><path d="M208.538 223.567l2.826-1.59c.353-.176.706-.794.706-1.324v-3.002c0-.53-.265-.706-.706-.53l-2.826 1.589c-.353.177-.706.795-.706 1.325v3.002c.088.53.353.795.706.53z" fill="#3A6DAA"/><path d="M217.984 218.181l2.825-1.59c.353-.176.706-.794.706-1.324v-3.002c0-.53-.265-.706-.706-.53l-2.825 1.59c-.354.176-.707.794-.707 1.324v3.002c0 .53.353.706.707.53z" fill="#fff"/><path d="M199.356 156.196l30.724-17.571c1.766-.971 3.09-3.708 3.09-6.004v-10.948c0-2.296-1.413-3.356-3.09-2.384l-30.724 17.571c-1.766.971-3.09 3.708-3.09 6.004v10.948c-.089 2.296 1.324 3.356 3.09 2.384z" fill="#203E79"/><path d="M231.579 118.935c.441.442.795 1.236.795 2.296v10.949c0 2.295-1.413 4.944-3.09 6.004l-30.725 17.571c-.529.353-1.059.441-1.5.353.529.53 1.412.618 2.383.088l30.724-17.571c1.766-.971 3.091-3.708 3.091-6.004v-10.949c-.089-1.589-.707-2.56-1.678-2.737z" fill="#fff"/><path d="M208.538 144.277l2.826-1.59c.353-.176.706-.794.706-1.324v-3.002c0-.53-.265-.707-.706-.53l-2.826 1.589c-.353.177-.706.795-.706 1.325v3.002c.088.441.353.706.706.53z" fill="#3A6DAA"/><path d="M217.984 138.802l2.825-1.589c.353-.177.706-.795.706-1.325v-3.002c0-.529-.265-.706-.706-.529l-2.825 1.589c-.354.176-.707.795-.707 1.324v3.002c0 .53.353.795.707.53z" fill="#fff"/><path d="M172.693 105.249l-70.807-40.88c-1.589-.884-2.913-3.356-2.913-5.475v-13.51c0-2.119 1.324-3.09 2.913-2.207l70.807 40.881c1.589.883 2.913 3.355 2.913 5.475v13.509c0 2.119-1.324 3.09-2.913 2.207z" fill="#4164C4"/><path d="M170.662 100.481l-66.745-38.585c-.795-.442-1.413-1.678-1.413-2.826V49.004c0-1.06.618-1.589 1.413-1.06l66.745 38.586c.795.442 1.413 1.678 1.413 2.826V99.51c.088.971-.53 1.501-1.413.971z" fill="#5070E2"/><path d="M117.866 64.898l-9.977-5.74c-.794-.44-1.412-1.677-1.412-2.737s.618-1.5 1.412-1.06l9.977 5.74c.794.442 1.412 1.678 1.412 2.737 0 .972-.618 1.501-1.412 1.06z" fill="#5B95FF"/><path d="M126.341 67.9c0 1.06-.706 1.5-1.589.971-.883-.53-1.678-1.766-1.678-2.825 0-1.06.707-1.501 1.678-.972.883.53 1.589 1.766 1.589 2.826zm5.738 3.267c0 1.06-.706 1.5-1.677.97-.883-.529-1.59-1.765-1.59-2.825 0-1.06.707-1.5 1.59-.97.971.529 1.677 1.853 1.677 2.825zm5.74 3.355c0 1.06-.706 1.501-1.589.971-.883-.53-1.589-1.765-1.589-2.825 0-1.06.706-1.501 1.589-.971.883.53 1.589 1.766 1.589 2.825z" fill="#03E59F"/><path d="M143.643 77.877c0 1.06-.706 1.501-1.589.972-.883-.53-1.589-1.766-1.589-2.826s.706-1.5 1.589-.971c.795.53 1.589 1.766 1.589 2.825zm24.282 16.953l-3.355-1.942c-.529-.265-.882-1.06-.882-1.766V87.59c0-.707.441-.971.882-.707l3.355 1.943c.53.265.883 1.06.883 1.766v3.532c0 .706-.441 1.06-.883.706z" fill="#203E79"/><path d="M172.693 129.089l-70.807-40.88c-1.589-.884-2.913-3.356-2.913-5.475v-13.51c0-2.119 1.324-3.09 2.913-2.207l70.807 40.881c1.589.883 2.913 3.356 2.913 5.475v13.509c0 2.119-1.324 3.09-2.913 2.207z" fill="#4164C4"/><path d="M170.662 124.321l-66.745-38.585c-.795-.442-1.413-1.678-1.413-2.826V72.844c0-1.059.618-1.589 1.413-1.059l66.745 38.586c.795.441 1.413 1.677 1.413 2.825v10.154c.088.971-.53 1.413-1.413.971z" fill="#5070E2"/><path d="M117.866 88.65l-9.977-5.74c-.794-.441-1.412-1.677-1.412-2.737s.618-1.5 1.412-1.06l9.977 5.74c.794.441 1.412 1.678 1.412 2.737 0 1.06-.618 1.59-1.412 1.06z" fill="#5B95FF"/><path d="M126.341 91.74c0 1.06-.706 1.5-1.589.971-.883-.53-1.678-1.766-1.678-2.825 0-1.06.707-1.501 1.678-.972.883.442 1.589 1.766 1.589 2.826z" fill="#03E59F"/><path d="M132.079 95.007c0 1.06-.706 1.5-1.677.971-.883-.53-1.59-1.766-1.59-2.825 0-1.06.707-1.502 1.59-.972.971.53 1.677 1.766 1.677 2.826z" fill="#203E79"/><path d="M137.36 99.38c.634-.367.633-1.553-.001-2.651-.633-1.098-1.661-1.692-2.294-1.326-.634.366-.633 1.552.001 2.65.634 1.098 1.661 1.692 2.294 1.326z" fill="#03E59F"/><path d="M143.118 102.742c.634-.366.633-1.552-.001-2.65-.634-1.098-1.661-1.692-2.294-1.326-.634.365-.633 1.552.001 2.65.633 1.098 1.661 1.692 2.294 1.326z" fill="#203E79"/><path d="M167.925 118.67l-3.355-1.942c-.529-.265-.882-1.06-.882-1.766v-3.532c0-.706.441-.971.882-.706l3.355 1.942c.53.265.883 1.06.883 1.766v3.532c0 .706-.441.971-.883.706z" fill="#FFD22E"/><path d="M172.693 152.929l-70.807-40.881c-1.589-.883-2.913-3.355-2.913-5.474v-13.51c0-2.119 1.324-3.09 2.913-2.207l70.807 40.881c1.589.883 2.913 3.355 2.913 5.474v13.51c0 2.119-1.324 3.09-2.913 2.207z" fill="#4164C4"/><path d="M170.662 148.161l-66.745-38.585c-.795-.442-1.413-1.678-1.413-2.826V96.596c0-1.06.618-1.59 1.413-1.06l66.745 38.586c.795.441 1.413 1.678 1.413 2.825v10.155c.088 1.059-.53 1.501-1.413 1.059z" fill="#5070E2"/><path d="M117.866 112.489l-9.977-5.739c-.794-.441-1.412-1.677-1.412-2.737s.618-1.501 1.412-1.06l9.977 5.74c.794.441 1.412 1.677 1.412 2.737 0 1.059-.618 1.501-1.412 1.059z" fill="#5B95FF"/><path d="M126.341 115.492c0 1.059-.706 1.501-1.589.971-.883-.53-1.678-1.766-1.678-2.826 0-1.059.707-1.501 1.678-.971.883.53 1.589 1.854 1.589 2.826zm5.738 3.355c0 1.059-.706 1.501-1.677.971-.883-.53-1.59-1.766-1.59-2.826 0-1.059.707-1.501 1.59-.971.971.53 1.677 1.766 1.677 2.826z" fill="#FF65AB"/><path d="M137.819 122.202c0 1.06-.706 1.501-1.589.971-.883-.529-1.589-1.766-1.589-2.825 0-1.06.706-1.501 1.589-.971.883.529 1.589 1.766 1.589 2.825z" fill="#03E59F"/><path d="M143.643 125.469c0 1.06-.706 1.501-1.589.971-.883-.529-1.589-1.765-1.589-2.825 0-1.06.706-1.501 1.589-.971.795.529 1.589 1.854 1.589 2.825zm24.282 17.041l-3.355-1.942c-.529-.265-.882-1.06-.882-1.766v-3.532c0-.707.441-.971.882-.707l3.355 1.943c.53.265.883 1.059.883 1.766v3.532c0 .706-.441.971-.883.706z" fill="#203E79"/><path d="M172.693 176.681L101.886 135.8c-1.589-.883-2.913-3.355-2.913-5.474v-13.51c0-2.119 1.324-3.09 2.913-2.207l70.807 40.881c1.589.883 2.913 3.355 2.913 5.474v13.51c0 2.207-1.324 3.178-2.913 2.207z" fill="#4164C4"/><path d="M170.662 171.295l-66.745-38.585c-.795-.442-1.413-1.678-1.413-2.826V119.73c0-1.06.618-1.589 1.413-1.06l66.745 38.586c.795.442 1.413 1.678 1.413 2.826v10.154c.088.971-.53 1.501-1.413 1.059z" fill="#5070E2"/><path d="M117.866 136.33l-9.977-5.74c-.794-.441-1.412-1.677-1.412-2.737 0-1.059.618-1.501 1.412-1.059l9.977 5.739c.794.441 1.412 1.678 1.412 2.737 0 1.06-.618 1.501-1.412 1.06z" fill="#5B95FF"/><path d="M126.341 139.332c0 1.059-.706 1.501-1.589.971-.883-.53-1.678-1.766-1.678-2.826 0-1.059.707-1.501 1.678-.971.883.53 1.589 1.766 1.589 2.826zm5.738 3.355c0 1.06-.706 1.501-1.677.971-.883-.529-1.59-1.765-1.59-2.825 0-1.06.707-1.501 1.59-.971.971.529 1.677 1.766 1.677 2.825z" fill="#203E79"/><path d="M137.819 146.042c0 1.06-.706 1.501-1.589.971-.883-.529-1.589-1.766-1.589-2.825 0-1.06.706-1.501 1.589-.971.883.441 1.589 1.766 1.589 2.825z" fill="#03E59F"/><path d="M143.134 150.416c.633-.366.633-1.552-.001-2.65-.634-1.098-1.661-1.692-2.295-1.326-.633.366-.633 1.552.001 2.65.634 1.098 1.661 1.692 2.295 1.326z" fill="#203E79"/><path d="M167.925 166.351l-3.355-1.943c-.529-.265-.882-1.059-.882-1.766v-3.532c0-.706.441-.971.882-.706l3.355 1.943c.53.264.883 1.059.883 1.765v3.532c0 .707-.441.972-.883.707z" fill="#FFD22E"/><path d="M172.693 200.521l-70.807-40.881c-1.589-.883-2.913-3.355-2.913-5.474v-13.51c0-2.119 1.324-3.09 2.913-2.207l70.807 40.881c1.589.883 2.913 3.355 2.913 5.475v13.509c0 2.207-1.324 3.179-2.913 2.207z" fill="#4164C4"/><path d="M170.662 195.047l-66.745-38.586c-.795-.441-1.413-1.677-1.413-2.825v-10.154c0-1.06.618-1.59 1.413-1.06l66.745 38.586c.795.441 1.413 1.677 1.413 2.825v10.154c.088 1.06-.53 1.59-1.413 1.06z" fill="#5070E2"/><path d="M117.866 160.17l-9.977-5.739c-.794-.442-1.412-1.678-1.412-2.738 0-1.059.618-1.501 1.412-1.059l9.977 5.739c.794.442 1.412 1.678 1.412 2.737 0 .972-.618 1.501-1.412 1.06z" fill="#5B95FF"/><path d="M126.341 163.172c0 1.059-.706 1.501-1.589.971-.883-.53-1.678-1.766-1.678-2.825 0-1.06.707-1.501 1.678-.972.883.53 1.589 1.766 1.589 2.826z" fill="#203E79"/><path d="M132.079 166.527c0 1.06-.706 1.501-1.677.972-.883-.53-1.59-1.766-1.59-2.826s.707-1.501 1.59-.971c.971.53 1.677 1.766 1.677 2.825z" fill="#03E59F"/><path d="M137.819 169.794c0 1.06-.706 1.501-1.589.971-.883-.529-1.589-1.766-1.589-2.825 0-1.06.706-1.501 1.589-.971.883.529 1.589 1.854 1.589 2.825z" fill="#FF65AB"/><path d="M143.643 173.149c0 1.06-.706 1.501-1.589.972-.883-.53-1.589-1.766-1.589-2.826 0-1.059.706-1.501 1.589-.971.795.53 1.589 1.766 1.589 2.825z" fill="#03E59F"/><path d="M167.925 190.191l-3.355-1.943c-.529-.265-.882-1.059-.882-1.766v-3.532c0-.706.441-.971.882-.706l3.355 1.943c.53.264.883 1.059.883 1.766v3.531c0 .618-.441.972-.883.707z" fill="#FFD22E"/><path d="M172.693 224.361l-70.807-40.881c-1.589-.883-2.913-3.355-2.913-5.474v-13.51c0-2.119 1.324-3.09 2.913-2.207l70.807 40.881c1.589.883 2.913 3.356 2.913 5.475v13.509c0 2.119-1.324 3.09-2.913 2.207z" fill="#4164C4"/><path d="M170.662 218.887l-66.745-38.586c-.795-.441-1.413-1.677-1.413-2.825v-10.154c0-1.06.618-1.589 1.413-1.06l66.745 38.586c.795.441 1.413 1.677 1.413 2.825v10.154c.088 1.06-.53 1.501-1.413 1.06z" fill="#5070E2"/><path d="M117.866 184.01l-9.977-5.739c-.794-.442-1.412-1.678-1.412-2.738 0-1.059.618-1.501 1.412-1.059l9.977 5.739c.794.442 1.412 1.678 1.412 2.737 0 .972-.618 1.501-1.412 1.06z" fill="#5B95FF"/><path d="M126.341 187.012c0 1.059-.706 1.501-1.589.971-.883-.53-1.678-1.766-1.678-2.825 0-1.06.707-1.501 1.678-.972.883.53 1.589 1.766 1.589 2.826zm5.738 3.267c0 1.059-.706 1.501-1.677.971-.883-.53-1.59-1.766-1.59-2.825 0-1.06.707-1.502 1.59-.972.971.53 1.677 1.854 1.677 2.826z" fill="#203E79"/><path d="M137.819 193.634c0 1.06-.706 1.501-1.589.971-.883-.529-1.589-1.765-1.589-2.825 0-1.06.706-1.501 1.589-.971.883.529 1.589 1.766 1.589 2.825z" fill="#03E59F"/><path d="M143.643 196.989c0 1.06-.706 1.501-1.589.972-.883-.53-1.589-1.766-1.589-2.826 0-1.059.706-1.501 1.589-.971.883.53 1.589 1.766 1.589 2.825zm24.282 16.953L164.57 212c-.529-.265-.882-1.06-.882-1.766v-3.532c0-.706.441-.971.882-.706l3.355 1.942c.53.265.883 1.06.883 1.766v3.532c0 .706-.441 1.059-.883.706z" fill="#203E79"/><path d="M172.693 248.201l-70.807-40.881c-1.589-.883-2.913-3.355-2.913-5.474v-13.51c0-2.119 1.324-3.09 2.913-2.207l70.807 40.881c1.589.883 2.913 3.356 2.913 5.475v13.509c0 2.119-1.324 3.09-2.913 2.207z" fill="#4164C4"/><path d="M170.662 242.727l-66.745-38.586c-.795-.441-1.413-1.677-1.413-2.825v-10.154c0-1.06.618-1.589 1.413-1.06l66.745 38.586c.795.441 1.413 1.678 1.413 2.825v10.154c.088 1.06-.53 1.502-1.413 1.06z" fill="#5070E2"/><path d="M117.866 207.762l-9.977-5.74c-.794-.441-1.412-1.677-1.412-2.737 0-1.059.618-1.501 1.412-1.059l9.977 5.739c.794.441 1.412 1.678 1.412 2.737 0 1.06-.618 1.589-1.412 1.06z" fill="#5B95FF"/><path d="M163.602 232.838c0 1.942-1.413 2.737-3.09 1.766-1.678-.971-3.09-3.355-3.09-5.386 0-1.943 1.412-2.737 3.09-1.766 1.766.971 3.09 3.355 3.09 5.386z" fill="#fff"/><path d="M126.341 211.117c0 1.06-.706 1.501-1.589.971-.883-.529-1.678-1.766-1.678-2.825 0-1.06.707-1.501 1.678-.971.883.529 1.589 1.766 1.589 2.825z" fill="#203E79"/><path d="M132.079 214.472c0 1.06-.706 1.501-1.677.971-.883-.529-1.59-1.766-1.59-2.825 0-1.06.707-1.501 1.59-.971.971.441 1.677 1.766 1.677 2.825z" fill="#03E59F"/><path d="M137.392 218.833c.633-.365.633-1.552-.001-2.65-.634-1.098-1.662-1.691-2.295-1.326-.633.366-.633 1.553.001 2.651.634 1.098 1.661 1.691 2.295 1.325z" fill="#203E79"/><path d="M159.709 291.467c-.177 0-.353-.089-.618-.177l-66.216-37.614c-.794-.442-1.324-1.325-1.324-2.208 0-.883.441-1.766 1.236-2.207l28.428-16.776c.972-.618 1.59-1.678 1.59-2.826v-18.454c0-.618.529-1.148 1.147-1.148s1.148.53 1.148 1.148v18.454c0 2.031-1.059 3.885-2.737 4.857l-28.428 16.776c-.089 0-.089.088-.089.176 0 .089 0 .177.088.177l66.216 37.614c.53.354.795 1.06.442 1.59-.089.441-.442.618-.883.618z" fill="#7EC4F7"/><path d="M162.749 295.804l3.118-5.439-11.795-6.763-3.118 5.438 11.795 6.764z" fill="#7EC4F7"/><path d="M150.352 287.582c0-1.413.971-3.179 2.207-3.885 1.236-.707 2.207-.177 2.207 1.236s-.971 3.179-2.207 3.885c-1.236.795-2.207.177-2.207-1.236zm27.856 19.331l5.05-8.809L164.8 287.52l-5.05 8.808 18.458 10.585z" fill="#7EC4F7"/><path d="M163.95 289.259l-3.973-2.295c-1.678 1.147-2.914 3.443-3.09 5.474l3.973 2.296c1.589-1.236 2.913-3.444 3.09-5.475z" fill="#3981EA"/><path d="M158.652 293.939c0-2.296 1.59-5.121 3.62-6.269 2.031-1.148 3.62-.265 3.62 2.031 0 2.296-1.589 5.121-3.62 6.269-2.03 1.236-3.62.265-3.62-2.031z" fill="#7EC4F7"/><path d="M154.057 286.169c-.618-.353-.618-.883 0-1.236s1.501-.353 2.119 0c.618.353.618.883 0 1.236-.618.265-1.589.265-2.119 0z" fill="#D3E9F8"/><path d="M332.051 464.881L142.497 355.393c-5.385-3.09-4.679-8.476 1.501-12.096l129.077-74.522c6.18-3.532 15.538-3.974 20.924-.883l189.553 109.487c5.386 3.091 4.679 8.477-1.501 12.097l-129.076 74.522c-6.18 3.62-15.539 3.973-20.924.883z" fill="#F3F3F3"/><path d="M487.26 356.983l-25.956-3.444-167.305-96.508c-5.386-3.09-14.744-2.737-20.924.883l-118.482 68.342-15.627-2.031v8.918c-.089 2.03 1.059 4.061 3.619 5.474l189.554 109.488c5.385 3.09 14.744 2.737 20.924-.883l129.076-74.523c3.444-2.03 5.209-4.591 5.121-7.063v-8.653z" fill="#58B4ED"/><path d="M361.537 295.97l-11.919-6.887H218.953l-64.45 37.173-15.627-2.031v8.918c-.088 2.031 1.059 4.061 3.62 5.474l189.553 109.488c2.825 1.677 6.798 2.295 10.771 2.03l18.717-154.165z" fill="#7EC4F7"/><path d="M145.851 325.108l-6.975-.883v8.918c-.088 2.031 1.059 4.061 3.62 5.474l3.355 1.943v-15.452zm188.141 123.879c5.121 1.943 12.36 1.501 17.746-1.147v-19.867h-17.746v21.014z" fill="#7EC4F7"/><path d="M332.051 439.187L142.497 329.699c-5.385-3.09-4.679-8.476 1.501-12.097l129.077-74.522c6.18-3.532 15.538-3.973 20.924-.883l189.553 109.488c5.386 3.09 4.679 8.476-1.501 12.096l-129.076 74.523c-6.18 3.62-15.539 3.973-20.924.883z" fill="#D3E9F8"/><path d="M482.143 360.514l-129.076 74.523c-6.18 3.531-15.539 3.973-20.924.883L142.589 326.432c-1.766-.971-2.825-2.296-3.355-3.62-.883 2.56.265 5.121 3.355 6.887l189.554 109.488c5.385 3.09 14.744 2.737 20.924-.883l129.076-74.523c4.15-2.384 5.827-5.651 4.856-8.476-.706 1.942-2.296 3.708-4.856 5.209z" fill="#fff"/><path d="M223.105 293.498l-8.564-4.945c-.706-.441-.618-1.06.177-1.589l10.153-5.828c.795-.441 2.031-.53 2.649-.088l8.564 4.944c.706.442.618 1.06-.177 1.59l-10.153 5.827c-.706.442-1.942.442-2.649.089zm13.246 7.593l-8.563-4.945c-.707-.441-.618-1.059.176-1.589l10.153-5.828c.795-.441 2.031-.529 2.649-.088l8.564 4.945c.706.441.618 1.059-.177 1.589L239 301.003c-.706.441-1.942.529-2.649.088zm13.329 7.682l-8.564-4.945c-.707-.441-.618-1.059.176-1.589l10.153-5.828c.795-.441 2.031-.53 2.649-.088l8.564 4.945c.706.441.618 1.059-.177 1.589l-10.153 5.828c-.794.441-2.03.441-2.648.088zm18.273-6.358l-8.564-4.944c-.706-.442-.618-1.06.177-1.59l8.475-4.944c.795-.442 2.031-.53 2.649-.088l8.564 4.944c.706.442.618 1.06-.177 1.589l-8.475 4.945c-.795.442-1.943.53-2.649.088zm13.246 7.682l-8.564-4.944c-.706-.442-.618-1.06.177-1.59l8.475-4.944c.795-.442 2.031-.53 2.649-.089l8.564 4.945c.706.442.618 1.06-.177 1.589l-8.475 4.945c-.707.442-1.943.53-2.649.088zm13.246 7.682l-8.564-4.944c-.706-.442-.618-1.06.177-1.59l8.475-4.944c.795-.442 2.031-.53 2.649-.089l8.564 4.945c.706.441.618 1.06-.177 1.589l-8.475 4.945c-.707.441-1.943.441-2.649.088zm13.238 7.593l-8.563-4.944c-.707-.442-.618-1.06.176-1.589l8.476-4.945c.794-.442 2.03-.53 2.648-.088l8.564 4.944c.707.442.618 1.06-.176 1.59l-8.476 4.944c-.706.442-1.942.53-2.649.088zm13.247 7.682l-8.564-4.944c-.707-.442-.618-1.06.176-1.59l8.476-4.944c.794-.442 2.03-.53 2.648-.088l8.564 4.944c.707.442.618 1.06-.176 1.589l-8.476 4.945c-.706.442-1.942.442-2.648.088zm13.242 7.682l-8.564-4.945c-.706-.441-.618-1.059.176-1.589l8.476-4.945c.795-.441 2.031-.529 2.649-.088l8.564 4.945c.706.441.618 1.059-.177 1.589l-8.476 4.945c-.706.353-1.942.441-2.648.088zm13.242 7.594l-8.564-4.945c-.706-.441-.618-1.059.177-1.589l8.475-4.945c.795-.441 2.031-.53 2.649-.088l8.564 4.945c.706.441.618 1.059-.177 1.589l-8.475 4.944c-.707.442-1.943.53-2.649.089zm13.242 7.681l-8.564-4.944c-.706-.442-.618-1.06.177-1.59l8.475-4.944c.795-.442 2.031-.53 2.649-.088l8.564 4.944c.706.442.618 1.06-.177 1.589l-8.475 4.945c-.707.442-1.943.442-2.649.088zm13.246 7.594l-8.564-4.945c-.706-.441-.618-1.059.177-1.589l8.475-4.945c.795-.441 2.031-.529 2.649-.088l8.564 4.945c.706.441.618 1.059-.177 1.589l-8.475 4.945c-.706.441-1.943.529-2.649.088zm13.238 7.682l-8.563-4.945c-.707-.441-.618-1.059.176-1.589l8.476-4.945c.794-.441 2.03-.53 2.648-.088l8.564 4.945c.707.441.618 1.059-.176 1.589l-8.476 4.944c-.706.442-1.942.53-2.649.089zm-99.675-72.492l-8.564-4.944c-.707-.442-.618-1.06.176-1.59l8.476-4.944c.795-.442 2.031-.53 2.649-.089l8.564 4.945c.706.442.618 1.06-.177 1.589l-8.476 4.945c-.706.442-1.942.53-2.648.088zm-13.418-7.682l-8.564-4.944c-.706-.442-.618-1.06.176-1.59l8.476-4.944c.795-.442 2.031-.53 2.649-.088l8.564 4.944c.706.442.618 1.06-.177 1.59l-8.476 4.944c-.794.353-1.942.442-2.648.088zm-13.507-7.858l-18.452-10.684c-.706-.441-.618-1.059.177-1.589l8.475-4.945c.795-.441 2.031-.53 2.649-.088l18.452 10.684c.707.441.618 1.059-.176 1.589l-8.476 4.945c-.706.441-1.942.529-2.649.088zm9.448-9.447l-15.009-8.654c-.706-.441-.618-1.059.176-1.589l8.476-4.945c.795-.441 2.031-.529 2.649-.088l15.009 8.653c.706.442.618 1.06-.177 1.59l-8.476 4.944c-.794.442-1.942.53-2.648.089zm30.723 32.669l-8.564-4.944c-.706-.442-.618-1.06.176-1.59l8.476-4.944c.795-.442 2.031-.53 2.649-.089l8.564 4.945c.706.441.618 1.06-.177 1.589l-8.476 4.945c-.706.441-1.942.53-2.648.088zm13.242 7.682l-8.564-4.945c-.706-.441-.618-1.059.177-1.589l8.475-4.945c.795-.441 2.031-.529 2.649-.088l8.564 4.945c.706.441.618 1.059-.177 1.589l-8.475 4.945c-.707.441-1.943.441-2.649.088zm13.242 7.593l-8.564-4.944c-.706-.442-.618-1.06.177-1.59l8.475-4.944c.795-.442 2.031-.53 2.649-.088l8.564 4.944c.706.442.618 1.06-.177 1.589l-8.475 4.945c-.707.442-1.943.53-2.649.088zm13.242 7.682l-8.564-4.945c-.706-.441-.618-1.059.177-1.589l8.476-4.945c.794-.441 2.03-.529 2.648-.088l8.564 4.945c.706.441.618 1.059-.176 1.589l-8.476 4.945c-.706.441-1.942.441-2.649.088zm13.246 7.682l-8.563-4.945c-.707-.441-.618-1.059.176-1.589l8.476-4.945c.794-.441 2.03-.529 2.648-.088l8.564 4.945c.707.441.618 1.059-.176 1.589l-8.476 4.945c-.706.353-1.942.441-2.649.088zm13.243 7.594l-8.564-4.945c-.707-.441-.618-1.06.176-1.589l8.476-4.945c.795-.441 2.031-.53 2.649-.088l8.563 4.944c.707.442.618 1.06-.176 1.59l-8.476 4.944c-.706.442-1.942.53-2.648.089zm13.242 7.681l-8.564-4.944c-.706-.442-.618-1.06.176-1.59l8.476-4.944c.795-.442 2.031-.53 2.649-.089l8.564 4.945c.706.442.618 1.06-.177 1.589l-8.476 4.945c-.706.441-1.942.441-2.648.088zm13.246 7.594l-8.564-4.945c-.706-.441-.618-1.059.177-1.589l8.475-4.945c.795-.441 2.031-.53 2.649-.088l8.564 4.945c.706.441.618 1.059-.177 1.589l-8.475 4.945c-.707.441-1.943.529-2.649.088zm13.238 7.681l-8.564-4.944c-.706-.442-.618-1.06.177-1.59l8.475-4.944c.795-.442 2.031-.53 2.649-.088l8.564 4.944c.706.442.618 1.06-.177 1.59l-8.475 4.944c-.706.442-1.943.53-2.649.088zm23.579 13.598l-18.717-10.772c-.706-.442-.618-1.06.177-1.59l8.475-4.944c.795-.442 2.031-.53 2.649-.088l18.717 10.772c.706.441.618 1.059-.177 1.589l-8.475 4.945c-.707.441-1.943.53-2.649.088zm25.778-14.922l-15.804-9.094c-.706-.442-.618-1.06.177-1.59l8.476-4.944c.794-.442 2.03-.53 2.648-.089l15.804 9.095c.706.441.618 1.06-.177 1.589l-8.475 4.945c-.707.441-1.943.53-2.649.088zM323.93 304.976l-8.564-4.945c-.707-.441-.618-1.059.176-1.589l8.476-4.945c.794-.441 2.03-.529 2.648-.088l8.564 4.945c.707.441.618 1.059-.176 1.589l-8.476 4.945c-.794.441-1.942.529-2.648.088zm-13.594-7.858l-8.564-4.945c-.706-.441-.618-1.06.176-1.589l8.476-4.945c.795-.441 2.031-.53 2.649-.088l8.564 4.944c.706.442.618 1.06-.177 1.59l-8.476 4.944c-.706.442-1.942.53-2.648.089zm-13.598-7.77l-8.564-4.945c-.706-.441-.618-1.06.177-1.589l8.475-4.945c.795-.441 2.031-.53 2.649-.088l8.564 4.944c.706.442.618 1.06-.177 1.59l-8.475 4.944c-.707.353-1.943.442-2.649.089zm-13.512-7.859l-8.563-4.944c-.707-.442-.618-1.06.176-1.59l8.476-4.944c.794-.442 2.03-.53 2.648-.089l8.564 4.945c.707.441.618 1.059-.176 1.589l-8.476 4.945c-.795.441-2.031.441-2.649.088zm53.95 31.169l-8.564-4.945c-.707-.441-.618-1.059.176-1.589l8.476-4.945c.794-.441 2.031-.529 2.649-.088l8.563 4.945c.707.441.618 1.059-.176 1.589l-8.476 4.945c-.794.441-1.942.441-2.648.088zm13.238 7.593l-8.564-4.944c-.706-.442-.618-1.06.177-1.59l8.475-4.944c.795-.442 2.031-.53 2.649-.088l8.564 4.944c.706.442.618 1.06-.177 1.589l-8.475 4.945c-.795.442-1.943.53-2.649.088zm13.246 7.682l-8.564-4.945c-.706-.441-.618-1.059.177-1.589l8.475-4.945c.795-.441 2.031-.529 2.649-.088l8.564 4.945c.706.441.618 1.059-.177 1.589l-8.475 4.945c-.795.441-1.943.441-2.649.088zm13.242 7.682l-8.564-4.945c-.706-.441-.618-1.059.177-1.589l8.475-4.944c.795-.442 2.031-.53 2.649-.089l8.564 4.945c.706.441.618 1.059-.177 1.589l-8.475 4.945c-.795.441-1.943.441-2.649.088zm13.246 7.593l-8.564-4.944c-.706-.442-.618-1.06.177-1.59l8.476-4.944c.794-.442 2.03-.53 2.648-.088l8.564 4.944c.706.442.618 1.06-.176 1.59l-8.476 4.944c-.706.442-1.942.53-2.649.088zm13.239 7.682l-8.564-4.944c-.707-.442-.618-1.06.176-1.59l8.476-4.944c.794-.442 2.03-.53 2.648-.089l8.564 4.945c.707.442.618 1.06-.176 1.589l-8.476 4.945c-.706.441-1.942.441-2.648.088zm13.246 7.594l-8.564-4.945c-.707-.441-.618-1.059.176-1.589l8.476-4.945c.795-.441 2.031-.53 2.649-.088l8.563 4.945c.707.441.619 1.059-.176 1.589l-8.476 4.944c-.706.442-1.942.53-2.648.089zm13.246 7.681l-8.564-4.944c-.706-.442-.618-1.06.176-1.589l8.476-4.945c.795-.442 2.031-.53 2.649-.088l8.564 4.944c.706.442.618 1.06-.177 1.59l-8.476 4.944c-.706.442-1.942.53-2.648.088zm13.238 7.682l-8.564-4.944c-.706-.442-.618-1.06.177-1.59l8.475-4.944c.795-.442 2.031-.53 2.649-.089l8.564 4.945c.706.442.618 1.06-.177 1.589l-8.475 4.945c-.707.442-1.943.442-2.649.088zm-126.16-87.766l-8.564-4.945c-.706-.441-.618-1.059.177-1.589l8.475-4.945c.795-.441 2.031-.53 2.649-.088l8.564 4.945c.706.441.618 1.059-.177 1.589l-8.476 4.944c-.794.442-1.942.442-2.648.089zm-13.156-7.594l-8.564-4.944c-.707-.442-.618-1.06.176-1.59l8.476-4.944c.795-.442 2.031-.53 2.649-.089l8.563 4.945c.707.441.618 1.06-.176 1.589l-8.476 4.945c-.794.441-2.03.441-2.648.088zm-13.246-7.682l-8.564-4.944c-.707-.442-.618-1.06.176-1.59l8.476-4.944c.794-.442 2.03-.53 2.648-.089l8.564 4.945c.707.442.618 1.06-.176 1.589l-8.476 4.945c-.706.442-1.942.53-2.648.088zm-13.153-7.593l-8.564-4.945c-.706-.441-.618-1.059.177-1.589l8.475-4.945c.795-.441 2.031-.529 2.649-.088l8.564 4.945c.706.441.618 1.059-.177 1.589l-8.475 4.945c-.795.441-1.942.529-2.649.088zm13.598-7.77l-8.564-4.945c-.706-.441-.618-1.059.177-1.589l2.825-1.59c.794-.441 2.03-.529 2.648-.088l8.564 4.945c.707.441.618 1.059-.176 1.589l-2.826 1.589c-.794.442-2.03.442-2.648.089zm17.129 9.889l-8.564-4.945c-.706-.441-.618-1.059.176-1.589l2.826-1.589c.794-.442 2.03-.53 2.648-.089l8.564 4.945c.706.441.618 1.06-.176 1.589l-2.826 1.59c-.706.441-1.942.529-2.648.088zm13.152 7.593l-8.564-4.944c-.706-.442-.618-1.06.177-1.589l2.825-1.59c.795-.441 2.031-.53 2.649-.088l8.564 4.944c.706.442.618 1.06-.177 1.59l-2.825 1.589c-.795.442-1.943.442-2.649.088zm13.156 7.594l-8.564-4.945c-.706-.441-.618-1.059.177-1.589l2.825-1.589c.795-.442 2.031-.53 2.649-.089l8.564 4.945c.706.441.618 1.06-.177 1.589l-2.825 1.59c-.795.441-1.942.441-2.649.088zm13.067 7.593l-8.564-4.944c-.706-.442-.618-1.06.176-1.59l2.826-1.589c.794-.441 2.03-.53 2.648-.088l8.564 4.944c.706.442.618 1.06-.176 1.59l-2.826 1.589c-.706.442-1.942.442-2.648.088zm73.277 42.294l-8.564-4.944c-.706-.442-.618-1.06.177-1.59l2.825-1.589c.795-.441 2.031-.53 2.649-.088l8.564 4.944c.706.442.618 1.06-.177 1.59l-2.825 1.589c-.707.442-1.943.442-2.649.088zm13.152 7.594l-8.563-4.945c-.707-.441-.618-1.059.176-1.589l2.825-1.589c.795-.442 2.031-.53 2.649-.089l8.564 4.945c.706.441.618 1.059-.177 1.589l-2.825 1.59c-.795.441-1.942.441-2.649.088zm13.157 7.505l-8.564-4.945c-.707-.441-.618-1.059.176-1.589l2.826-1.589c.794-.442 2.03-.53 2.648-.089l8.564 4.945c.706.442.618 1.06-.176 1.589l-2.826 1.59c-.794.441-1.942.53-2.648.088zm13.066 7.594l-8.564-4.945c-.706-.441-.618-1.059.177-1.589l2.825-1.59c.795-.441 2.031-.529 2.649-.088l8.564 4.945c.706.441.618 1.059-.177 1.589l-2.825 1.589c-.707.442-1.943.53-2.649.089zm-129.957-59.424l-8.564-4.945c-.706-.441-.618-1.059.177-1.589l8.475-4.945c.795-.441 2.031-.529 2.649-.088l8.564 4.945c.706.441.618 1.059-.177 1.589l-8.475 4.945c-.795.441-1.943.529-2.649.088zm13.242 7.682l-8.564-4.945c-.706-.441-.618-1.059.177-1.589l8.476-4.945c.794-.441 2.03-.529 2.648-.088l8.564 4.945c.706.441.618 1.059-.177 1.589l-8.475 4.945c-.795.441-1.942.529-2.649.088zm13.242 7.682l-8.563-4.945c-.707-.441-.618-1.059.176-1.589l8.476-4.945c.794-.441 2.03-.53 2.648-.088l8.564 4.945c.707.441.618 1.059-.176 1.589l-8.476 4.944c-.795.442-1.942.442-2.649.089zm13.247 7.593l-8.564-4.944c-.707-.442-.618-1.06.176-1.59l8.476-4.944c.794-.442 2.03-.53 2.648-.089l8.564 4.945c.707.441.618 1.06-.176 1.589l-8.476 4.945c-.794.441-1.942.53-2.648.088zm13.238 7.682l-8.564-4.944c-.706-.442-.618-1.06.176-1.59l8.476-4.944c.795-.442 2.031-.53 2.649-.089l8.564 4.945c.706.441.618 1.059-.177 1.589l-8.476 4.945c-.706.441-1.942.441-2.648.088zm13.246 7.682l-8.564-4.945c-.706-.441-.618-1.059.177-1.589l8.475-4.945c.795-.441 2.031-.53 2.649-.088l8.564 4.945c.706.441.618 1.059-.177 1.589l-8.475 4.944c-.707.442-1.943.442-2.649.089zm13.246 7.593l-8.564-4.944c-.706-.442-.618-1.06.177-1.59l8.475-4.944c.795-.442 2.031-.53 2.649-.089l8.564 4.945c.706.442.618 1.06-.177 1.589l-8.475 4.945c-.707.441-1.943.53-2.649.088zm13.238 7.682l-8.564-4.945c-.706-.441-.618-1.059.177-1.589l8.476-4.945c.794-.441 2.03-.529 2.648-.088l8.564 4.945c.706.441.618 1.059-.177 1.589l-8.475 4.945c-.706.441-1.942.441-2.649.088zm13.246 7.593l-8.564-4.944c-.706-.442-.618-1.06.177-1.589l8.476-4.945c.794-.442 2.03-.53 2.648-.088l8.564 4.944c.707.442.618 1.06-.176 1.59l-8.476 4.944c-.706.442-1.942.53-2.649.088zm-181.696-60.218l-25.25-14.568c-.707-.442-.618-1.06.176-1.59l8.476-4.944c.794-.442 2.03-.53 2.648-.089l25.251 14.569c.706.442.618 1.06-.177 1.59l-8.475 4.944c-.707.442-1.943.53-2.649.088zm162.715 93.948l-25.25-14.569c-.707-.442-.618-1.06.176-1.59l8.476-4.944c.794-.442 2.03-.53 2.648-.088l25.251 14.568c.706.442.618 1.06-.177 1.59l-8.476 4.944c-.706.442-1.942.53-2.648.089zm-52.976-13.686l-8.564-4.945c-.706-.441-.618-1.059.177-1.589l10.153-5.828c.795-.441 2.031-.529 2.649-.088l8.564 4.945c.706.441.618 1.059-.177 1.589l-10.153 5.827c-.706.442-1.942.53-2.649.089zm-96.141-55.539l-13.684-7.946c-.707-.442-.618-1.06.176-1.59l10.153-5.827c.795-.442 2.031-.53 2.649-.089l13.685 7.947c.706.442.618 1.06-.177 1.589l-10.153 5.828c-.795.442-1.942.53-2.649.088zm83.43 48.21l-13.685-7.947c-.706-.441-.618-1.059.177-1.589l10.153-5.828c.795-.441 2.031-.529 2.649-.088l13.684 7.947c.707.441.618 1.059-.176 1.589l-10.153 5.828c-.795.441-1.943.441-2.649.088zm-64.363-37.173l-13.685-7.946c-.706-.442-.618-1.06.177-1.59l10.153-5.827c.794-.442 2.03-.53 2.648-.088l13.685 7.946c.706.442.618 1.06-.177 1.59l-10.153 5.827c-.706.442-1.942.53-2.648.088z" fill="#7EC4F7"/><path d="M286.494 315.042l59.682 34.435c.707.442.707 1.148 0 1.59l-10.329 6.004c-.707.441-1.943.441-2.649 0l-59.682-34.436 12.978-7.593zm114.776 73.727l9.535 5.475c.53.353.53.883-.176 1.236l-4.15 2.384c-.618.353-1.677.441-2.207.088l-9.535-5.474c-.53-.353-.53-.883.177-1.236l4.149-2.384c.618-.354 1.589-.354 2.207-.089zm-13.422-7.681l9.535 5.474c.53.353.53.883-.176 1.236l-4.15 2.384c-.618.353-1.677.442-2.207.088l-9.535-5.474c-.53-.353-.53-.883.177-1.236l4.149-2.384c.707-.353 1.678-.442 2.207-.088zm-13.242-7.682l9.535 5.474c.53.353.53.883-.176 1.236l-4.15 2.384c-.618.354-1.677.442-2.207.089l-9.535-5.475c-.53-.353-.53-.883.176-1.236l4.15-2.384c.706-.353 1.677-.353 2.207-.088zm20.571 3.443l9.535 5.475c.529.353.529.883-.177 1.236l-4.15 2.384c-.618.353-1.677.441-2.207.088l-9.535-5.474c-.529-.353-.53-.883.177-1.236l4.149-2.384c.707-.354 1.678-.442 2.208-.089zm-112.39 21.103c-1.501 0-2.913-.353-3.973-.971l-66.215-38.232c-1.236-.707-1.943-1.766-1.943-2.914 0-1.324.883-2.561 2.472-3.532l43.791-25.341c2.649-1.589 6.622-1.678 9.005-.353l66.216 38.232c1.236.707 1.942 1.766 1.942 2.914 0 1.325-.883 2.561-2.472 3.532l-43.79 25.341c-1.413.883-3.267 1.324-5.033 1.324zm-20.747-70.019c-1.413 0-2.914.354-3.973.972l-43.791 25.341c-.883.529-1.413 1.148-1.413 1.677 0 .53.53.883.883 1.148l66.216 38.233c1.766.971 4.944.883 6.975-.354l43.79-25.341c.883-.529 1.413-1.148 1.413-1.677 0-.53-.53-.883-.883-1.148l-66.216-38.233c-.794-.441-1.854-.618-3.001-.618z" fill="#7EC4F7"/><path d="M267.515 356.365l6.533-3.621c.618-.353 1.678-.265 2.384.089.706.441.795.971.176 1.324l-6.533 3.62c-.618.353-1.677.265-2.384-.088-.706-.442-.794-1.06-.176-1.324zm-13.774 7.681l9.535-5.386c.619-.353 1.678-.265 2.384.088.707.442.795.972.177 1.325l-9.535 5.386c-.618.353-1.678.265-2.384-.088-.706-.354-.795-.972-.177-1.325zm35.227 4.238l12.36-6.975c.618-.353 1.678-.265 2.384.088.706.442.795.972.177 1.325l-12.361 6.975c-.618.353-1.677.265-2.383-.088-.707-.442-.795-1.06-.177-1.325zm-2.207-10.772l4.061-2.295c.618-.354 1.678-.265 2.384.088.706.441.795.971.176 1.324l-4.061 2.296c-.618.353-1.677.265-2.383-.088-.707-.353-.795-.972-.177-1.325zm-9.094-6.887l2.561-1.501c.618-.353 1.677-.265 2.383.089.707.441.795.971.177 1.324l-2.56 1.501c-.618.353-1.678.265-2.384-.088-.707-.353-.795-.972-.177-1.325zm-11.215-5.651l3.267-1.854c.618-.353 1.677-.265 2.384.088.706.442.794.971.176 1.325l-3.266 1.854c-.618.353-1.678.265-2.384-.088-.706-.442-.795-.972-.177-1.325zm-12.621 7.064l8.564-4.768c.618-.353 1.678-.265 2.384.088.706.442.794.971.176 1.325l-8.563 4.768c-.618.353-1.678.264-2.384-.089-.706-.441-.795-1.059-.177-1.324zm4.41-8.477l6.092-3.443c.618-.353 1.678-.265 2.384.088.706.442.795.971.177 1.325l-6.092 3.443c-.618.353-1.678.265-2.384-.088-.706-.442-.795-.971-.177-1.325zm13.422 22.428l10.86-6.093c.618-.353 1.677-.265 2.383.089.707.441.795.971.177 1.324l-10.859 6.092c-.618.354-1.678.265-2.384-.088-.706-.441-.795-.971-.177-1.324zm5.563 2.914l18.893-10.596c.618-.353 1.678-.265 2.384.088.706.442.795.972.177 1.325l-18.894 10.595c-.618.354-1.677.265-2.384-.088-.706-.441-.794-1.059-.176-1.324zm-2.559-10.596l10.86-6.092c.618-.354 1.677-.265 2.383.088.707.441.795.971.177 1.324l-10.859 6.093c-.618.353-1.678.265-2.384-.088-.707-.442-.795-.972-.177-1.325zm-11.215 12.273l3.973-2.207c.618-.353 1.678-.265 2.384.088.706.442.795.971.177 1.325l-3.973 2.207c-.618.353-1.678.265-2.384-.088-.706-.354-.795-.972-.177-1.325zm-1.5-17.129l12.979-7.329c.618-.353 1.677-.265 2.383.088.707.442.795.972.177 1.325l-12.978 7.328c-.618.354-1.678.265-2.384-.088s-.795-.971-.177-1.324z" fill="#7EC4F7"/><path opacity=".1" d="M61.803 370.139l35.58-20.573c2.207-1.236 1.942-3.444-.618-4.945L62.42 324.755c-2.56-1.413-6.357-1.59-8.476-.354l-35.58 20.573c-2.207 1.237-1.942 3.444.618 4.945l34.344 19.867c2.472 1.412 6.269 1.589 8.476.353z" fill="#203E79"/><path d="M6.53 331.906v-15.363h34.432l11.918-6.887c2.737-1.59 7.505-1.413 10.683.441l11.124 6.446h34.521v15.805c.088 1.059-.53 2.119-1.854 2.825l-44.585 25.695c-2.737 1.589-7.505 1.412-10.683-.442L9.09 335.615c-1.766-1.06-2.649-2.472-2.56-3.709z" fill="#5B95FF"/><path d="M57.828 308.596c2.03.088 4.061.53 5.739 1.501l11.124 6.446h34.521v15.805c.088 1.059-.53 2.119-1.855 2.825l-44.585 25.695c-1.324.794-3.09 1.059-4.944 1.059v-53.331z" fill="#7EC4F7"/><path d="M105.238 316.455h3.885v15.805c.088 1.059-.53 2.119-1.854 2.825l-2.031 1.236v-19.866z" fill="#7EC4F7"/><path d="M62.154 361.133c-2.384.971-5.739.971-8.564-.089V343.12h8.564v18.013z" fill="#7BB1FF"/><path d="M62.772 345.063l44.497-25.695c2.737-1.589 2.384-4.326-.794-6.18l-42.996-24.812c-3.179-1.854-7.946-2.031-10.683-.441L8.299 313.629c-2.737 1.589-2.384 4.327.794 6.181l43.085 24.811c3.09 1.854 7.857 2.031 10.594.442z" fill="#D3E9F8"/><path d="M61.98 340.471l37.345-21.544c2.296-1.325 2.031-3.62-.618-5.121l-36.021-20.838c-2.649-1.501-6.622-1.678-8.917-.354l-37.346 21.545c-2.295 1.324-2.03 3.62.618 5.121l36.021 20.838c2.65 1.501 6.622 1.678 8.918.353z" fill="#3A81E8"/><path d="M24.713 336.905l-.354.612 17.89 10.335.352-.612-17.888-10.335z" fill="#fff"/><path d="M22.957 335.968c0 1.148.795 2.561 1.766 3.09.97.53 1.765.089 1.765-1.059s-.794-2.561-1.765-3.091c-.971-.529-1.766-.088-1.766 1.06zm-5.828-3.355c0 1.148.794 2.561 1.766 3.09.97.53 1.765.089 1.765-1.059s-.794-2.561-1.765-3.091c-.971-.529-1.766-.088-1.766 1.06zm-5.739-3.355c0 1.147.795 2.56 1.766 3.09.971.53 1.766.088 1.766-1.06 0-1.147-.795-2.56-1.766-3.09-.97-.53-1.765-.088-1.765 1.06z" fill="#fff"/><path d="M6.53 307.184V291.82h34.432l11.918-6.887c2.737-1.59 7.505-1.413 10.683.441l11.124 6.446h34.521v15.805c.088 1.06-.53 2.119-1.854 2.825l-44.585 25.695c-2.737 1.589-7.505 1.413-10.683-.442L9.09 310.892c-1.766-1.06-2.649-2.472-2.56-3.708z" fill="#5B95FF"/><path d="M57.828 283.873c2.03.089 4.061.53 5.739 1.501l11.124 6.446h34.521v15.805c.088 1.06-.53 2.119-1.855 2.825l-44.585 25.695c-1.324.794-3.09 1.059-4.944 1.059v-53.331z" fill="#7EC4F7"/><path d="M105.238 291.731h3.885v15.805c.088 1.06-.53 2.12-1.854 2.826l-2.031 1.236v-19.867z" fill="#7EC4F7"/><path d="M62.154 336.498c-2.384.971-5.739.971-8.564-.088v-17.925h8.564v18.013z" fill="#7BB1FF"/><path d="M62.772 320.34l44.497-25.695c2.737-1.589 2.384-4.326-.794-6.18l-42.996-24.812c-3.179-1.854-7.946-2.03-10.683-.441L8.299 288.906c-2.737 1.589-2.384 4.327.794 6.181l43.085 24.811c3.09 1.854 7.857 2.031 10.594.442z" fill="#D3E9F8"/><path d="M9.184 292.085l42.996 24.811c3.178 1.854 7.946 2.031 10.683.442l44.497-25.695c.618-.353 1.059-.794 1.324-1.236.971 1.501.53 3.179-1.324 4.238L62.775 320.34c-2.737 1.589-7.505 1.412-10.683-.442L9.096 295.087c-2.472-1.413-3.179-3.355-2.12-4.945.442.707 1.148 1.413 2.208 1.943zm13.773 19.16c0 1.148.795 2.561 1.766 3.091.97.529 1.765.088 1.765-1.06 0-1.148-.794-2.561-1.765-3.09-.971-.53-1.766-.089-1.766 1.059zm17.656 9.713c0 1.148.795 2.561 1.766 3.09.971.53 1.766.089 1.766-1.059s-.795-2.561-1.766-3.091c-.883-.529-1.766-.088-1.766 1.06zm0 25.517c0 1.148.795 2.561 1.766 3.091.971.53 1.766.088 1.766-1.06 0-1.148-.795-2.56-1.766-3.09-.883-.618-1.766-.088-1.766 1.059zM17.129 307.89c0 1.148.794 2.561 1.766 3.091.97.529 1.765.088 1.765-1.06 0-1.148-.794-2.561-1.765-3.09-.971-.53-1.766-.089-1.766 1.059zm-5.739-3.355c0 1.147.795 2.56 1.766 3.09.971.53 1.766.088 1.766-1.06 0-1.147-.795-2.56-1.766-3.09-.97-.53-1.765-.088-1.765 1.06z" fill="#fff"/><path d="M60.122 304.446l20.835-12.008c1.237-.706 1.148-2.031-.353-2.914l-20.13-11.655c-1.5-.883-3.707-.971-5.032-.177l-20.836 12.009c-1.236.706-1.147 2.031.354 2.914l20.13 11.655c1.588.794 3.795.883 5.032.176z" fill="#7EC4F7"/><path d="M58.18 294.381l2.914-1.678c.176-.088.176-.265-.088-.441l-2.826-1.59c-.176-.088-.53-.088-.706 0l-2.913 1.678c-.177.088-.177.265.088.441l2.825 1.59c.177.088.53.088.706 0z" fill="#D3E9F8"/><path d="M80.958 292.438c-.177 0-.265-.088-.353-.176l-20.13-11.656c-1.5-.883-3.708-.971-5.032-.176l-20.748 12.008c-1.148-.883-1.236-2.031-.088-2.649l20.836-12.008c1.236-.706 3.531-.618 5.032.177l20.13 11.655c1.5.794 1.677 2.03.353 2.825z" fill="#44A6E2"/><path d="M64.54 324.048c0 1.236.882 1.678 1.853 1.06 1.06-.619 1.854-2.031 1.854-3.267 0-1.237-.883-1.678-1.854-1.06-1.06.53-1.854 2.031-1.854 3.267z" fill="#D3E9F8"/><path d="M70.367 320.604c0 1.237.883 1.678 1.854 1.06 1.06-.618 1.854-2.031 1.854-3.267 0-1.236-.883-1.678-1.854-1.06-.97.619-1.854 2.12-1.854 3.267z" fill="#203E79"/><path d="M64.54 331.112c0 1.236.882 1.677 1.853 1.059 1.06-.618 1.854-2.031 1.854-3.267 0-1.236-.883-1.677-1.854-1.059-1.06.618-1.854 2.031-1.854 3.267zm5.827-3.356c0 1.236.883 1.678 1.854 1.06 1.06-.618 1.854-2.031 1.854-3.267 0-1.236-.883-1.678-1.854-1.06-.97.53-1.854 2.031-1.854 3.267zm-5.827 20.662c0 1.236.882 1.678 1.853 1.059 1.06-.618 1.854-2.03 1.854-3.267 0-1.236-.883-1.677-1.854-1.059-1.06.618-1.854 2.031-1.854 3.267zm5.827-3.355c0 1.236.883 1.677 1.854 1.059 1.06-.618 1.854-2.031 1.854-3.267 0-1.236-.883-1.677-1.854-1.059-.97.529-1.854 2.03-1.854 3.267z" fill="#D3E9F8"/><path d="M64.54 355.482c0 1.236.882 1.677 1.853 1.059 1.06-.618 1.854-2.031 1.854-3.267 0-1.236-.883-1.677-1.854-1.059-1.06.618-1.854 2.119-1.854 3.267z" fill="#203E79"/><path d="M70.367 352.126c0 1.237.883 1.678 1.854 1.06 1.06-.618 1.854-2.031 1.854-3.267 0-1.236-.883-1.678-1.854-1.06-.97.618-1.854 2.031-1.854 3.267z" fill="#D3E9F8"/><g clip-path="url(#clip4_955_39073)"><path d="M441.094 170.215l2.51-1.746c.764-.545 1.855-.655 3.055.109l86.757 50.083c2.401 1.418 4.256 5.019 4.256 8.183v48.555c0 1.637-.546 2.837-1.419 3.383l-2.619 1.854-.109-1.854c-.109 0-.109-.11-.218-.11l-86.648-50.082c-2.401-1.418-4.256-5.019-4.256-8.183v-48.664c0-.437 0-.873.109-1.31l-1.418-.218z" fill="url(#paint0_linear_955_39073)"/><path d="M537.455 224.88l-22.917 13.203-5.784-3.274 25.972-15.057c1.31 1.309 2.292 3.164 2.729 5.128z" fill="url(#paint1_linear_955_39073)"/><path d="M444.041 230.445l86.757 50.082c2.401 1.419 4.256-.109 4.256-3.273v-48.555c0-3.164-1.965-6.874-4.256-8.183l-86.757-50.083c-2.292-1.418-4.256 0-4.256 3.164v48.555c0 3.274 1.964 6.874 4.256 8.293z" fill="url(#paint2_linear_955_39073)"/><path d="M534.616 277.472v-48.555c0-3.164-1.964-6.874-4.256-8.183l-86.756-50.083c-.982-.545-1.746-.654-2.51-.327.764-.546 1.855-.546 2.946.109l86.757 49.973c2.401 1.419 4.256 5.02 4.256 8.184v48.555c0 1.964-.655 3.164-1.746 3.6.764-.436 1.309-1.636 1.309-3.273z" fill="#fff"/><path d="M452.118 199.785l70.824 40.807c.546.328.982.437 1.31 0v-11.02c0-.873-.546-1.855-1.092-2.182l-71.369-41.135c-.109 0-.109-.109-.219-.109-.545.109-.545.545-.545 1.309l-.218 10.256c.109.982.654 1.746 1.309 2.074zm-.113 23.349l70.933 40.808c.546.328 1.201.655 1.31 0v-11.02c0-.873-.546-1.855-1.091-2.182l-71.37-41.026c-.109 0-.109-.11-.218-.11-.546-.218-.655.546-.655 1.31v10.147c0 .764.437 1.746 1.091 2.073z" fill="#5761D7"/><path d="M451.57 186.254v11.021c0 .873.545 1.855 1.091 2.182l71.369 41.135c.11 0 .11 0 .219.109-.109.655-.546.873-1.092.546l-71.369-41.245c-.655-.327-1.091-1.309-1.091-2.182v-10.693c-.11-.764.327-1.091.873-.873zm0 23.351v11.02c0 .873.545 1.855 1.091 2.182l71.369 41.135c.11 0 .11 0 .219.109-.109.655-.546.873-1.092.546l-71.369-41.135c-.655-.328-1.091-1.31-1.091-2.182v-10.693c-.11-.764.327-1.201.873-.982z" fill="#fff"/><path d="M503.841 224.662l-.873 1.637-1.637-2.074 1.309-1.309-1.855-1.964.655-1.637 1.746 2.073-.218-2.509 2.073 1.2-.218 2.182 1.746-.109.655 2.292-1.855-.219 1.2 2.728-1.637.218-1.091-2.509zm-8.188-4.692l-.873 1.637-1.637-2.073 1.2-1.31-1.855-1.964.655-1.637 1.746 2.074-.218-2.51 2.073 1.2-.218 2.182 1.746-.109.655 2.292-1.855-.218 1.2 2.727-1.746.328-.873-2.619zm-8.179-4.801l-.873 1.637-1.637-2.074 1.309-1.309-1.855-1.964.655-1.637 1.746 2.074-.437-2.401 2.074 1.2-.219 2.183 1.746-.11.655 2.292-1.964-.109 1.2 2.728-1.637.218-.763-2.728zm-8.188-4.692l-.873 1.637-1.637-2.073 1.31-1.31-1.856-1.964.655-1.636 1.746 2.073-.218-2.51 2.073 1.201-.218 2.182 1.746-.109.655 2.291-1.855-.218 1.2 2.728-1.855.327-.873-2.619zm-8.184-4.801l-.873 1.637-1.636-2.073 1.309-1.31-1.855-1.964.655-1.636 1.746 2.073-.219-2.51 2.074 1.201-.218 2.182 1.746-.109.654 2.291-1.855-.218 1.201 2.728-1.856.436-.873-2.728zm32.738 42.336l-.873 1.636-1.636-2.073 1.309-1.309-1.964-1.855.655-1.637 1.746 2.073-.219-2.509 2.074 1.2-.218 2.182 1.746-.109.654 2.292-1.855-.219 1.201 2.728-1.637.218-.983-2.618zm-8.183-4.692l-.873 1.637-1.637-2.073 1.31-1.31-1.855-1.964.654-1.636 1.746 2.073-.218-2.51 2.074 1.2-.219 2.183 1.746-.11.655 2.292-1.855-.218 1.2 2.727-1.855.437-.873-2.728zm-8.183-4.692l-.873 1.637-1.637-2.073 1.309-1.31-1.855-1.964.655-1.636 1.746 2.073-.218-2.51 2.073 1.2-.218 2.183 1.746-.109.655 2.291-1.856-.218.982 2.946-1.636.218-.873-2.728zm-8.188-4.801l-.873 1.637-1.637-2.073 1.309-1.31-1.964-1.855.655-1.636 1.746 2.073-.218-2.51 2.073 1.201-.218 2.182 1.746-.109.655 2.291-1.856-.218 1.201 2.728-1.746.327-.873-2.728zm-8.184-4.692l-.873 1.637-1.636-2.073 1.309-1.309-1.855-1.964.655-1.637 1.746 2.073-.219-2.509 2.074 1.2-.218 2.182 1.746-.109.654 2.291-1.855-.218 1.201 2.728-1.637.218-1.092-2.51z" fill="#fff"/></g><g clip-path="url(#clip5_955_39073)"><path d="M369.618 326.337c0 21.371-7.376 36.508-19.367 43.836-.36.22-7.891 5.559-8.26 5.765-12.475 6.975-4.497-8.853-23.444-19.79-38.132-22.013-69.045-75.325-69.045-119.076 0-21.633-20.404-21.167-8.151-28.39.342-.202 10.674-6.56 11.023-6.748 12.443-6.738 29.448-5.497 48.199 5.327 38.132 22.013 69.045 75.325 69.045 119.076z" fill="url(#paint3_linear_955_39073)"/><path d="M339.704 376.821c26.794-15.662 26.521-65.977-.612-112.382-27.132-46.404-70.848-71.326-97.643-55.664-26.794 15.662-26.52 65.977.612 112.381 27.132 46.405 70.848 71.327 97.643 55.665z" fill="url(#paint4_linear_955_39073)"/><path style="mix-blend-mode:color-dodge" d="M335.168 378.478c.193-.054.381-.118.572-.175.412-.258.81-.537 1.209-.814-.587.341-1.173.684-1.781.989z" fill="url(#paint5_radial_955_39073)"/><path style="mix-blend-mode:color-dodge" d="M292.505 212.518c-18.28-10.552-34.888-11.975-47.239-5.8a35.821 35.821 0 013.153-.71c11.622-3.501 26.139-1.207 41.907 7.896 38.133 22.013 69.045 75.324 69.045 119.075 0 20.386-6.713 35.096-17.74 42.769 12.313-7.198 19.919-22.46 19.919-44.155 0-43.751-30.913-97.063-69.045-119.075z" fill="url(#paint6_radial_955_39073)"/><path d="M294.4 267.595c-14.047-8.154-29.272-7.56-40.213-1.29-10.942 6.271-12.289 51.572-7.153 55.101 5.136 3.53 46.212 26.181 53.168 30.326 8.047 4.795 38.208-1.224 38.208-9.595 0-4.993 1.271-44.485-9.597-53.638-6.656-5.606-20.268-12.695-34.413-20.904z" fill="url(#paint7_radial_955_39073)"/><path d="M283.563 280.372l-6.393 8.235 2.167 8.886-4.989 39.877 7.282 4.16 2.043-42.086 7.477-8.128-2.6-10.293-4.987-.651z" fill="url(#paint8_linear_955_39073)"/><path style="mix-blend-mode:multiply" d="M316.827 289.184c2.394-9.946-7.898-20.953-22.989-24.585-15.09-3.632-29.264 1.487-31.659 11.433-2.394 9.947 7.898 20.954 22.988 24.586 15.091 3.631 29.265-1.487 31.66-11.434z" fill="url(#paint9_radial_955_39073)"/><path style="mix-blend-mode:multiply" opacity=".5" d="M270.895 301.72c-1.561-21.341 5.418-34.231 7.709-39.809a39.465 39.465 0 00-11.881-.462 74.702 74.702 0 00-4.713 37.983 198.875 198.875 0 008.961 35.948c1.293.737 2.609 1.492 3.963 2.28-2.171-8.667-3.182-24.233-4.039-35.94z" fill="url(#paint10_linear_955_39073)"/><path d="M269.788 301.216c-1.615-22.076 5.116-32.979 7.135-38.229 3.604.11.039-1.848 3.723-.93-10.742-2.682-20.573-1.466-27.668 3.643-7.087 5.102-9.565 16.992-9.98 29.862-.354 10.962.681 23.339 2.827 25.239 3.32 2.939 14.199 8.322 28.002 16.354-2.171-8.667-3.182-24.233-4.039-35.939z" fill="url(#paint11_radial_955_39073)"/><path d="M329.828 288.563c-5.225-4.401-15.752-9.779-26.443-15.832 3.284 1.86 3.412 3.213 6.383 4.929-2.346 7.374-7.135 12.249-13.058 22.075-6.951 11.531-13.062 33.18-14.632 42.244 8.455 4.914 15.646 9.079 18.123 10.561 10.51 6.287 39.015-2.032 39.015-10.403 0-4.993 1.479-44.421-9.388-53.574z" fill="url(#paint12_radial_955_39073)"/><path d="M281.979 341.923l-6.374-3.706 6.374 3.706z" fill="#E6E7E8"/><g style="mix-blend-mode:multiply"><path d="M269.788 301.216c-1.615-22.076 5.116-32.979 7.135-38.229 3.604.11.039-1.848 3.723-.93-10.742-2.682-20.573-1.466-27.668 3.643-7.087 5.102-9.565 16.992-9.98 29.862-.354 10.962.681 23.339 2.827 25.239 3.32 2.939 14.199 8.322 28.002 16.354-2.171-8.667-3.182-24.233-4.039-35.939z" fill="url(#paint13_radial_955_39073)"/><path style="mix-blend-mode:multiply" opacity=".5" d="M249.93 292.03c.716-10.681 2.572-20.762 6.421-28.074-5.235 5.688-7.621 15.832-8.532 26.781-.91 10.93-.506 23.344 1.541 25.35.268.263.608.553.979.856a135.173 135.173 0 01-.409-24.913z" fill="url(#paint14_linear_955_39073)"/><path d="M329.832 288.563c-5.226-4.401-15.752-9.779-26.443-15.832 3.284 1.86 3.412 3.213 6.383 4.929-2.346 7.374-7.135 12.249-13.058 22.075-6.951 11.531-13.062 33.18-14.632 42.244 8.455 4.914 15.646 9.079 18.123 10.561 10.51 6.287 39.015-2.032 39.015-10.403 0-4.993 1.479-44.421-9.388-53.574z" fill="url(#paint15_radial_955_39073)"/><path d="M281.987 341.923l-6.374-3.706 6.374 3.706z" fill="url(#paint16_radial_955_39073)"/></g><path d="M278.942 265.141c-4.039 1.346-7.314 7.804-6.866 15.749.539 9.557 3.5 12.788 3.5 12.788l8.751-12.788 5.202 16.278s8.013-2.166 13.107-7.259c5.094-5.093 9.693-9.961 6.997-14.251-3.235-5.145-25.517-12.241-30.691-10.517z" fill="url(#paint17_radial_955_39073)"/><path style="mix-blend-mode:multiply" opacity=".5" d="M310.411 276.212c-2.525 7.021-7.519 14.817-13.193 24.229-6.951 11.531-13.062 33.18-14.632 42.245l2.315 1.345a146.038 146.038 0 0111.913-28.11c8.598-15.402 20.999-30.535 23.694-33.651-2.912-1.697-6.73-4.193-10.097-6.058z" fill="url(#paint18_linear_955_39073)"/><path d="M309.903 275.506c-2.525 7.02-7.519 14.816-13.193 24.229-6.951 11.53-13.061 33.18-14.632 42.244l2.315 1.345a146.065 146.065 0 0111.913-28.11c8.598-15.402 20.999-30.534 23.694-33.651-2.912-1.696-6.73-4.193-10.097-6.057z" fill="url(#paint19_radial_955_39073)"/><path d="M269.786 301.216c-1.562-21.342 5.418-34.231 7.709-39.81a39.535 39.535 0 00-11.882-.462 74.714 74.714 0 00-4.712 37.983 198.72 198.72 0 008.961 35.949c1.293.737 2.609 1.492 3.963 2.279-2.172-8.667-3.182-24.233-4.039-35.939z" fill="url(#paint20_radial_955_39073)"/><path d="M326.391 287.553c-6.26 1.414-14.068 7.875-15.347 19.855-1.186 11.107-.606 37.757-.606 37.757s-4.193-35.05.202-46.036c4.712-11.778 13.126-13.124 13.126-13.124l2.625 1.548z" fill="#45108A"/><path style="mix-blend-mode:screen" d="M289.526 297.168l-5.201-16.277-8.751 12.786-.773-2.052 9.491-11.711 6.361 16.759-1.127.495z" fill="url(#paint21_radial_955_39073)"/><path d="M262.215 221.266c-2.053 8.853-1.653 35.328 5.011 40.981 5.274 4.474 10.004 1.523 10.329 8.025.325 6.501-2.412 7.11 1.571 9.964 3.815 2.734 25.788.755 25.257-6.211-.499-6.54-1.961-8.873 1.074-14.941 3.034-6.068 11.813-15.821 10.512-24.489-1.3-8.669-46.493-44.645-53.754-13.329z" fill="url(#paint22_radial_955_39073)"/><path d="M258.746 220.129c-3.484-1.339-3.967-10.936 13.722-22.756 13.597-9.086 40.289-7.285 48.191 10.986 8.217 18.999.733 29.461-5.507 43.187-3.761 8.273-10.468 9.49-10.468 9.49s2.794-8.413 5.215-11.488c3.532-4.486 6.094-10.419 3.368-13.852-1.52-1.914-3.903-2.949-7.215.362-5.494 5.491-11.273-12.506-25.089-15.333-11.651-2.384-18.714.749-22.217-.596z" fill="url(#paint23_linear_955_39073)"/><path style="mix-blend-mode:multiply" opacity=".8" d="M281.342 267.044a16.178 16.178 0 01-5.651-.748c1.071.653 1.751 1.757 1.862 3.976.326 6.502-2.412 7.11 1.572 9.965 1.371.982 5.139 1.543 9.376 1.538 6.168-6.233 5.683-16.519 5.683-16.519a99.39 99.39 0 01-12.842 1.788z" fill="url(#paint24_linear_955_39073)"/><path style="mix-blend-mode:screen" opacity=".6" d="M263.188 221.933s-1.885 18.441.808 25.844c2.693 7.403 18.444-9.826 20.194-16.826 1.75-6.999-4.847-13.326-21.002-9.018z" fill="url(#paint25_linear_955_39073)"/><path style="mix-blend-mode:multiply" opacity=".5" d="M304.689 261.035s6.706-1.216 10.467-9.489c6.24-13.726 14.814-24.21 6.597-43.209a25.98 25.98 0 00-1.897-3.568c-4.204 1.299-8.986 3.92-11.162 9.222-2.351 5.729-8.467 11.694-13.542 15.936 4.641 4.887 7.818 9.216 10.904 6.13 3.313-3.311 5.695-2.275 7.215-.361 2.727 3.432.165 9.366-3.367 13.852-2.421 3.074-5.215 11.487-5.215 11.487z" fill="url(#paint26_linear_955_39073)"/><path style="mix-blend-mode:multiply" opacity=".5" d="M308.725 244.479s4.745-4.947 3.029-7.471c-1.717-2.523-4.645 1.313-4.645 1.313l1.616 6.158z" fill="url(#paint27_linear_955_39073)"/><path style="mix-blend-mode:multiply" opacity=".5" d="M282.886 218.345c-7.216-1.709-20.784.809-25.956-1.699.168 1.864.869 3.119 1.817 3.483 3.503 1.346 10.566-1.788 22.217.596 10.206 2.088 16.025 12.447 20.585 15.508-.963-2.067-11.227-16.128-18.663-17.888z" fill="url(#paint28_linear_955_39073)"/><path d="M377.322 367.009c0 10.842-3.742 18.521-9.825 22.239-.183.112-10.393 6.444-10.58 6.549-6.329 3.539-2.281-4.491-11.894-10.04-19.346-11.168-35.028-38.215-35.028-60.411 0-10.975-10.149-11.064-3.933-14.729.173-.102 11.602-6.626 11.779-6.722 6.312-3.418 14.94-2.789 24.453 2.703 19.345 11.168 35.028 38.215 35.028 60.411z" fill="url(#paint29_linear_955_39073)"/><path d="M355.758 396.245c13.594-7.946 13.455-33.472-.31-57.015-13.765-23.542-35.944-36.186-49.538-28.24-13.593 7.946-13.454 33.472.311 57.015 13.765 23.542 35.943 36.186 49.537 28.24z" fill="url(#paint30_linear_955_39073)"/><path style="mix-blend-mode:color-dodge" d="M332.517 312.587c-9.274-5.353-17.7-6.075-23.966-2.942 5.841-1.633 13.089-.413 20.94 4.119 19.346 11.168 35.029 38.214 35.029 60.411 0 11.556-4.257 19.508-11.063 22.91 8.552-2.391 14.088-10.899 14.088-24.087 0-22.196-15.682-49.243-35.028-60.411z" fill="url(#paint31_radial_955_39073)"/><path d="M308.354 344.279l15.462 33.669a1.311 1.311 0 002.14.357l27.105-28.448a3.024 3.024 0 00.552-3.344 3.027 3.027 0 00-.705-.961l-9.13-8.312a3.005 3.005 0 00-2.474-.751 3.017 3.017 0 00-2.145 1.442l-14.537 24.501-7.134-17.118a3.002 3.002 0 00-2.204-1.798l-5.489-1.07a1.311 1.311 0 00-1.441 1.833z" fill="#fff"/></g><g clip-path="url(#clip6_955_39073)"><path d="M297.884 129.066c19.267 11.123 34.887 2.106 34.887-20.139 0-22.246-15.62-49.296-34.887-60.418-19.268-11.123-34.888-2.106-34.888 20.139 0 22.246 15.62 49.296 34.888 60.418z" fill="#26ABDB"/><mask id="mask3_955_39073" style="mask-type:alpha" maskUnits="userSpaceOnUse" x="262" y="43" width="71" height="91"><path d="M297.884 129.066c19.267 11.123 34.887 2.106 34.887-20.139 0-22.246-15.62-49.296-34.887-60.418-19.268-11.123-34.888-2.106-34.888 20.139 0 22.246 15.62 49.296 34.888 60.418z" fill="#26ABDB"/></mask><g mask="url(#mask3_955_39073)"><path d="M287.208 80.393c-.134.154-.534 20.871 2.868 27.148l19.078 10.859s5.137-13.131 1.534-24.607l-23.614-13.477" fill="#000"/><path d="M305.591 104.128l-13.341-7.605.056 10.429 13.342 7.605-.057-10.429z" fill="#F9C2A7"/><path d="M295.546 105.923c2.001 2.08 4.202 3.889 6.404 5.16 1.267.732 2.535 1.309 3.735 1.695l-.066-8.665-13.342-7.624v5.391c1.001 1.579 2.202 2.965 3.269 4.043z" fill="#EDEDED"/><path d="M313.757 90.482c0 4.39-.6 8.433-2.335 11.205-1.534 2.426-3.869 3.697-6.337 4.429-2.001.539-4.202 1.271-6.737-.347-2.668-1.771-4.803-5.622-6.738-8.818a54.546 54.546 0 01-6.337-14.363c-.867-3.12-1.267-6.277-1.267-9.05-.134-14.17 6.47-19.292 14.742-14.517 8.205 4.66 14.942 17.329 15.009 31.46zm5.604 36.659l-14.542-13.324-5.804-3.35-5.803-3.273-14.476-3.196s-6.737-.578-7.404 9.511l27.817 15.827 27.816 15.827c-.867-10.898-7.604-18.022-7.604-18.022z" fill="#F9C2A7"/><path d="M319.361 127.141l-8.071-7.355-12.208 7.201-12.407-21.256-8.005-1.772s-6.871-.577-7.404 9.512l40.691 23.181 15.275 8.741c-1.4-11.667-7.871-18.252-7.871-18.252z" fill="#0D3953"/><path d="M284.809 65.683c3.535 5.969 14.742 11.514 13.341 10.628l1.334-7.162.867 8.51s2.135 2.156 6.871 3.966l1.134-4.813.867 5.583s3.269.886 4.003-.539c0 0-.667-14.325-13.142-22.835 0 0-12.54-7.008-15.275 6.662z" fill="#000"/><path d="M309.156 68.88s5.537 43.705-1.734 50.598c0 0 7.404.886 8.338-5.507 0 0 5.87-26.262-6.604-45.092zm-18.413-10.783s-5.937 37.468 1.401 52.64c0 0-7.471-7.625-8.472-15.134 0 .077-5.336-32.885 7.071-37.506z" fill="#000"/><path d="M286.406 105.654l12.808 22.488 13.808-6.816-4.069-4.197-9.939-3.427-8.005-7.779-4.603-.269z" fill="#E9E9E9"/><path d="M286.406 105.654l6.204.424 6.337 6.43 6.271.693 6.67 7.009-9.339 1.463-3.602-7.624-3.869 3.388-8.672-11.783z" fill="#D6D6D6"/></g></g></g><defs><linearGradient id="paint0_linear_955_39073" x1="526.067" y1="253.838" x2="440.156" y2="181.74" gradientUnits="userSpaceOnUse"><stop stop-color="#5761D7"/><stop offset=".178" stop-color="#5C66D9"/><stop offset=".388" stop-color="#6A73DF"/><stop offset=".613" stop-color="#8289E8"/><stop offset=".849" stop-color="#A3A7F5"/><stop offset="1" stop-color="#BCBEFF"/></linearGradient><linearGradient id="paint1_linear_955_39073" x1="527.804" y1="232.287" x2="518.42" y2="224.412" gradientUnits="userSpaceOnUse"><stop stop-color="#C0BFF6"/><stop offset=".294" stop-color="#C5C4F7"/><stop offset=".64" stop-color="#D3D2F9"/><stop offset="1" stop-color="#E9E9FD"/></linearGradient><linearGradient id="paint2_linear_955_39073" x1="440.725" y1="280.905" x2="544.491" y2="266.957" gradientUnits="userSpaceOnUse"><stop stop-color="#0AF292"/><stop offset="1" stop-color="#7269F7"/></linearGradient><linearGradient id="paint3_linear_955_39073" x1="270.544" y1="218.517" x2="375.106" y2="387.909" gradientUnits="userSpaceOnUse"><stop offset=".01" stop-color="#C1A1D5"/><stop offset=".065" stop-color="#C8ABDA"/><stop offset=".16" stop-color="#DAC6E6"/><stop offset=".281" stop-color="#F7F2F9"/><stop offset=".313" stop-color="#fff"/><stop offset=".352" stop-color="#F9F5FB"/><stop offset=".417" stop-color="#E9DBF2"/><stop offset=".495" stop-color="#D1B4E3"/><stop offset=".565" stop-color="#B395D6"/><stop offset=".637" stop-color="#9C7DCB"/><stop offset=".703" stop-color="#8E6EC5"/><stop offset=".758" stop-color="#8969C3"/><stop offset=".847" stop-color="#9471C6"/><stop offset="1" stop-color="#B086CC"/></linearGradient><linearGradient id="paint4_linear_955_39073" x1="241.436" y1="208.709" x2="339.652" y2="376.739" gradientUnits="userSpaceOnUse"><stop stop-color="#7A5FFF"/><stop offset=".609" stop-color="#927FF1"/><stop offset="1" stop-color="#01FF89"/></linearGradient><linearGradient id="paint8_linear_955_39073" x1="284.533" y1="339.836" x2="280.361" y2="280.205" gradientUnits="userSpaceOnUse"><stop stop-color="#25054D"/><stop offset="1" stop-color="#45108A"/></linearGradient><linearGradient id="paint10_linear_955_39073" x1="261.319" y1="299.426" x2="278.604" y2="299.426" gradientUnits="userSpaceOnUse"><stop stop-color="#fff"/><stop offset="1" stop-color="#BCBEC0"/></linearGradient><linearGradient id="paint14_linear_955_39073" x1="251.188" y1="315.953" x2="252.198" y2="264.87" gradientUnits="userSpaceOnUse"><stop stop-color="#fff"/><stop offset="1" stop-color="#BCBEC0"/></linearGradient><linearGradient id="paint18_linear_955_39073" x1="282.586" y1="310.121" x2="320.508" y2="310.121" gradientUnits="userSpaceOnUse"><stop stop-color="#fff"/><stop offset="1" stop-color="#BCBEC0"/></linearGradient><linearGradient id="paint23_linear_955_39073" x1="298.523" y1="264.643" x2="283.566" y2="179.334" gradientUnits="userSpaceOnUse"><stop offset=".035" stop-color="#602213"/><stop offset=".571" stop-color="#6D310E"/><stop offset="1" stop-color="#7A4108"/></linearGradient><linearGradient id="paint24_linear_955_39073" x1="290.277" y1="276.421" x2="276.719" y2="263.039" gradientUnits="userSpaceOnUse"><stop stop-color="#fff"/><stop offset="1" stop-color="#DBAC9B"/></linearGradient><linearGradient id="paint25_linear_955_39073" x1="262.753" y1="226.091" x2="277.402" y2="239.97" gradientUnits="userSpaceOnUse"><stop stop-color="#fff"/><stop offset="1"/></linearGradient><linearGradient id="paint26_linear_955_39073" x1="304.231" y1="219.245" x2="313.115" y2="234.322" gradientUnits="userSpaceOnUse"><stop stop-color="#fff"/><stop offset="1" stop-color="#BCBEC0"/></linearGradient><linearGradient id="paint27_linear_955_39073" x1="307.323" y1="241.244" x2="313.312" y2="238.422" gradientUnits="userSpaceOnUse"><stop stop-color="#fff"/><stop offset="1" stop-color="#BCBEC0"/></linearGradient><linearGradient id="paint28_linear_955_39073" x1="281.721" y1="240.673" x2="276.016" y2="208.136" gradientUnits="userSpaceOnUse"><stop stop-color="#fff"/><stop offset="1" stop-color="#BCBEC0"/></linearGradient><linearGradient id="paint29_linear_955_39073" x1="317.708" y1="303.061" x2="378.49" y2="404.08" gradientUnits="userSpaceOnUse"><stop stop-color="#1BB0D4"/><stop offset=".077" stop-color="#1EBFDD"/><stop offset=".225" stop-color="#27E8F6"/><stop offset=".273" stop-color="#2AF6FF"/><stop offset=".753" stop-color="#138BBD"/><stop offset=".894" stop-color="#1EBFDD"/><stop offset="1" stop-color="#1AAAD1"/></linearGradient><linearGradient id="paint30_linear_955_39073" x1="331.561" y1="410.23" x2="382.832" y2="373.673" gradientUnits="userSpaceOnUse"><stop stop-color="#0AF292"/><stop offset="1" stop-color="#7269F7"/></linearGradient><radialGradient id="paint5_radial_955_39073" cx="0" cy="0" r="1" gradientUnits="userSpaceOnUse" gradientTransform="matrix(.51414 0 0 .51406 336.516 377.933)"><stop stop-color="#fff"/><stop offset=".066" stop-color="#D8D8D8"/><stop offset=".162" stop-color="#A6A6A6"/><stop offset=".262" stop-color="#797979"/><stop offset=".366" stop-color="#545454"/><stop offset=".473" stop-color="#353535"/><stop offset=".585" stop-color="#1E1E1E"/><stop offset=".704" stop-color="#0D0D0D"/><stop offset=".835" stop-color="#030303"/><stop offset="1"/></radialGradient><radialGradient id="paint6_radial_955_39073" cx="0" cy="0" r="1" gradientUnits="userSpaceOnUse" gradientTransform="matrix(73.2971 0 0 73.2866 333.226 280.624)"><stop stop-color="#fff"/><stop offset=".015" stop-color="#F7F7F7"/><stop offset=".132" stop-color="#BEBEBE"/><stop offset=".252" stop-color="#8B8B8B"/><stop offset=".373" stop-color="#606060"/><stop offset=".494" stop-color="#3E3E3E"/><stop offset=".617" stop-color="#232323"/><stop offset=".741" stop-color="#0F0F0F"/><stop offset=".867" stop-color="#040404"/><stop offset="1"/></radialGradient><radialGradient id="paint7_radial_955_39073" cx="0" cy="0" r="1" gradientUnits="userSpaceOnUse" gradientTransform="matrix(65.3756 0 0 65.3662 295.729 280.639)"><stop stop-color="#FF63CE"/><stop offset="1" stop-color="#9F19AB"/></radialGradient><radialGradient id="paint9_radial_955_39073" cx="0" cy="0" r="1" gradientUnits="userSpaceOnUse" gradientTransform="matrix(27.3234 6.57646 -4.33468 18.00939 287.393 278.6)"><stop offset=".192" stop-color="#5F5C5D"/><stop offset="1" stop-color="#fff"/></radialGradient><radialGradient id="paint11_radial_955_39073" cx="0" cy="0" r="1" gradientUnits="userSpaceOnUse" gradientTransform="matrix(49.6952 0 0 49.6881 283.654 285.659)"><stop stop-color="#45108A"/><stop offset="1" stop-color="#25054D"/></radialGradient><radialGradient id="paint12_radial_955_39073" cx="0" cy="0" r="1" gradientUnits="userSpaceOnUse" gradientTransform="matrix(58.4133 0 0 58.4049 306.026 298.38)"><stop stop-color="#45108A"/><stop offset="1" stop-color="#25054D"/></radialGradient><radialGradient id="paint13_radial_955_39073" cx="0" cy="0" r="1" gradientUnits="userSpaceOnUse" gradientTransform="matrix(128.945 0 0 128.927 287.02 268.91)"><stop offset=".379" stop-color="#fff"/><stop offset=".459" stop-color="#F9F8FB"/><stop offset=".58" stop-color="#E8E3F1"/><stop offset=".725" stop-color="#CBC2E1"/><stop offset=".889" stop-color="#A593CA"/><stop offset="1" stop-color="#8770B8"/></radialGradient><radialGradient id="paint15_radial_955_39073" cx="0" cy="0" r="1" gradientUnits="userSpaceOnUse" gradientTransform="matrix(128.945 0 0 128.927 287.021 268.91)"><stop offset=".379" stop-color="#fff"/><stop offset=".459" stop-color="#F9F8FB"/><stop offset=".58" stop-color="#E8E3F1"/><stop offset=".725" stop-color="#CBC2E1"/><stop offset=".889" stop-color="#A593CA"/><stop offset="1" stop-color="#8770B8"/></radialGradient><radialGradient id="paint16_radial_955_39073" cx="0" cy="0" r="1" gradientUnits="userSpaceOnUse" gradientTransform="matrix(128.944 0 0 128.926 287.022 268.911)"><stop offset=".379" stop-color="#fff"/><stop offset=".468" stop-color="#F4F2F9"/><stop offset=".632" stop-color="#D8D0E8"/><stop offset=".851" stop-color="#A9C"/><stop offset="1" stop-color="#8770B8"/></radialGradient><radialGradient id="paint17_radial_955_39073" cx="0" cy="0" r="1" gradientUnits="userSpaceOnUse" gradientTransform="matrix(59.2851 0 0 59.2766 286.586 279.338)"><stop stop-color="#FF63CE"/><stop offset="1" stop-color="#9F19AB"/></radialGradient><radialGradient id="paint19_radial_955_39073" cx="0" cy="0" r="1" gradientUnits="userSpaceOnUse" gradientTransform="matrix(80.7642 0 0 80.7527 303.441 285.253)"><stop stop-color="#45108A"/><stop offset="1" stop-color="#25054D"/></radialGradient><radialGradient id="paint20_radial_955_39073" cx="0" cy="0" r="1" gradientUnits="userSpaceOnUse" gradientTransform="matrix(128.479 0 0 128.46 280.416 268.924)"><stop stop-color="#45108A"/><stop offset="1" stop-color="#25054D"/></radialGradient><radialGradient id="paint21_radial_955_39073" cx="0" cy="0" r="1" gradientUnits="userSpaceOnUse" gradientTransform="matrix(11.9584 0 0 11.9567 283.47 283.501)"><stop stop-color="#fff"/><stop offset="1"/></radialGradient><radialGradient id="paint22_radial_955_39073" cx="0" cy="0" r="1" gradientUnits="userSpaceOnUse" gradientTransform="matrix(35.6108 0 0 35.6057 280.9 237.345)"><stop offset=".03" stop-color="#FEDFCB"/><stop offset="1" stop-color="#F9B69E"/></radialGradient><radialGradient id="paint31_radial_955_39073" cx="0" cy="0" r="1" gradientUnits="userSpaceOnUse" gradientTransform="matrix(37.8439 0 0 37.8385 350.702 337.384)"><stop stop-color="#fff"/><stop offset=".015" stop-color="#F7F7F7"/><stop offset=".132" stop-color="#BEBEBE"/><stop offset=".252" stop-color="#8B8B8B"/><stop offset=".373" stop-color="#606060"/><stop offset=".494" stop-color="#3E3E3E"/><stop offset=".617" stop-color="#232323"/><stop offset=".741" stop-color="#0F0F0F"/><stop offset=".867" stop-color="#040404"/><stop offset="1"/></radialGradient><clipPath id="clip0_955_39073"><path fill="#fff" d="M0 0h538v467H0z"/></clipPath><clipPath id="clip1_955_39073"><path fill="#fff" transform="matrix(.86606 .49995 0 1 317.562 157.122)" d="M0 0h63.385v64.105H0z"/></clipPath><clipPath id="clip2_955_39073"><path fill="#fff" transform="matrix(.86606 .49995 0 1 356.848 110.203)" d="M0 0h54.801v55.162H0z"/></clipPath><clipPath id="clip3_955_39073"><path fill="#fff" transform="matrix(.86606 .49995 0 1 389.586 177.853)" d="M0 0h86.554v86.545H0z"/></clipPath><clipPath id="clip4_955_39073"><path fill="#fff" transform="translate(439.785 168.033)" d="M0 0h97.888v112.931H0z"/></clipPath><clipPath id="clip5_955_39073"><path fill="#fff" transform="translate(221.531 192.037)" d="M0 0h155.793v206.58H0z"/></clipPath><clipPath id="clip6_955_39073"><path fill="#fff" transform="matrix(.86606 .49995 0 1 262.996 28.37)" d="M0 0h80.644v80.635H0z"/></clipPath></defs></svg>