<svg width="807" height="633" xmlns="http://www.w3.org/2000/svg" xmlns:xlink="http://www.w3.org/1999/xlink"><defs><path id="path-1" d="M0 0h989v633H0z"/></defs><g id="HP" stroke="none" stroke-width="1" fill="none" fill-rule="evenodd"><g transform="translate(-182)" id="Benefits"><g id="images/Lines_BG_Left"><g id="Lines_BG"><mask id="mask-2" fill="#fff"><use xlink:href="#path-1"/></mask><path d="M670.016 581.731c.473.003.876.18 1.21.526.342.337.515.748.518 1.23v5.264c-.003.48-.176.89-.518 1.229a1.646 1.646 0 01-1.21.526 1.642 1.642 0 01-1.209-.526 1.68 1.68 0 01-.52-1.229v-5.265c.003-.48.176-.892.52-1.229a1.636 1.636 0 011.209-.526zm-197.213 30.537c-.131.48-.405.844-.821 1.097l-4.493 2.633a1.61 1.61 0 01-1.297.177 1.751 1.751 0 01-1.08-.835 1.659 1.659 0 01-.175-1.317c.131-.475.404-.84.823-1.097l4.493-2.632c.411-.24.844-.3 1.297-.174.472.13.831.407 1.08.832.24.417.297.856.173 1.316zm-14.823 5.662c.47.13.83.407 1.08.834.24.416.296.854.172 1.316a1.8 1.8 0 01-.82 1.097l-4.496 2.633c-.41.242-.842.3-1.297.175a1.764 1.764 0 01-1.08-.833 1.667 1.667 0 01-.173-1.317c.131-.477.404-.844.821-1.097l4.497-2.632a1.6 1.6 0 011.296-.176zm428.913-116.802c.417.254.69.62.823 1.097.123.461.066.9-.174 1.316a1.76 1.76 0 01-1.08.834 1.615 1.615 0 01-1.297-.176l-4.494-2.633a1.793 1.793 0 01-.823-1.097 1.66 1.66 0 01.175-1.316 1.755 1.755 0 011.08-.834 1.61 1.61 0 011.297.176l4.493 2.633zm-135.968-55.243l3.413-1.974 1.685.964-5.098 1.01zM606.612 611.48c.124.462.067.9-.171 1.316a1.77 1.77 0 01-1.08.834 1.614 1.614 0 01-1.297-.175l-4.497-2.633a1.797 1.797 0 01-.821-1.097c-.125-.462-.068-.9.173-1.316.25-.425.61-.702 1.08-.834a1.607 1.607 0 011.297.175l4.496 2.633a1.8 1.8 0 01.82 1.097zm6.872 3.993a1.608 1.608 0 011.296.175l4.495 2.633c.419.255.69.62.822 1.097.124.462.067.9-.173 1.316a1.77 1.77 0 01-1.08.834 1.615 1.615 0 01-1.297-.175l-4.495-2.633a1.797 1.797 0 01-.822-1.097c-.124-.462-.065-.9.173-1.316a1.76 1.76 0 011.08-.834zm-25.673-15.62l4.495 2.632c.418.255.69.62.821 1.097.125.462.068.9-.173 1.316-.249.423-.61.702-1.08.834a1.615 1.615 0 01-1.297-.175l-4.495-2.633a1.788 1.788 0 01-.819-1.097c-.126-.462-.067-.9.171-1.316.25-.425.61-.702 1.08-.834a1.608 1.608 0 011.297.175zm-14.781-8.074a1.607 1.607 0 011.297.175l4.494 2.633a1.8 1.8 0 01.823 1.097c.123.462.066.9-.174 1.316a1.77 1.77 0 01-1.08.834 1.615 1.615 0 01-1.297-.175l-4.495-2.633a1.797 1.797 0 01-.821-1.097c-.125-.462-.068-.9.173-1.316a1.76 1.76 0 011.08-.834zm95.257 7.503c.003-.48.176-.892.52-1.229a1.636 1.636 0 011.209-.526c.473.003.876.18 1.21.526.342.337.515.748.518 1.229v5.265c-.003.48-.176.89-.518 1.229a1.646 1.646 0 01-1.21.526 1.642 1.642 0 01-1.209-.526 1.68 1.68 0 01-.52-1.229v-5.265zm184.592-114.609c-.124-.461-.065-.9.173-1.316.25-.425.61-.702 1.08-.834a1.607 1.607 0 011.297.176l4.497 2.633c.416.254.69.62.82 1.097.124.461.067.9-.172 1.316-.25.423-.612.702-1.08.834a1.614 1.614 0 01-1.297-.176l-4.497-2.633a1.797 1.797 0 01-.82-1.097zm16.037 5.924l4.493 2.633c.416.254.69.62.82 1.097.125.461.068.9-.172 1.316a1.76 1.76 0 01-1.08.834 1.617 1.617 0 01-1.297-.176l-4.493-2.633a1.8 1.8 0 01-.823-1.097c-.125-.461-.066-.9.174-1.316a1.755 1.755 0 011.08-.834 1.608 1.608 0 011.298.176zm101.22-107.062l4.494 2.633c.416.254.69.62.823 1.097.122.461.065.9-.175 1.316a1.76 1.76 0 01-1.08.834 1.615 1.615 0 01-1.297-.176l-4.493-2.632a1.802 1.802 0 01-.825-1.097 1.67 1.67 0 01.177-1.317 1.755 1.755 0 011.08-.833 1.61 1.61 0 011.297.175zm-15.861-7.24a1.755 1.755 0 011.08-.833 1.61 1.61 0 011.297.175l4.493 2.633c.417.254.69.62.82 1.097.126.461.069.9-.172 1.316a1.76 1.76 0 01-1.08.834 1.617 1.617 0 01-1.297-.176l-4.493-2.632a1.8 1.8 0 01-.823-1.097c-.124-.462-.065-.9.175-1.317zM32.348 541.934a1.608 1.608 0 011.297-.176c.47.132.832.41 1.08.834.24.416.298.855.173 1.316-.13.478-.402.843-.82 1.097l-4.496 2.633c-.41.242-.842.3-1.296.175a1.766 1.766 0 01-1.08-.833 1.667 1.667 0 01-.174-1.317 1.8 1.8 0 01.821-1.096l4.495-2.633zm-11.105 8.556c.238.416.295.855.17 1.316a1.788 1.788 0 01-.819 1.097l-4.496 2.633c-.41.242-.842.3-1.297.175a1.77 1.77 0 01-1.08-.833 1.674 1.674 0 01-.173-1.317c.131-.477.404-.842.82-1.096l4.497-2.633a1.61 1.61 0 011.297-.176c.47.132.83.41 1.08.834zm107.788 49.406c.132-.477.405-.844.822-1.097l4.494-2.632a1.602 1.602 0 011.297-.176c.47.13.832.407 1.08.834.24.416.298.855.173 1.316-.13.478-.402.843-.82 1.097l-4.496 2.633c-.41.242-.842.3-1.296.175a1.76 1.76 0 01-1.08-.833 1.667 1.667 0 01-.174-1.317zm-8.166 4.169a1.6 1.6 0 011.296-.176c.47.13.83.407 1.08.834.24.416.296.855.172 1.316a1.8 1.8 0 01-.82 1.097l-4.496 2.633c-.41.242-.842.3-1.297.175a1.764 1.764 0 01-1.08-.833 1.667 1.667 0 01-.173-1.317c.131-.477.404-.844.821-1.097l4.497-2.632zM.065 561.459c.13-.477.403-.842.82-1.097l4.494-2.632a1.608 1.608 0 011.297-.176c.472.132.831.41 1.08.834.24.416.298.855.173 1.316-.13.478-.403.843-.821 1.097l-4.495 2.633c-.411.242-.844.3-1.297.175a1.77 1.77 0 01-1.08-.833 1.667 1.667 0 01-.171-1.317zm29.173-156.952l4.493 2.633a1.8 1.8 0 01.822 1.097c.124.463.067.902-.173 1.316a1.751 1.751 0 01-1.08.835 1.61 1.61 0 01-1.297-.177l-4.494-2.633a1.784 1.784 0 01-.822-1.096 1.677 1.677 0 01.174-1.317 1.76 1.76 0 011.08-.832 1.617 1.617 0 011.297.174zm39.156 23.52a1.613 1.613 0 011.296.174l4.497 2.633c.415.256.688.621.82 1.097.124.463.067.902-.172 1.316a1.76 1.76 0 01-1.08.835 1.607 1.607 0 01-1.297-.177l-4.496-2.633a1.787 1.787 0 01-.822-1.096 1.67 1.67 0 01.173-1.317c.251-.423.61-.702 1.08-.832zm-12.188-7.724l4.495 2.633c.418.256.691.621.82 1.097.125.463.068.902-.172 1.316a1.751 1.751 0 01-1.08.835 1.609 1.609 0 01-1.297-.177l-4.495-2.633a1.779 1.779 0 01-.82-1.096 1.669 1.669 0 01.172-1.317 1.76 1.76 0 011.08-.832 1.615 1.615 0 011.297.174zm-8.99-5.265c.417.256.692.621.823 1.097.123.463.066.902-.175 1.316-.249.426-.61.704-1.08.835a1.61 1.61 0 01-1.297-.177l-4.495-2.633a1.787 1.787 0 01-.82-1.096 1.67 1.67 0 01.172-1.317c.249-.423.61-.702 1.08-.832a1.613 1.613 0 011.297.174l4.495 2.633zm259.062 204.208a1.61 1.61 0 011.297-.177c.47.134.83.41 1.08.836.239.414.296.853.171 1.316a1.806 1.806 0 01-.819 1.097l-4.497 2.633a1.6 1.6 0 01-1.296.175 1.764 1.764 0 01-1.08-.834 1.667 1.667 0 01-.174-1.316c.132-.477.405-.842.822-1.097l4.496-2.633zm-13.573 7.81a1.608 1.608 0 011.297-.175c.47.132.832.41 1.08.834.24.416.298.855.175 1.316a1.8 1.8 0 01-.823 1.097l-4.495 2.633c-.41.242-.842.3-1.296.175a1.766 1.766 0 01-1.08-.833 1.667 1.667 0 01-.174-1.317c.132-.477.405-.842.821-1.097l4.495-2.632zM143.34 590.988l4.493-2.632c.412-.24.844-.3 1.297-.174.472.13.831.407 1.08.832.24.418.298.856.173 1.316a1.78 1.78 0 01-.821 1.097l-4.493 2.633a1.61 1.61 0 01-1.297.177 1.751 1.751 0 01-1.08-.835 1.659 1.659 0 01-.175-1.317c.131-.475.405-.84.823-1.097zm109.95 7.988c-.412.242-.844.3-1.297.175a1.77 1.77 0 01-1.08-.833 1.667 1.667 0 01-.171-1.317 1.79 1.79 0 01.819-1.097l4.495-2.632a1.608 1.608 0 011.296-.176c.472.132.832.41 1.08.834.241.416.298.855.174 1.316-.13.478-.403.843-.821 1.097l-4.495 2.633zm-10.805 2.104c.411-.24.843-.3 1.296-.173.472.13.832.407 1.08.831.241.418.298.857.174 1.317a1.793 1.793 0 01-.821 1.097l-4.494 2.632a1.61 1.61 0 01-1.296.178 1.751 1.751 0 01-1.08-.836 1.659 1.659 0 01-.175-1.316 1.8 1.8 0 01.823-1.097l4.493-2.633zm265.025-12.547c.337.223.682.442 1.039.658l-3.287.658 2.248-1.316zm190.34-193.59l3.542-2.064 15.259 8.91-3.458 2.06-15.343-8.906zm153.43-161.645c-.412.242-.845.3-1.296.175a1.755 1.755 0 01-1.08-.833 1.66 1.66 0 01-.175-1.317 1.79 1.79 0 01.823-1.097l4.493-2.632a1.602 1.602 0 011.297-.176c.472.13.831.407 1.08.834.24.416.298.855.175 1.316a1.806 1.806 0 01-.823 1.097l-4.493 2.633zm18.627-12.944c.24.416.297.855.174 1.316a1.806 1.806 0 01-.822 1.097l-4.495 2.633c-.412.242-.844.3-1.297.175a1.755 1.755 0 01-1.08-.833 1.66 1.66 0 01-.172-1.317c.13-.477.403-.844.82-1.097l4.495-2.632a1.602 1.602 0 011.296-.176c.47.13.83.407 1.08.834zm7.045-2.677a1.76 1.76 0 01-1.08-.833 1.66 1.66 0 01-.172-1.317c.13-.477.403-.844.82-1.097l4.496-2.632a1.6 1.6 0 011.297-.176c.468.13.83.407 1.08.834.237.416.298.855.171 1.316a1.8 1.8 0 01-.82 1.097l-4.496 2.633c-.41.242-.842.3-1.296.175zm20.097-11.803a1.795 1.795 0 01-.82 1.097l-4.498 2.633c-.408.242-.84.3-1.296.175a1.773 1.773 0 01-1.08-.833 1.681 1.681 0 01-.172-1.317c.131-.477.405-.844.82-1.097l4.498-2.632a1.6 1.6 0 011.296-.176c.469.13.83.407 1.08.834.24.416.296.855.172 1.316zm-87.866-101.928c-.41.243-.842.302-1.297.176a1.764 1.764 0 01-1.08-.834 1.674 1.674 0 01-.173-1.316c.131-.478.404-.844.821-1.097l4.497-2.633a1.6 1.6 0 011.296-.175c.469.131.83.409 1.08.833.24.416.296.855.172 1.317-.13.477-.403.842-.82 1.097l-4.496 2.632zm-9.42 2.019c.468.131.83.409 1.08.833.237.416.297.855.171 1.317a1.8 1.8 0 01-.82 1.097l-4.496 2.632c-.41.243-.842.302-1.296.176a1.76 1.76 0 01-1.08-.834 1.66 1.66 0 01-.172-1.316c.13-.478.403-.844.82-1.097l4.496-2.633a1.6 1.6 0 011.297-.175zm-13.487 7.898c.47.131.83.409 1.08.833.241.416.298.855.175 1.317a1.806 1.806 0 01-.823 1.097l-4.494 2.632a1.608 1.608 0 01-1.297.176 1.755 1.755 0 01-1.08-.834 1.66 1.66 0 01-.172-1.316c.13-.478.403-.844.82-1.097l4.495-2.633a1.602 1.602 0 011.296-.175zm-19.274 10.706l4.493-2.633a1.602 1.602 0 011.297-.175c.472.131.831.409 1.08.833.24.416.297.855.175 1.317a1.806 1.806 0 01-.823 1.097l-4.493 2.632a1.61 1.61 0 01-1.297.176 1.755 1.755 0 01-1.08-.834 1.66 1.66 0 01-.175-1.316c.131-.478.405-.844.823-1.097zm-636.76 342.817l-16.597-9.654 3.5-2.062 16.597 9.653-3.5 2.063zM93.72 506.303l3.5 2.064-48.534 28.212a1.608 1.608 0 01-.648.22c-.12.119-.249.22-.39.308l-4.496 2.633c-.41.242-.842.3-1.296.175a1.766 1.766 0 01-1.08-.833 1.667 1.667 0 01-.174-1.317c.132-.477.405-.842.822-1.096l4.494-2.633c.211-.125.427-.197.649-.22.11-.119.24-.222.39-.308l46.763-27.205zm77.363-154.096l-3.5 2.06-17.677-10.311a1.78 1.78 0 01-.649-.658 1.715 1.715 0 01-.216-.878V240.362l3.458-2.018v103.025l18.584 10.838zm-2.16 26.238l2.852 1.668-.043.175c-.13.464-.403.813-.821 1.053l-90.806 52.784 26.451 15.357-5.402-1.052 1.728 3.026L75.74 435.66a1.715 1.715 0 01-.778-.92 1.787 1.787 0 010-1.228c.149-.402.408-.71.778-.923l93.182-54.144zm-5.576 108.203l1.729-1.01 1.729 3.028-3.458-2.018zm6.397-.309l-4.364-.878 1.425-.831 2.939 1.709zm7.563 8.426l3.458-2.018 34.446 20.008-3.458 2.019-34.446-20.009zm39.505-56.075l-3.458-2.019 32.24-18.823a1.609 1.609 0 011.297-.178c.47.134.832.411 1.08.836.241.416.298.855.175 1.316a1.8 1.8 0 01-.823 1.097l-30.511 17.77zm-.996-84.509l-3.458-2.018 25.416-14.789 3.457 2.02-25.415 14.787zm-18.282 209.383l-44.862 26.107c-.41.244-.842.302-1.297.177a1.76 1.76 0 01-1.08-.835 1.665 1.665 0 01-.173-1.316 1.8 1.8 0 01.82-1.097l43.091-25.097 3.501 2.06zm179.624-20.226L362.896 535l-51.346 29.97v.087l-36.996 21.588v-.045l-10.286 6.013v-4.125l36.996-21.588v.044l3.544-2.064-.086-.042-3.501 2.062-27.14-15.841 3.498-2.06 27.143 15.839 80.82-47.126c.03-.014.058-.03.087-.043.043-.031.087-.061.13-.087l.216-.09a1.693 1.693 0 011.342-.086c.447.153.78.446.992.878.213.442.24.893.088 1.36a1.69 1.69 0 01-.864 1.01l-21.137 12.285 14.263 8.337-3.5 2.062zm14.695 8.556l-4.106-2.413 5.402 1.097-1.729-3.03 3.932 2.284-3.5 2.062zm-40.326 40.894l3.5 2.062-33.538 19.57-.043.042-4.452 2.59a1.6 1.6 0 01-1.297.176 1.76 1.76 0 01-1.08-.834 1.674 1.674 0 01-.173-1.316 1.8 1.8 0 01.821-1.097l4.452-2.59.043-.043 31.767-18.56zm143.19 3.203l3.498 2.062L480.97 608.1c-.41.244-.841.302-1.296.177a1.756 1.756 0 01-1.08-.835 1.665 1.665 0 01-.173-1.317c.13-.475.404-.84.82-1.097l1.86-1.097-56.185-32.73 3.499-2.063 56.186 32.777 10.115-5.924zm14.262-4.212l.992-1.755c.342.195.688.384 1.037.57l-2.03 1.185zm68.156-39.753a47.405 47.405 0 00-1.772-1.097 56.699 56.699 0 00-1.729-.967l49.53-28.87 3.501 2.062-49.53 28.872zm119.98-35.63l3.5-2.061 33.54 19.525c.124.086.24.188.345.306l.345.265-.345-.307 40.15 23.297-3.5 2.064-38.378-22.29a1.804 1.804 0 01-.346-.307l-.348-.263.348.307-35.31-20.537zm-28.57 14.918l1.558.923 1.424-.834c.142.248.215.525.216.834v32.382c-.003.479-.176.89-.518 1.228a1.77 1.77 0 01-.388.307c.139.081.268.183.388.308.342.336.515.747.518 1.228v5.265c-.003.48-.176.89-.518 1.229a1.646 1.646 0 01-1.21.527 1.642 1.642 0 01-1.209-.527 1.68 1.68 0 01-.52-1.229v-5.265a1.67 1.67 0 01.52-1.228c.12-.125.247-.227.387-.308a1.731 1.731 0 01-.387-.307 1.68 1.68 0 01-.52-1.228v-32.382a1.77 1.77 0 01.26-.923zM637.6 516.748l1.512-2.633 1.513.878-3.025 1.755zm-4.063-1.711l3.589-2.106 1.77 1.051-5.36 1.055zm66.171-35.28l-3.502-2.06 44.084-25.625 3.458 2.017-44.04 25.668zm-61.33 1.187l-44.04-25.669 3.542-2.064 44.042 25.669-3.544 2.064zm194.36-7.416l3.5-2.062 5.706 3.335.045.044 4.451 2.589a1.8 1.8 0 01.82 1.097c.126.461.065.9-.172 1.316-.25.423-.612.702-1.08.834a1.614 1.614 0 01-1.297-.176l-4.367-2.589-.084-.044h-.045l-7.477-4.344zm-74.944-27.599l-3.196 1.843 1.599-2.808 1.597.965zm110.816-68.668l3.458 2.016-36.824 21.414-.13.132-44.256 25.842-3.501-2.06 43.394-25.318-70.147-40.938 3.457-2.018 70.19 40.936 34.36-20.006zm8.212-.746l3.416-6.055 2.075-1.229a49.582 49.582 0 003.8 1.887l-9.29 5.397zm74.859-43.615a48.328 48.328 0 00-3.155-2.237l6.567-3.82c.412-.24.844-.298 1.297-.173.472.131.832.409 1.08.832.24.417.298.856.172 1.316-.13.48-.403.844-.82 1.097l-5.141 2.985zm-5.88 36.375l1.86 1.097c.417.254.688.62.82 1.097.124.461.067.9-.171 1.316a1.778 1.778 0 01-1.08.834 1.614 1.614 0 01-1.297-.176l-3.935-2.283a53.785 53.785 0 003.803-1.885zm-58.563-42.518l-59.643-34.75 3.414-2.063 60.421 35.234a59.933 59.933 0 00-4.192 1.58zm-45.856-87.843l-3.5-2.062 8.384-4.87a1.602 1.602 0 011.296-.176c.472.13.832.407 1.08.834.241.416.298.854.175 1.316a1.806 1.806 0 01-.823 1.097l-6.612 3.861zm-74.209 17.858l-26.751-15.576 3.457-2.018 23.208 13.558.086 4.036zm-26.58-112.721l-3.5-2.063 26.622-15.664a1.62 1.62 0 011.297-.176c.47.13.832.408 1.08.834.24.416.298.855.175 1.316-.13.476-.404.841-.823 1.097l-24.851 14.656zm-29.777 75.864l-3.503 2.019-50.35-29.356a3.365 3.365 0 01-.347-.174l-.128-.088a1.199 1.199 0 01-.13-.088l-47.024-27.467a1.834 1.834 0 01-.649-.658 1.72 1.72 0 01-.216-.878V2.018L611.928 0v162.216l45.554 26.59 13.009-7.637 3.503 2.064-13.011 7.635 49.834 29.047zm277.296 174.15c.418.255.691.62.824 1.098.123.461.066.9-.176 1.316a1.76 1.76 0 01-1.08.834 1.617 1.617 0 01-1.297-.176l-4.493-2.632a1.788 1.788 0 01-.82-1.097 1.66 1.66 0 01.171-1.317 1.755 1.755 0 011.081-.833 1.608 1.608 0 011.297.175l4.493 2.633z" id="Fill-1" fill="#E9E9E9" mask="url(#mask-2)"/></g></g></g></g></svg>