<svg width="1011" height="547" xmlns="http://www.w3.org/2000/svg" xmlns:xlink="http://www.w3.org/1999/xlink"><defs><path id="path-1" d="M0 0h1011v647H0z"/></defs><g id="HP" stroke="none" stroke-width="1" fill="none" fill-rule="evenodd"><g transform="translate(-611 -798)" id="Benefits"><g id="images/Lines_BG_right" transform="translate(611 698)"><g id="Lines_BG-Copy" transform="matrix(-1 0 0 1 1011 0)"><mask id="mask-2" fill="#fff"><use xlink:href="#path-1"/></mask><path d="M684.92 594.597a1.68 1.68 0 011.237.538c.35.345.527.764.53 1.256v5.382c-.003.49-.18.91-.53 1.255a1.683 1.683 0 01-1.237.539 1.68 1.68 0 01-1.235-.539 1.717 1.717 0 01-.532-1.255v-5.382c.003-.492.18-.911.532-1.256a1.673 1.673 0 011.235-.538zm-201.6 31.213c-.134.49-.413.862-.84 1.12l-4.592 2.692a1.647 1.647 0 01-1.326.18 1.79 1.79 0 01-1.104-.853 1.695 1.695 0 01-.179-1.345c.135-.487.414-.86.841-1.122l4.594-2.69a1.65 1.65 0 011.325-.178c.482.133.85.416 1.105.85.245.427.304.876.176 1.346zm-15.152 5.787c.48.133.848.416 1.104.852.244.425.303.874.175 1.345a1.84 1.84 0 01-.837 1.122l-4.597 2.69a1.65 1.65 0 01-1.325.18 1.803 1.803 0 01-1.105-.852 1.704 1.704 0 01-.177-1.346c.135-.488.414-.863.84-1.12l4.596-2.692a1.64 1.64 0 011.326-.18zM906.622 512.21c.426.26.705.633.841 1.121.126.472.067.92-.178 1.346a1.8 1.8 0 01-1.105.852 1.651 1.651 0 01-1.325-.18l-4.593-2.69a1.833 1.833 0 01-.842-1.122 1.697 1.697 0 01.179-1.345 1.794 1.794 0 011.104-.852c.462-.13.904-.069 1.326.18l4.593 2.69zm-138.993-56.464l3.489-2.018 1.723.985-5.212 1.033zM620.106 625.004c.127.472.069.92-.175 1.346a1.81 1.81 0 01-1.105.852 1.65 1.65 0 01-1.325-.18l-4.597-2.69a1.837 1.837 0 01-.84-1.122 1.704 1.704 0 01.178-1.345 1.803 1.803 0 011.104-.852c.465-.13.907-.069 1.325.179l4.597 2.69c.424.261.703.634.838 1.122zm7.025 4.081a1.643 1.643 0 011.325.18l4.595 2.69c.428.26.705.634.84 1.122.127.472.068.92-.177 1.345a1.805 1.805 0 01-1.105.852 1.651 1.651 0 01-1.325-.18l-4.595-2.69a1.837 1.837 0 01-.84-1.121 1.711 1.711 0 01.177-1.346 1.799 1.799 0 011.105-.852zm-26.244-15.966l4.595 2.691c.427.26.705.633.84 1.121.126.472.068.92-.178 1.346a1.805 1.805 0 01-1.104.852 1.651 1.651 0 01-1.325-.18l-4.595-2.69a1.828 1.828 0 01-.838-1.121 1.703 1.703 0 01.175-1.346 1.803 1.803 0 011.104-.852c.463-.13.905-.068 1.326.18zm-15.11-8.252a1.64 1.64 0 011.325.18l4.595 2.69c.426.26.707.634.841 1.122.126.472.068.92-.178 1.345a1.805 1.805 0 01-1.105.852 1.651 1.651 0 01-1.325-.18l-4.595-2.69a1.837 1.837 0 01-.84-1.121 1.704 1.704 0 01.177-1.346 1.799 1.799 0 011.105-.852zm97.376 7.67c.003-.492.18-.912.532-1.256a1.67 1.67 0 011.235-.539c.484.004.896.185 1.237.539.35.344.527.764.53 1.255v5.382c-.003.49-.18.91-.53 1.256a1.683 1.683 0 01-1.237.538 1.68 1.68 0 01-1.235-.538 1.717 1.717 0 01-.532-1.256v-5.382zM871.85 495.392a1.711 1.711 0 01.177-1.346 1.803 1.803 0 011.105-.852 1.641 1.641 0 011.325.18l4.597 2.69c.425.26.705.634.837 1.122.127.472.07.92-.175 1.345a1.814 1.814 0 01-1.104.852 1.65 1.65 0 01-1.326-.179l-4.596-2.69a1.837 1.837 0 01-.84-1.122zm16.393 6.054l4.593 2.691c.426.26.706.634.84 1.121.127.472.069.92-.177 1.346a1.8 1.8 0 01-1.104.852 1.653 1.653 0 01-1.326-.18l-4.593-2.69a1.84 1.84 0 01-.841-1.121 1.704 1.704 0 01.178-1.346 1.794 1.794 0 011.105-.852c.463-.13.905-.068 1.325.18zm103.473-109.43l4.593 2.692c.426.26.705.633.841 1.121.126.472.068.92-.178 1.345a1.8 1.8 0 01-1.105.853 1.651 1.651 0 01-1.325-.18l-4.593-2.69a1.842 1.842 0 01-.843-1.122 1.705 1.705 0 01.18-1.345 1.794 1.794 0 011.105-.853c.46-.129.903-.068 1.325.18zm-16.214-7.4a1.794 1.794 0 011.104-.851 1.64 1.64 0 011.325.18l4.594 2.69c.425.26.705.633.837 1.121.13.472.07.92-.175 1.346a1.8 1.8 0 01-1.104.852 1.653 1.653 0 01-1.326-.18l-4.593-2.69a1.84 1.84 0 01-.841-1.122 1.704 1.704 0 01.179-1.345zM33.068 553.92c.42-.248.862-.309 1.325-.18.481.135.85.418 1.105.852.246.426.304.874.177 1.346a1.824 1.824 0 01-.84 1.121l-4.595 2.691a1.65 1.65 0 01-1.325.18 1.81 1.81 0 01-1.105-.853 1.704 1.704 0 01-.176-1.345c.134-.488.413-.861.84-1.121l4.594-2.691zm-11.353 8.745c.244.425.302.874.175 1.346a1.834 1.834 0 01-.838 1.12l-4.596 2.692a1.65 1.65 0 01-1.326.18 1.81 1.81 0 01-1.104-.853 1.711 1.711 0 01-.177-1.345c.134-.488.414-.862.84-1.122l4.596-2.69c.419-.248.86-.31 1.326-.18.48.135.848.418 1.104.852zm110.187 50.5c.134-.489.413-.864.84-1.122l4.594-2.69c.42-.25.862-.31 1.325-.18.481.132.85.416 1.105.852.246.425.304.873.177 1.345a1.824 1.824 0 01-.84 1.121l-4.595 2.691a1.65 1.65 0 01-1.325.18 1.799 1.799 0 01-1.105-.852 1.704 1.704 0 01-.176-1.346zm-8.349 4.26c.419-.25.86-.309 1.326-.18.48.133.848.417 1.104.852.244.426.302.874.175 1.346a1.84 1.84 0 01-.838 1.121l-4.596 2.691a1.65 1.65 0 01-1.326.18 1.803 1.803 0 01-1.104-.853 1.704 1.704 0 01-.177-1.345 1.83 1.83 0 01.84-1.121l4.596-2.691zM.066 573.877c.133-.488.412-.86.838-1.121l4.595-2.69c.42-.248.862-.31 1.325-.18.483.134.85.418 1.105.852.245.425.304.873.176 1.345a1.824 1.824 0 01-.839 1.121l-4.595 2.691a1.65 1.65 0 01-1.325.18 1.81 1.81 0 01-1.105-.852 1.703 1.703 0 01-.175-1.346zM29.89 413.453l4.593 2.691c.426.262.707.635.84 1.122.126.473.068.922-.178 1.345a1.79 1.79 0 01-1.104.854 1.645 1.645 0 01-1.326-.181l-4.593-2.691a1.823 1.823 0 01-.84-1.121 1.714 1.714 0 01.178-1.346 1.796 1.796 0 011.104-.85c.461-.13.903-.068 1.326.177zm40.026 24.04a1.658 1.658 0 011.326.178l4.596 2.691c.424.262.704.635.838 1.122.127.473.069.922-.175 1.345a1.8 1.8 0 01-1.105.854 1.643 1.643 0 01-1.325-.181l-4.597-2.691a1.827 1.827 0 01-.84-1.121 1.706 1.706 0 01.178-1.346 1.8 1.8 0 011.104-.85zm-12.46-7.893l4.595 2.69c.428.263.707.636.84 1.122.127.474.068.922-.177 1.345a1.79 1.79 0 01-1.105.854 1.645 1.645 0 01-1.325-.18l-4.595-2.692a1.818 1.818 0 01-.838-1.121 1.705 1.705 0 01.175-1.345 1.8 1.8 0 011.105-.85 1.65 1.65 0 011.325.177zm-9.19-5.382c.426.262.707.635.842 1.121a1.71 1.71 0 01-.179 1.346c-.254.436-.624.72-1.104.854a1.645 1.645 0 01-1.326-.182l-4.595-2.69a1.827 1.827 0 01-.84-1.122 1.706 1.706 0 01.177-1.345 1.796 1.796 0 011.105-.85c.465-.13.907-.069 1.325.177l4.595 2.691zm264.825 208.725c.42-.25.86-.308 1.326-.181.48.136.848.42 1.104.854.244.423.302.872.175 1.345a1.846 1.846 0 01-.838 1.122l-4.596 2.69c-.419.25-.86.309-1.326.18a1.803 1.803 0 01-1.104-.852 1.704 1.704 0 01-.177-1.346c.134-.488.414-.86.84-1.12l4.596-2.692zm-13.874 7.983a1.65 1.65 0 011.325-.18c.48.135.85.419 1.104.853.246.425.304.874.179 1.345a1.84 1.84 0 01-.841 1.122l-4.595 2.69a1.65 1.65 0 01-1.326.18c-.48-.135-.85-.42-1.104-.852a1.704 1.704 0 01-.177-1.346c.135-.488.414-.86.84-1.12l4.595-2.692zm-152.69-36.867l4.594-2.69a1.65 1.65 0 011.325-.178c.482.132.85.416 1.105.85.245.427.304.875.176 1.345a1.82 1.82 0 01-.84 1.122l-4.592 2.69c-.423.25-.864.31-1.326.182a1.79 1.79 0 01-1.104-.854 1.695 1.695 0 01-.179-1.346c.135-.486.414-.859.841-1.12zm112.396 8.164a1.65 1.65 0 01-1.325.18 1.81 1.81 0 01-1.105-.852 1.703 1.703 0 01-.175-1.346c.133-.488.412-.86.838-1.121l4.595-2.69c.42-.248.862-.31 1.325-.18.483.134.85.418 1.105.852.245.425.304.873.176 1.345a1.824 1.824 0 01-.839 1.121l-4.595 2.691zm-11.045 2.151a1.65 1.65 0 011.325-.177c.483.132.85.416 1.105.85.245.427.304.875.176 1.345-.134.49-.413.863-.839 1.122l-4.593 2.69c-.422.25-.864.31-1.326.182a1.79 1.79 0 01-1.104-.854 1.695 1.695 0 01-.179-1.346 1.84 1.84 0 01.842-1.12l4.593-2.692zm270.92-12.824c.345.227.698.452 1.062.672l-3.36.673 2.298-1.345zm194.576-197.87l3.622-2.11 15.597 9.106-3.534 2.106-15.685-9.103zm156.844-165.221a1.653 1.653 0 01-1.325.18 1.794 1.794 0 01-1.105-.853 1.697 1.697 0 01-.178-1.345c.134-.488.413-.863.841-1.122l4.593-2.69c.42-.25.863-.31 1.326-.18.482.133.85.416 1.104.852.246.425.304.874.179 1.346a1.846 1.846 0 01-.842 1.12l-4.593 2.692zm19.04-13.23c.246.425.305.873.18 1.345a1.846 1.846 0 01-.842 1.121l-4.595 2.691a1.65 1.65 0 01-1.325.18 1.794 1.794 0 01-1.105-.853 1.696 1.696 0 01-.175-1.345c.133-.488.412-.863.838-1.121l4.595-2.691c.42-.25.862-.309 1.325-.18.48.133.848.417 1.105.853zm7.202-2.736a1.799 1.799 0 01-1.104-.852 1.696 1.696 0 01-.175-1.346c.132-.488.412-.863.837-1.121l4.597-2.69c.419-.25.86-.31 1.326-.18.478.132.848.416 1.104.852.242.425.304.873.175 1.345a1.84 1.84 0 01-.838 1.121l-4.596 2.691a1.65 1.65 0 01-1.326.18zm20.545-12.064a1.834 1.834 0 01-.838 1.12l-4.598 2.692a1.648 1.648 0 01-1.326.18 1.813 1.813 0 01-1.104-.853 1.718 1.718 0 01-.175-1.345c.134-.488.413-.863.837-1.122l4.599-2.69c.419-.25.86-.31 1.325-.18.479.133.848.416 1.105.852.244.425.302.874.175 1.346zm-89.821-104.183c-.419.248-.86.309-1.326.18a1.803 1.803 0 01-1.104-.852 1.711 1.711 0 01-.177-1.346 1.83 1.83 0 01.84-1.121l4.596-2.69c.42-.25.86-.31 1.326-.18.479.134.848.418 1.104.852.244.425.302.873.175 1.345a1.828 1.828 0 01-.837 1.121l-4.597 2.691zm-9.63 2.063c.479.135.848.418 1.105.852.242.426.304.874.175 1.346a1.84 1.84 0 01-.838 1.121l-4.597 2.691a1.64 1.64 0 01-1.325.18 1.799 1.799 0 01-1.105-.853 1.696 1.696 0 01-.175-1.345c.133-.488.412-.863.838-1.121l4.597-2.691c.419-.25.86-.309 1.325-.18zm-13.786 8.073c.48.135.848.418 1.104.852.246.425.304.874.179 1.346a1.846 1.846 0 01-.841 1.12l-4.595 2.692c-.42.247-.863.308-1.326.179a1.794 1.794 0 01-1.104-.852 1.696 1.696 0 01-.175-1.346c.132-.487.412-.862.837-1.12l4.595-2.692a1.64 1.64 0 011.326-.179zm-19.703 10.943l4.593-2.69c.42-.25.862-.31 1.325-.18.483.134.85.418 1.105.852.245.425.304.873.178 1.345a1.846 1.846 0 01-.841 1.121l-4.593 2.691a1.646 1.646 0 01-1.326.18 1.794 1.794 0 01-1.104-.852 1.697 1.697 0 01-.179-1.346 1.83 1.83 0 01.842-1.121zM133.139 477.723l-16.966-9.867 3.579-2.108 16.965 9.867-3.578 2.108zM95.805 517.5l3.58 2.11-49.615 28.835a1.64 1.64 0 01-.662.225 2.19 2.19 0 01-.4.315l-4.595 2.691a1.65 1.65 0 01-1.325.18c-.48-.135-.85-.42-1.105-.852a1.704 1.704 0 01-.176-1.346c.134-.488.413-.86.839-1.121l4.595-2.69a1.6 1.6 0 01.663-.225c.113-.122.245-.228.399-.316L95.805 517.5zm76.876-130.686l2.916 1.705a5.289 5.289 0 01-.044.18c-.133.473-.412.83-.84 1.075l-92.825 53.951 27.04 15.697-5.523-1.075 1.767 3.093-27.746-16.145a1.753 1.753 0 01-.795-.94 1.826 1.826 0 010-1.256c.152-.41.417-.725.795-.944l95.255-55.34zm-5.7 110.596l1.768-1.031 1.767 3.094-3.534-2.063zm6.54-.316l-4.461-.897 1.456-.85 3.005 1.747zm7.731 8.613l3.535-2.063 35.212 20.45-3.534 2.064-35.213-20.451zm40.384-57.316l-3.535-2.063 32.958-19.24c.42-.25.862-.308 1.325-.181.481.136.85.42 1.105.854.245.425.304.873.178 1.345a1.84 1.84 0 01-.84 1.121l-31.191 18.164zm-1.018-86.378l-3.535-2.063 25.98-15.115 3.535 2.065-25.98 15.113zm-18.689 214.014l-45.86 26.685c-.419.25-.86.308-1.326.181a1.8 1.8 0 01-1.104-.854 1.702 1.702 0 01-.177-1.345 1.84 1.84 0 01.84-1.122l44.048-25.651 3.58 2.106zm183.62-20.673l-14.58-8.521-52.49 30.631v.09L280.66 599.62v-.047l-10.515 6.146v-4.215l37.82-22.066v.045l3.622-2.11-.088-.043-3.579 2.108-27.744-16.192 3.577-2.106 27.746 16.19 82.62-48.168c.03-.015.057-.03.087-.043a1.95 1.95 0 01.133-.09l.22-.091a1.73 1.73 0 011.372-.088c.458.156.797.455 1.015.897.217.452.245.913.09 1.39-.156.466-.45.809-.884 1.031l-21.606 12.558 14.58 8.521-3.577 2.108zm15.021 8.745l-4.197-2.466 5.523 1.12-1.767-3.095 4.018 2.333-3.577 2.108zM359.347 605.9l3.579 2.108-34.285 20.002-.044.043-4.55 2.648a1.64 1.64 0 01-1.326.18 1.799 1.799 0 01-1.105-.853 1.711 1.711 0 01-.176-1.345c.134-.488.413-.861.84-1.122l4.55-2.647.044-.043 32.473-18.971zm146.375 3.274l3.577 2.108-17.628 10.268a1.64 1.64 0 01-1.326.181 1.795 1.795 0 01-1.104-.854 1.702 1.702 0 01-.177-1.345 1.84 1.84 0 01.84-1.121l1.9-1.122-57.435-33.455 3.577-2.107 57.436 33.501 10.34-6.054zm14.58-4.306l1.014-1.794c.35.2.704.393 1.06.583l-2.074 1.211zm69.672-40.632a48.461 48.461 0 00-1.811-1.121 57.963 57.963 0 00-1.768-.989l50.632-29.508 3.579 2.108-50.632 29.51zm122.65-36.419l3.576-2.106 34.287 19.958c.127.088.245.192.353.312l.352.27-.352-.313 41.043 23.812-3.579 2.11-39.231-22.783a1.844 1.844 0 01-.353-.314l-.356-.269.356.314-36.097-20.99zm-29.206 15.249l1.592.943 1.456-.852c.145.253.22.537.221.852v33.098c-.003.49-.18.91-.53 1.256a1.81 1.81 0 01-.396.314c.141.082.274.187.396.314.35.344.527.764.53 1.256v5.381c-.003.49-.18.91-.53 1.256a1.683 1.683 0 01-1.237.538 1.68 1.68 0 01-1.235-.538 1.717 1.717 0 01-.532-1.256v-5.381c.003-.492.18-.912.532-1.256a1.77 1.77 0 01.395-.314 1.77 1.77 0 01-.395-.314 1.717 1.717 0 01-.532-1.256v-33.098a1.81 1.81 0 01.265-.943zm-31.634-14.888l1.546-2.691 1.547.897-3.093 1.794zm-4.153-1.75l3.669-2.152 1.81 1.075-5.48 1.078zm67.643-36.059l-3.58-2.106 45.065-26.191 3.534 2.06-45.019 26.237zm-62.695 1.213l-45.019-26.236 3.621-2.11 45.021 26.236-3.623 2.11zM851.263 484l3.578-2.107 5.832 3.408.046.045 4.551 2.646c.424.26.703.633.838 1.121.129.472.067.92-.175 1.346a1.814 1.814 0 01-1.105.852 1.65 1.65 0 01-1.325-.18l-4.464-2.646-.087-.045h-.046l-7.643-4.44zm-76.61-28.209l-3.268 1.884 1.634-2.87 1.633.986zm113.28-70.187l3.535 2.06-37.643 21.888-.132.135-45.242 26.414-3.579-2.106 44.36-25.878-71.708-41.843 3.535-2.063 71.75 41.842 35.124-20.45zm8.395-.763l3.492-6.189 2.12-1.256a50.688 50.688 0 003.885 1.929l-9.497 5.516zm76.524-44.579a49.403 49.403 0 00-3.226-2.287l6.714-3.904c.42-.246.863-.305 1.326-.177.482.134.85.418 1.104.85.246.427.304.875.175 1.345-.132.49-.412.863-.838 1.122l-5.255 3.051zm-6.01 37.18l1.9 1.12c.427.26.704.634.838 1.122.128.471.07.92-.175 1.345a1.814 1.814 0 01-1.104.852 1.65 1.65 0 01-1.325-.18l-4.023-2.333a54.984 54.984 0 003.888-1.927zm-59.867-43.459l-60.97-35.52 3.49-2.107 61.766 36.013a61.271 61.271 0 00-4.286 1.614zM860.1 244.198l-3.577-2.108 8.57-4.978c.42-.25.862-.308 1.325-.18.482.134.85.417 1.104.853.246.425.304.874.179 1.345a1.846 1.846 0 01-.841 1.122l-6.76 3.946zm-75.86 18.253l-27.346-15.92 3.535-2.064 23.723 13.858.089 4.126zm-27.171-115.214l-3.577-2.108 27.214-16.011c.42-.248.862-.307 1.326-.18.48.133.85.417 1.104.853.246.425.304.873.179 1.345-.133.486-.414.86-.842 1.121l-25.404 14.98zm253.025 255.544c.428.26.707.634.843 1.122.125.471.067.92-.18 1.345a1.8 1.8 0 01-1.105.852 1.653 1.653 0 01-1.325-.18l-4.593-2.69a1.828 1.828 0 01-.838-1.121c-.13-.472-.07-.92.175-1.346a1.794 1.794 0 011.104-.852 1.645 1.645 0 011.326.18l4.593 2.69z" id="Fill-1" fill="#E9E9E9" mask="url(#mask-2)"/></g></g></g></g></svg>