<svg width="82" height="18" fill="none" xmlns="http://www.w3.org/2000/svg"><path fill-rule="evenodd" clip-rule="evenodd" d="M7.015.535c2.31.006 4.232 1.282 5.11 3.275.236.538.39 1.116.457 1.717.05.451.059.749.03 1.17-.142 2.038-1.209 3.82-2.888 5.088a.018.018 0 00.003.03l.144.081c1.18.665 2.137 1.36 2.87 2.15.052.055.1.11.15.165a.02.02 0 00.03 0 6.82 6.82 0 01.146-.166c.727-.797 1.676-1.5 2.85-2.175.436-.252.885-.489 1.4-.745.078-.04.173.014.174.097l.012 2.588c0 .046-.03.088-.076.104-1.81.642-3.1 2.27-3.168 3.436a.114.114 0 01-.117.105l-2.425.01a.133.133 0 01-.136-.118c-.08-1.134-1.13-2.24-3.064-3.329a23.323 23.323 0 00-1.247-.649l-.01-.005c-.71-.366-1.765-.753-3.103-1.722-1.567-1.241-2.567-2.948-2.72-4.897a5.822 5.822 0 01.017-1.17c.06-.6.21-1.18.44-1.72C2.753 1.854 4.663.56 6.972.535h.044zM3.446 12.988c.554.415 1.248.804 2.082 1.167.125.054.136.206.02.274-1.626.953-2.508 1.902-2.58 2.88-.007.082-.086.146-.18.147l-2.34.01c-.103 0-.185-.074-.182-.163.038-1.135.565-2.172 1.478-3.107.419-.429.91-.83 1.475-1.212a.2.2 0 01.227.004zm3.56-9.979c-1.223.013-2.199.674-2.669 1.77a3.52 3.52 0 00-.262 1.032 3.54 3.54 0 00-.013.75c.132 1.666 1.235 3.082 2.967 3.921l.004.002a.021.021 0 00.019 0 .044.044 0 01.004-.002c1.724-.854 2.812-2.28 2.928-3.946a3.556 3.556 0 00-.02-.751 3.517 3.517 0 00-.273-1.03c-.48-1.09-1.463-1.743-2.685-1.746z" fill="#005FF9"/><path d="M24.846 12.389a.337.337 0 01-.348.343h-.869a.341.341 0 01-.246-.1.331.331 0 01-.102-.243V5.906a.337.337 0 01.348-.353h.819c.167 0 .302.084.395.244l1.858 3.395 1.859-3.398a.443.443 0 01.394-.241h.808a.343.343 0 01.358.353v6.483a.33.33 0 01-.104.25.364.364 0 01-.254.092h-.869a.341.341 0 01-.246-.1.332.332 0 01-.101-.242V8.526l-1.206 2.256a.459.459 0 01-.427.276h-.424c-.182 0-.33-.094-.437-.274l-1.206-2.258v3.863zm9.406.442c-.94 0-1.677-.237-2.203-.714-.53-.48-.792-1.202-.792-2.158V5.906a.337.337 0 01.348-.353h.93a.343.343 0 01.358.353v4.053c0 .5.117.87.35 1.114.23.243.562.365.999.365.437 0 .768-.122 1-.365.232-.244.35-.614.35-1.114V5.906a.343.343 0 01.358-.353h.93c.101 0 .189.034.253.103a.353.353 0 01.094.25v4.053c0 .956-.261 1.678-.786 2.157-.524.478-1.255.715-2.189.715zm8.855-1.502c.101 0 .189.034.256.1a.332.332 0 01.102.243v.717a.332.332 0 01-.102.242.354.354 0 01-.256.1h-4.395a.341.341 0 01-.247-.1.331.331 0 01-.101-.242V5.896c0-.101.035-.187.104-.25a.35.35 0 01.243-.093h.95c.101 0 .187.031.252.095a.336.336 0 01.096.248v5.433h3.098zm3.019 1.06a.337.337 0 01-.348.343h-.95a.341.341 0 01-.246-.1.331.331 0 01-.102-.243V7.005h-1.764a.342.342 0 01-.348-.352v-.747a.337.337 0 01.348-.353h5.163a.343.343 0 01.358.353v.747a.343.343 0 01-.358.352h-1.753v5.384zm3.522.342a.341.341 0 01-.246-.1.331.331 0 01-.102-.242V5.896c0-.101.035-.187.104-.25a.351.351 0 01.244-.093h.97c.1 0 .186.031.251.095a.336.336 0 01.097.248v6.493a.337.337 0 01-.348.343h-.97zm7.258-1.402c.101 0 .189.034.256.1a.33.33 0 01.102.243v.717a.33.33 0 01-.102.242.354.354 0 01-.256.1H52.51a.342.342 0 01-.348-.342V5.896c0-.101.035-.187.104-.25a.352.352 0 01.244-.093h.95c.1 0 .186.031.25.095a.334.334 0 01.097.248v5.433h3.098zm3.99 1.502c-.947 0-1.69-.237-2.223-.714-.535-.479-.815-1.186-.843-2.115-.006-.194-.01-.477-.01-.85 0-.38.004-.666.01-.86.029-.909.315-1.613.863-2.105.547-.49 1.283-.734 2.203-.734.914 0 1.648.244 2.198.734.552.492.84 1.196.868 2.105.014.386.02.673.02.86 0 .18-.006.464-.02.85-.028.929-.31 1.636-.848 2.115-.536.477-1.277.714-2.218.714zm0-1.363c.425 0 .754-.122.996-.367s.375-.629.395-1.156c.013-.397.02-.665.02-.803 0-.151-.007-.419-.02-.803-.02-.52-.156-.902-.405-1.15-.248-.249-.575-.373-.986-.373-.417 0-.747.124-.996.373-.248.247-.38.629-.394 1.15-.006.191-.01.459-.01.803 0 .338.004.606.01.804.013.52.144.902.39 1.15.245.248.576.372 1 .372zm7.249-1.615a.34.34 0 01-.246-.1.33.33 0 01-.102-.242v-.548a.33.33 0 01.102-.243.34.34 0 01.246-.1h2.425c.1 0 .189.034.256.1a.33.33 0 01.101.243v1.056c0 .569-.129 1.067-.389 1.492a2.55 2.55 0 01-1.105.981c-.473.226-1.024.339-1.652.339-.955 0-1.703-.244-2.24-.735-.536-.49-.821-1.174-.856-2.044a29.31 29.31 0 01-.01-.93c0-.426.003-.735.01-.93.028-.85.315-1.522.863-2.01.546-.486 1.292-.729 2.233-.729.634 0 1.184.108 1.646.324.463.216.816.486 1.056.81.24.324.37.647.384.972a.304.304 0 01-.092.223.325.325 0 01-.236.09h-1.06a.343.343 0 01-.218-.063.448.448 0 01-.123-.174 1.29 1.29 0 00-.46-.58c-.216-.159-.514-.239-.897-.239-.446 0-.79.116-1.034.345-.243.228-.374.588-.387 1.089-.006.19-.01.482-.01.872 0 .384.004.675.01.874.013.513.145.884.392 1.118.249.236.593.354 1.039.354.454 0 .813-.118 1.082-.352.265-.23.399-.58.399-1.058v-.205h-1.127zm4.035 2.878a.34.34 0 01-.247-.1.33.33 0 01-.101-.242V5.896c0-.101.035-.187.104-.25a.35.35 0 01.243-.093h.97c.101 0 .188.031.252.095a.335.335 0 01.096.248v6.493a.337.337 0 01-.348.343h-.97zm4.08-.342a.336.336 0 01-.348.343h-.87a.343.343 0 01-.347-.343V5.906a.336.336 0 01.348-.353h.788c.165 0 .297.076.381.217l2.696 4.125v-3.99a.337.337 0 01.347-.353h.87a.36.36 0 01.256.101.342.342 0 01.102.253v6.473a.342.342 0 01-.348.352h-.798a.433.433 0 01-.391-.216l-2.687-4.032v3.906z" fill="#242424"/></svg>