<svg width="366" height="241" fill="none" xmlns="http://www.w3.org/2000/svg"><g clip-path="url(#clip0_955_38105)"><g filter="url(#filter0_d_955_38105)"><mask id="mask0_955_38105" style="mask-type:alpha" maskUnits="userSpaceOnUse" x="39" y="1" width="288" height="223"><path fill-rule="evenodd" clip-rule="evenodd" d="M39.117 1.3H326.67v221.901H39.117V1.301z" fill="#fff"/></mask><g mask="url(#mask0_955_38105)"><path fill-rule="evenodd" clip-rule="evenodd" d="M326.669 214.655c0 4.729-3.621 8.546-8.073 8.546H47.186c-4.45 0-8.069-3.817-8.069-8.546V9.849c0-4.729 3.618-8.55 8.07-8.55h271.409c4.452 0 8.073 3.821 8.073 8.55v204.806z" fill="#fff"/></g><mask id="mask1_955_38105" style="mask-type:alpha" maskUnits="userSpaceOnUse" x="3" y="1" width="360" height="235"><path fill-rule="evenodd" clip-rule="evenodd" d="M3 236h359.778V1.3H3V236z" fill="#fff"/></mask><g mask="url(#mask1_955_38105)"><path fill-rule="evenodd" clip-rule="evenodd" d="M52 203.755h261.35V16H52v187.755z" fill="#191551"/><g clip-path="url(#clip1_955_38105)"><path d="M216.162 140.002c18.314-18.251 18.314-47.842 0-66.093-18.314-18.25-48.007-18.25-66.322 0-18.314 18.251-18.314 47.842 0 66.093 18.315 18.251 48.008 18.251 66.322 0z" stroke="#fff" stroke-miterlimit="10"/><path d="M137.811 131.874a25.893 25.893 0 01-18.276-7.544 25.714 25.714 0 01-7.57-18.214c0-6.83 2.723-13.382 7.57-18.213a25.89 25.89 0 0118.276-7.544" stroke="#fff" stroke-miterlimit="10"/><path d="M184.262 138.587c28.303 0 51.247-22.865 51.247-51.07 0-28.206-22.944-51.07-51.247-51.07-28.302 0-51.246 22.864-51.246 51.07 0 28.205 22.944 51.07 51.246 51.07z" stroke="#fff" stroke-miterlimit="10"/><path d="M231.877 140.282c18.314-18.251 18.314-47.842 0-66.093-18.314-18.251-48.007-18.251-66.322 0-18.314 18.251-18.314 47.842 0 66.093 18.315 18.251 48.008 18.251 66.322 0z" stroke="#fff" stroke-miterlimit="10"/><path d="M228.121 78.038A35.148 35.148 0 01252.93 88.28a34.903 34.903 0 0110.276 24.724 34.901 34.901 0 01-10.276 24.723 35.148 35.148 0 01-24.809 10.241m-12.718 6.638a32.624 32.624 0 01-9.611 23.103 32.852 32.852 0 01-23.186 9.569 32.855 32.855 0 01-23.187-9.569 32.627 32.627 0 01-9.61-23.103" stroke="#fff" stroke-miterlimit="10"/><path d="M112.476 122.385c7.994 0 14.475-6.459 14.475-14.426 0-7.967-6.481-14.426-14.475-14.426-7.995 0-14.476 6.459-14.476 14.426 0 7.967 6.481 14.426 14.476 14.426zm149.621-2.781c6.454-4.744 7.827-13.804 3.066-20.235-4.76-6.432-13.851-7.8-20.305-3.056-6.454 4.745-7.827 13.804-3.066 20.236 4.76 6.432 13.851 7.8 20.305 3.055z" fill="#fff"/><path fill-rule="evenodd" clip-rule="evenodd" d="M252.657 99c2.277.006 4.173 1.287 5.038 3.289.234.54.386 1.121.452 1.724.05.453.058.751.029 1.174-.139 2.047-1.192 3.837-2.848 5.109-.01.009-.009.024.003.031l.142.081c1.164.668 2.107 1.365 2.831 2.159.05.054.099.11.147.165a.02.02 0 00.03 0c.047-.056.095-.112.144-.167.717-.8 1.653-1.505 2.81-2.184.431-.252.874-.49 1.382-.747.077-.04.17.014.171.097l.012 2.599c0 .046-.03.088-.075.104-1.785.644-3.057 2.279-3.124 3.451a.114.114 0 01-.116.104l-2.391.011a.132.132 0 01-.134-.119c-.08-1.139-1.115-2.248-3.022-3.342a22.86 22.86 0 00-1.23-.652l-.01-.005c-.7-.368-1.741-.756-3.06-1.729-1.546-1.246-2.531-2.961-2.683-4.917a5.938 5.938 0 01.017-1.174c.06-.604.207-1.186.435-1.728.846-2.01 2.729-3.307 5.006-3.334h.044zm-3.52 12.505c.546.416 1.231.807 2.053 1.171.123.055.134.207.02.275-1.604.957-2.473 1.91-2.546 2.891-.006.084-.083.148-.176.149l-2.309.009c-.1 0-.182-.073-.179-.163.038-1.14.557-2.181 1.458-3.12.413-.43.898-.832 1.455-1.217a.194.194 0 01.224.005zm3.51-10.02c-1.205.013-2.168.677-2.631 1.777a3.575 3.575 0 00-.259 1.035 3.63 3.63 0 00-.013.754c.13 1.672 1.218 3.095 2.926 3.937l.004.002a.02.02 0 00.018 0l.004-.002c1.701-.857 2.775-2.289 2.888-3.962a3.584 3.584 0 00-.02-.754 3.577 3.577 0 00-.268-1.033c-.474-1.097-1.444-1.752-2.649-1.754z" fill="#005FF9"/><path d="M197.27 35.953a14.184 14.184 0 01-2.255 7.945 14.254 14.254 0 01-6.304 5.358 14.314 14.314 0 01-15.608-2.79 14.211 14.211 0 01-4.043-7.206 14.172 14.172 0 01.656-8.231 14.23 14.23 0 015.134-6.48 14.307 14.307 0 0118.05 1.428 14.199 14.199 0 014.37 9.976z" fill="#fff"/><mask id="mask2_955_38105" style="mask-type:alpha" maskUnits="userSpaceOnUse" x="168" y="22" width="30" height="29"><path d="M197.27 35.953a14.184 14.184 0 01-2.255 7.945 14.254 14.254 0 01-6.304 5.358 14.314 14.314 0 01-15.608-2.79 14.211 14.211 0 01-4.043-7.206 14.172 14.172 0 01.656-8.231 14.23 14.23 0 015.134-6.48 14.307 14.307 0 0118.05 1.428 14.199 14.199 0 014.37 9.976z" fill="#fff"/></mask><g mask="url(#mask2_955_38105)"><path d="M173.672 52.202c-.929-1.003-.78-2.139.951-3.814-.623.125-1.298.534-.645-1.008-1.638.54-3.389-1.862-1.598-3.313-3.132-3.284-2.458-6.696-.175-9.232-.968-.095-.777-2.025 1.183-3.591-1.141-.205-1.008-2.191 2.326-3.274-.928-.945 1.776-2.243 3.886-1.943-.079-1.131 1.515-1.048 2.213-.211 1.56-1.673 4.301-1.044 4.953.36 1.401-1.103 1.704-.09 1.373.427 2.657-.787 6.59 2.765 5.041 5.004 2.404.861 1.049 1.34.311 1.41 3.22 1.923 3.019 6.29.875 7.18 1.562 1.387.865 3.61-1.456 4.163.59 1.122-.266.969-.778.922 1.849 1.608 3.147 4.076-.452 6.184" fill="#D46E03"/><path d="M189.529 50.839l-12.771.24s2.805-2.865 6.332-2.932c3.526-.066 6.439 2.692 6.439 2.692z" fill="#D1E6CF"/><path d="M182.899 48.16c-3.435.164-6.141 2.92-6.141 2.92l12.771-.241c-.326-.293-.67-.565-1.03-.814-2.717.532-4.742-.34-5.6-1.865z" fill="#99DAD0"/><path d="M184.244 48.943a2.187 2.187 0 01-1.113 1.128 4.675 4.675 0 01-1.145-1.062c-.179-.321-.061-3.197-.061-3.197l2.259-.043s.142 2.957.06 3.174z" fill="#F4D9BF"/><path d="M184.261 47.87c-.021-.924-.077-2.1-.077-2.1l-2.26.042s-.049 1.22-.035 2.16a5.027 5.027 0 012.372-.102z" fill="#D2AD8D"/><path d="M190.588 38.135c-.04 0-.079.01-.118.014a7.676 7.676 0 00-2.692-4.587 7.723 7.723 0 00-10.004.185 7.674 7.674 0 00-2.52 4.683c-.02 0-.039-.006-.06-.005a1.367 1.367 0 10.052 2.738c.036 0 .069-.01.104-.013a7.687 7.687 0 002.758 4.389 7.731 7.731 0 009.783-.188 7.683 7.683 0 002.586-4.492c.054.008.108.012.163.014a1.372 1.372 0 001.235-1.917 1.369 1.369 0 00-1.287-.821z" fill="#F4D9BF"/><path d="M190.643 40.873a1.38 1.38 0 00.965-.419 1.373 1.373 0 00.27-1.499 1.384 1.384 0 00-.759-.727 1.378 1.378 0 00-.528-.093c-.041 0-.079.01-.118.014a7.67 7.67 0 00-2.339-4.281 7.719 7.719 0 00-9.227-.946 7.685 7.685 0 00-3.165 3.717c6.855-.621 12.232 2.674 14.375 5.541.16-.428.282-.87.363-1.32.054.007.108.011.163.013z" fill="#D2AD8D"/><path d="M175.385 37.732c.829.047 3.055-.918 2.538-2.442 1.307 1.17 2.404.55 3.897-1.332 1.938 1.453 4.203.957 4.361-1.34-.482 2.592 1.057 3.159 1.901 2.083a6.452 6.452 0 002.397 3.73l.92.015s.605-1.474-.032-6.213c-.482-3.584-2.754-4.564-3.679-4.281-1.172-2.23-9.36-2.871-12.133 1.62-2.427 3.929-1.539 8.201-1.279 9.208a.585.585 0 01.787-.058 2.48 2.48 0 00.322-.99z" fill="#D46E03"/><path d="M190.231 37.71c-.063.943.258 2.798.384 2.49.088-.633.12-1.27.096-1.908m-15.406-.302c.099.94-.152 2.807-.289 2.503a10.838 10.838 0 01-.168-1.902" fill="#D46E03"/><path d="M183.162 49.84a4.705 4.705 0 01-1.24-1.174c.003.117.025.233.065.343.319.415.706.774 1.145 1.062a2.19 2.19 0 001.114-1.128c.019-.108.027-.217.023-.327a2.954 2.954 0 01-1.107 1.224z" fill="#D2AD8D"/></g><path d="M189.429 192.129c5.857-3.538 7.728-11.137 4.178-16.975-3.549-5.837-11.175-7.701-17.032-4.164-5.858 3.538-7.729 11.137-4.179 16.974 3.549 5.838 11.175 7.702 17.033 4.165z" fill="#fff"/><mask id="mask3_955_38105" style="mask-type:alpha" maskUnits="userSpaceOnUse" x="170" y="169" width="26" height="25"><path d="M189.429 192.129c5.857-3.538 7.728-11.137 4.178-16.975-3.549-5.837-11.175-7.701-17.032-4.164-5.858 3.538-7.729 11.137-4.179 16.974 3.549 5.838 11.175 7.702 17.033 4.165z" fill="#fff"/></mask><g mask="url(#mask3_955_38105)"><path d="M189.029 194h-11.896s2.663-2.619 5.948-2.619c3.285 0 5.948 2.619 5.948 2.619z" fill="#3958A4"/><path d="M182.903 191.389c-3.202.093-5.77 2.611-5.77 2.611h11.896a9.367 9.367 0 00-.945-.776c-2.539.448-4.409-.4-5.181-1.835z" fill="#2A3F75"/><path d="M184.141 192.142a2.042 2.042 0 01-1.057 1.031 4.368 4.368 0 01-1.048-1.009c-.16-.302 0-2.978 0-2.978h2.105s.08 2.755 0 2.956z" fill="#DEAC72"/><path d="M184.175 191.143c-.003-.861-.035-1.957-.035-1.957h-2.104s-.068 1.135-.071 2.01a4.68 4.68 0 012.21-.053z" fill="#BC855D"/><path d="M190.241 182.189c-.038 0-.074.008-.111.011a7.145 7.145 0 00-2.426-4.319 7.194 7.194 0 00-9.318-.003 7.14 7.14 0 00-2.429 4.316c-.019 0-.037-.005-.056-.005a1.274 1.274 0 100 2.55c.033 0 .064-.007.097-.01a7.157 7.157 0 002.491 4.136 7.2 7.2 0 009.113-.004 7.157 7.157 0 002.487-4.137c.05.008.101.013.152.015a1.273 1.273 0 00.905-2.177 1.283 1.283 0 00-.905-.373z" fill="#DEAC72"/><path d="M190.242 184.739a1.276 1.276 0 00.905-2.177 1.283 1.283 0 00-.905-.373c-.038 0-.074.008-.111.011a7.129 7.129 0 00-2.102-4.028 7.178 7.178 0 00-4.112-1.952 7.183 7.183 0 00-4.463.91 7.152 7.152 0 00-3.013 3.405c6.394-.458 11.344 2.705 13.288 5.412.157-.396.278-.805.361-1.223.05.008.101.013.152.015zm-7.124 8.219a4.403 4.403 0 01-1.134-1.115c.002.109.02.217.055.321.29.392.644.733 1.047 1.009.47-.2.847-.568 1.057-1.031.02-.1.03-.202.028-.304a2.744 2.744 0 01-1.053 1.12z" fill="#BC855D"/><path d="M191.068 176.706c-.385-3.345-2.484-4.297-3.35-4.051-1.053-2.097-8.666-2.837-11.328 1.296-2.661 4.133-1.3 8.759-1.3 8.759a24.725 24.725 0 002.339 6.896c1.617 1.514 8.082 2.734 11.56-.146a15.112 15.112 0 001.999-6.967s.589-1.362.08-5.787zm-10.235 12.669a3.575 3.575 0 012.564-1.388h.043a3.537 3.537 0 012.621 1.424c-1.62.463-3.517.27-5.228-.036zm8.009-2.209a5.357 5.357 0 01-1.459 1.634c-1.095-1.435-2.487-2.225-3.942-2.225h-.068c-1.467.025-2.865.853-3.975 2.327-.774-.367-1.491-.886-1.675-1.394 0 0-1.712-2.026-1.558-5.909.772.057 1.388-.745 2.33-2.282 2.03.224 7.289.879 9.47-.37a6.005 6.005 0 002.167 3.516c.283 1.169-.849 4.019-1.29 4.703z" fill="url(#paint0_linear_955_38105)"/></g><path d="M163.282 88.607c9.878-9.844 9.878-25.804 0-35.648-9.878-9.844-25.893-9.844-35.771 0s-9.878 25.804 0 35.648c9.878 9.844 25.893 9.844 35.771 0z" fill="#fff"/><mask id="mask4_955_38105" style="mask-type:alpha" maskUnits="userSpaceOnUse" x="120" y="45" width="51" height="51"><path d="M163.282 88.607c9.878-9.844 9.878-25.804 0-35.648-9.878-9.844-25.893-9.844-35.771 0s-9.878 25.804 0 35.648c9.878 9.844 25.893 9.844 35.771 0z" fill="#fff"/></mask><g mask="url(#mask4_955_38105)"><path d="M157.694 96.158H133.43s5.431-5.342 12.132-5.342c6.7 0 12.132 5.342 12.132 5.342z" fill="#EE76AB"/><path d="M145.199 90.833c-6.531.188-11.769 5.325-11.769 5.325h24.264a19.364 19.364 0 00-1.927-1.583c-5.179.915-8.993-.816-10.568-3.742z" fill="#C95F8E"/><path d="M147.723 92.368a4.154 4.154 0 01-2.155 2.103s-1.664-1.169-2.137-2.059c-.328-.616 0-6.074 0-6.074h4.292s.164 5.62 0 6.03z" fill="#F4D9BF"/><path d="M147.794 90.33c-.007-1.755-.072-3.992-.072-3.992h-4.292s-.139 2.316-.145 4.101a9.552 9.552 0 014.509-.11z" fill="#D2AD8D"/><path d="M159.941 76.602c3.756 2.777 4.362 7.908 1.696 12.195-2.666 4.286-1.03 7.064-1.03 7.064s-8.057-3.08-6.603-10.626c1.454-7.547 5.937-8.633 5.937-8.633z" fill="url(#paint1_linear_955_38105)"/><path d="M160.163 72.067c-.077 0-.149.016-.225.022a14.573 14.573 0 00-4.948-8.808 14.664 14.664 0 00-9.502-3.496 14.662 14.662 0 00-9.504 3.49 14.569 14.569 0 00-4.955 8.803c-.039-.001-.075-.011-.114-.011-.692 0-1.356.274-1.846.762a2.598 2.598 0 001.846 4.44c.068 0 .132-.015.198-.02a14.597 14.597 0 005.08 8.434 14.687 14.687 0 0018.588-.007 14.596 14.596 0 005.073-8.438c.102.016.206.027.309.031.693 0 1.357-.274 1.846-.762a2.595 2.595 0 000-3.678 2.613 2.613 0 00-1.846-.762z" fill="#F4D9BF"/><path d="M160.164 77.27c.692 0 1.356-.275 1.846-.763a2.598 2.598 0 00-1.846-4.44c-.077 0-.15.016-.225.022a14.564 14.564 0 00-4.288-8.214 14.668 14.668 0 00-17.491-2.127 14.592 14.592 0 00-6.144 6.946c13.041-.934 23.136 5.517 27.102 11.04.32-.809.566-1.644.736-2.496.103.016.206.027.31.031z" fill="#D2AD8D"/><path d="M131.3 70.758c1.574.118 2.989-1.413 4.909-4.547-.758 2.893 4.545 1.132 7.449-2.391-.253 3.649 6.439-.252 8.332-2.39-1.01 4.906 1.894 6.039 3.535 4.026a12.254 12.254 0 004.419 7.171l1.746.06s1.203-2.778.164-11.802c-.786-6.824-5.066-8.766-6.834-8.263-2.146-4.277-17.675-5.787-23.104 2.642-4.75 7.376-3.217 15.523-2.76 17.444a1.112 1.112 0 011.498-.08 4.746 4.746 0 00.646-1.87z" fill="url(#paint2_linear_955_38105)"/><path d="M159.499 71.246c-.153 1.79.39 5.326.641 4.744.25-.583.25-3.62.25-3.62" fill="url(#paint3_linear_955_38105)"/><path d="M131.137 71.246c.153 1.79-.39 5.326-.64 4.744-.251-.583-.251-3.62-.251-3.62" fill="#67300C"/><path d="M145.633 94.033a8.966 8.966 0 01-2.313-2.275c.003.223.04.443.111.654.474.89 2.137 2.059 2.137 2.059a4.159 4.159 0 002.156-2.103 3.07 3.07 0 00.057-.62 5.616 5.616 0 01-2.148 2.285z" fill="#D2AD8D"/></g><path d="M244.539 150.245c2.268-13.737-7.068-26.704-20.852-28.964-13.785-2.26-26.797 7.044-29.065 20.78-2.268 13.737 7.068 26.705 20.852 28.965 13.785 2.26 26.797-7.044 29.065-20.781z" fill="#fff"/><mask id="mask5_955_38105" style="mask-type:alpha" maskUnits="userSpaceOnUse" x="194" y="120" width="51" height="52"><path d="M244.539 150.245c2.268-13.737-7.068-26.704-20.852-28.964-13.785-2.26-26.797 7.044-29.065 20.78-2.268 13.737 7.068 26.705 20.852 28.965 13.785 2.26 26.797-7.044 29.065-20.781z" fill="#fff"/></mask><g mask="url(#mask5_955_38105)"><path d="M231.881 171.528h-24.264s5.432-5.342 12.132-5.342c6.701 0 12.132 5.342 12.132 5.342z" fill="#3958A4"/><path d="M219.387 166.203c-6.531.188-11.77 5.325-11.77 5.325h24.264a19.329 19.329 0 00-1.926-1.583c-5.18.915-8.994-.816-10.568-3.742z" fill="#2A3F75"/><path d="M221.911 167.738a4.16 4.16 0 01-2.156 2.103s-1.663-1.169-2.137-2.059c-.327-.615 0-6.074 0-6.074h4.293s.163 5.621 0 6.03z" fill="#F4D9BF"/><path d="M221.982 165.7c-.007-1.755-.072-3.992-.072-3.992h-4.293s-.138 2.316-.144 4.101a9.55 9.55 0 014.509-.109z" fill="#D2AD8D"/><path d="M234.351 147.437c-.077 0-.15.016-.225.022a14.575 14.575 0 00-4.948-8.807 14.662 14.662 0 00-9.502-3.497 14.664 14.664 0 00-9.505 3.489 14.582 14.582 0 00-4.955 8.804c-.038-.001-.075-.011-.114-.011-.692 0-1.356.274-1.845.762a2.594 2.594 0 000 3.678 2.612 2.612 0 001.845.762c.068 0 .132-.015.199-.02a14.59 14.59 0 005.079 8.434 14.685 14.685 0 009.296 3.31 14.682 14.682 0 009.292-3.317 14.583 14.583 0 005.073-8.438c.103.017.206.027.31.031.692 0 1.356-.274 1.845-.762a2.594 2.594 0 000-3.678 2.612 2.612 0 00-1.845-.762z" fill="#F4D9BF"/><path d="M234.351 152.639c.693 0 1.357-.274 1.846-.762a2.594 2.594 0 000-3.678 2.613 2.613 0 00-1.846-.762c-.077 0-.149.016-.225.022a14.56 14.56 0 00-4.288-8.214 14.67 14.67 0 00-17.491-2.127 14.588 14.588 0 00-6.144 6.946c13.042-.934 23.136 5.517 27.102 11.039.32-.808.567-1.643.737-2.495.102.016.206.027.309.031z" fill="#D2AD8D"/><path d="M205.645 146.233c1.573.118 2.831-1.518 4.751-4.653-.757 2.894 4.546 1.133 7.449-2.39-.252 3.649 6.439-.252 8.333-2.391-1.01 4.907 1.894 6.04 3.535 4.027a12.249 12.249 0 004.419 7.171l1.746.06s1.202-2.778.163-11.802c-.786-6.824-5.066-8.766-6.833-8.263-2.146-4.277-17.675-5.787-23.104 2.642-5.429 8.43-2.651 17.866-2.651 17.866a1.317 1.317 0 001.538-.417 4.764 4.764 0 00.654-1.85z" fill="url(#paint4_linear_955_38105)"/><path d="M219.821 169.403a8.935 8.935 0 01-2.313-2.275c.002.223.04.443.111.654.473.89 2.137 2.059 2.137 2.059a4.154 4.154 0 002.155-2.103c.041-.204.06-.411.057-.619a5.61 5.61 0 01-2.147 2.284z" fill="#D2AD8D"/></g><path d="M238.189 89.328c10.277-10.242 10.277-26.847 0-37.089-10.277-10.242-26.94-10.242-37.217 0-10.277 10.242-10.277 26.847 0 37.089 10.277 10.241 26.94 10.241 37.217 0z" fill="#fff"/><mask id="mask6_955_38105" style="mask-type:alpha" maskUnits="userSpaceOnUse" x="193" y="44" width="53" height="54"><path d="M238.189 89.328c10.277-10.242 10.277-26.847 0-37.089-10.277-10.242-26.94-10.242-37.217 0-10.277 10.242-10.277 26.847 0 37.089 10.277 10.241 26.94 10.241 37.217 0z" fill="#fff"/></mask><g mask="url(#mask6_955_38105)"><path d="M232.374 97.183h-25.245s5.651-5.558 12.622-5.558 12.623 5.558 12.623 5.558z" fill="#3958A4"/><path d="M219.374 91.643c-6.795.196-12.245 5.54-12.245 5.54h25.245a20.098 20.098 0 00-2.005-1.646c-5.388.951-9.357-.85-10.995-3.894z" fill="#2A3F75"/><path d="M222 93.24a4.324 4.324 0 01-2.243 2.188s-1.73-1.216-2.223-2.142c-.34-.64 0-6.32 0-6.32H222s.17 5.849 0 6.275z" fill="#DEAC72"/><path d="M222.074 91.12c-.007-1.826-.075-4.153-.075-4.153h-4.466s-.144 2.409-.15 4.267a9.935 9.935 0 014.691-.114z" fill="#BC855D"/><path d="M234.943 72.119c-.08 0-.156.016-.234.023a15.162 15.162 0 00-5.148-9.164 15.258 15.258 0 00-9.886-3.638 15.259 15.259 0 00-9.889 3.63 15.167 15.167 0 00-5.155 9.16c-.04-.001-.078-.011-.119-.011-.72 0-1.41.285-1.92.793a2.702 2.702 0 000 3.827c.51.507 1.2.792 1.92.792.071 0 .138-.015.207-.02a15.182 15.182 0 005.285 8.775 15.278 15.278 0 009.671 3.443 15.277 15.277 0 009.668-3.451 15.18 15.18 0 005.278-8.78c.107.018.214.029.322.033a2.72 2.72 0 001.92-.792 2.699 2.699 0 000-3.828 2.72 2.72 0 00-1.92-.792z" fill="#DEAC72"/><path d="M234.946 77.531a2.72 2.72 0 001.92-.793 2.699 2.699 0 000-3.827 2.72 2.72 0 00-1.92-.792c-.08 0-.156.016-.234.023a15.155 15.155 0 00-4.461-8.546 15.26 15.26 0 00-18.198-2.213 15.18 15.18 0 00-6.393 7.226c13.569-.97 24.072 5.74 28.197 11.486.334-.84.59-1.71.767-2.596.107.017.214.028.322.032z" fill="#BC855D"/><path d="M236.533 72.764s1.25-2.89.169-12.28c-.817-7.099-5.27-9.12-7.109-8.596-2.233-4.45-18.39-6.021-24.038 2.75-5.648 8.77-2.758 18.587-2.758 18.587.56 3.896.355 9.408-1.899 10.633 3.278 1.736 7.068.409 7.068.409s-3.216-5.16-2.888-13.4c1.636.122 2.945-1.58 4.943-4.841-.788 3.01 4.729 1.178 7.75-2.487-.263 3.796 6.699-.262 8.669-2.488-1.051 5.106 1.971 6.284 3.678 4.19a12.743 12.743 0 004.598 7.46c.6 2.48-1.551 9.524-3.19 11.362 3.688 1.429 7.068-.715 7.068-.715s-2.484-1.67-2.061-10.584z" fill="url(#paint5_linear_955_38105)"/><path d="M219.828 94.973a9.316 9.316 0 01-2.406-2.367c.002.232.041.461.115.68.493.926 2.224 2.142 2.224 2.142a4.326 4.326 0 002.242-2.187c.043-.213.062-.429.06-.645a5.841 5.841 0 01-2.235 2.377z" fill="#BC855D"/><path d="M216.898 89.482a7.654 7.654 0 002.216 2.822c.206-.45.37-.9.37-.9l.492 1.8c.299-.55.546-1.124.739-1.718.186.292.272.636.246.981 0 0 1.272-.94 1.887-3.312-.984-.409-2.503-.736-2.954-1.145-1.026 1.227-2.996 1.472-2.996 1.472z" fill="url(#paint6_linear_955_38105)"/></g><path d="M170.09 151.608c3.022-13.592-5.583-27.052-19.222-30.064-13.638-3.013-27.145 5.563-30.168 19.155-3.023 13.591 5.583 27.052 19.221 30.064 13.639 3.012 27.146-5.564 30.169-19.155z" fill="#fff"/><mask id="mask7_955_38105" style="mask-type:alpha" maskUnits="userSpaceOnUse" x="120" y="120" width="51" height="52"><path d="M170.09 151.608c3.022-13.592-5.583-27.052-19.222-30.064-13.638-3.013-27.145 5.563-30.168 19.155-3.023 13.591 5.583 27.052 19.221 30.064 13.639 3.012 27.146-5.564 30.169-19.155z" fill="#fff"/></mask><g mask="url(#mask7_955_38105)"><path d="M126.656 172.918h37.423a170.66 170.66 0 01-2.365-27.601c0-14.796-32.693-17.499-32.693 0 0 17.5-2.365 27.601-2.365 27.601z" fill="url(#paint7_linear_955_38105)"/><path d="M157.694 171.528H133.43s5.431-5.342 12.132-5.342c6.7 0 12.132 5.342 12.132 5.342z" fill="#B4B4B4"/><path d="M145.199 166.203c-6.531.188-11.769 5.325-11.769 5.325h24.264a19.34 19.34 0 00-1.927-1.583c-5.179.915-8.993-.816-10.568-3.742z" fill="#878888"/><path d="M147.723 167.738a4.154 4.154 0 01-2.155 2.103s-1.664-1.169-2.137-2.059c-.328-.615 0-6.074 0-6.074h4.292s.164 5.621 0 6.03z" fill="#683914"/><path d="M147.794 165.7c-.007-1.755-.072-3.992-.072-3.992h-4.292s-.139 2.316-.145 4.101a9.55 9.55 0 014.509-.109z" fill="#542700"/><path d="M160.163 147.437c-.077 0-.149.016-.225.022a14.57 14.57 0 00-4.948-8.807 14.66 14.66 0 00-9.502-3.497 14.661 14.661 0 00-9.504 3.489 14.572 14.572 0 00-4.955 8.804c-.039-.001-.075-.011-.114-.011-.692 0-1.356.274-1.846.762a2.598 2.598 0 001.846 4.44c.068 0 .132-.015.198-.02a14.596 14.596 0 005.08 8.434 14.687 14.687 0 0018.588-.007 14.594 14.594 0 005.073-8.438c.102.017.206.027.309.031.693 0 1.357-.274 1.846-.762a2.594 2.594 0 000-3.678 2.613 2.613 0 00-1.846-.762z" fill="#683914"/><path d="M160.164 152.639c.692 0 1.356-.274 1.846-.762a2.598 2.598 0 00-1.846-4.44c-.077 0-.15.016-.225.022a14.566 14.566 0 00-4.288-8.214 14.668 14.668 0 00-17.491-2.127 14.588 14.588 0 00-6.144 6.946c13.041-.934 23.136 5.517 27.102 11.039.32-.808.566-1.643.736-2.495.103.016.206.027.31.031z" fill="#542700"/><path d="M131.3 146.128c13.711-.526 18.797-7.19 20.69-9.329-1.01 4.907 1.894 6.04 3.535 4.027a12.254 12.254 0 004.419 7.171l1.746.06s1.203-2.778.164-11.802c-.786-6.824-5.066-8.766-6.834-8.263-2.146-4.277-17.675-5.787-23.104 2.642-5.428 8.43-2.651 17.866-2.651 17.866a1.208 1.208 0 001.389-.503 4.736 4.736 0 00.646-1.869z" fill="url(#paint8_linear_955_38105)"/><path d="M159.499 146.616c-.153 1.789.39 5.326.641 4.743.25-.582.25-3.619.25-3.619" fill="url(#paint9_linear_955_38105)"/><path d="M131.137 146.616c.153 1.789-.39 5.326-.64 4.743-.251-.582-.251-3.619-.251-3.619" fill="url(#paint10_linear_955_38105)"/><path d="M145.633 169.403a8.966 8.966 0 01-2.313-2.275c.003.223.04.443.111.654.474.89 2.137 2.059 2.137 2.059a4.16 4.16 0 002.156-2.103 3.06 3.06 0 00.057-.619 5.619 5.619 0 01-2.148 2.284z" fill="#542700"/></g></g><path fill-rule="evenodd" clip-rule="evenodd" d="M3 216.793C4.073 227.539 14.728 236 27.84 236h310.094c13.119 0 23.767-8.461 24.845-19.207H3z" fill="#EFEFEF"/><path fill-rule="evenodd" clip-rule="evenodd" d="M135.461 223.201h94.855v-6.409h-94.855v6.409z" fill="#CCC"/></g></g><path d="M108.5 112.668l-.116.332c-3.391-1.209-5.201-5.002-4.025-8.498 1.176-3.496 4.867-5.334 8.258-4.136 2.584.912 4.337 3.389 4.383 6.198h-.358c-.519-3.152-3.425-5.262-6.493-4.729-3.068.534-5.121 3.532-4.59 6.685a5.76 5.76 0 002.941 4.148z" fill="url(#paint11_linear_955_38105)"/><path d="M116.109 100.271l.118-.271c5.002 2.333 7.166 8.259 4.836 13.243-2.329 4.983-8.288 7.151-13.29 4.818a9.958 9.958 0 01-5.735-9.896l.32.035c.26 4.901 4.457 8.648 9.376 8.389 4.919-.259 8.679-4.442 8.419-9.343a8.89 8.89 0 00-4.044-6.975z" fill="url(#paint12_linear_955_38105)"/></g><defs><linearGradient id="paint0_linear_955_38105" x1="175.462" y1="187.065" x2="190.972" y2="175.056" gradientUnits="userSpaceOnUse"><stop stop-color="#210800"/><stop offset="1" stop-color="#4B211C"/></linearGradient><linearGradient id="paint1_linear_955_38105" x1="158.272" y1="84.496" x2="160.766" y2="89.97" gradientUnits="userSpaceOnUse"><stop stop-color="#67300C"/><stop offset="1" stop-color="#834617"/></linearGradient><linearGradient id="paint2_linear_955_38105" x1="134.573" y1="72.972" x2="160.141" y2="53.174" gradientUnits="userSpaceOnUse"><stop stop-color="#67300C"/><stop offset="1" stop-color="#834617"/></linearGradient><linearGradient id="paint3_linear_955_38105" x1="134.655" y1="89.378" x2="170.88" y2="66.557" gradientUnits="userSpaceOnUse"><stop stop-color="#67300C"/><stop offset="1" stop-color="#834617"/></linearGradient><linearGradient id="paint4_linear_955_38105" x1="208.64" y1="148.435" x2="234.334" y2="128.54" gradientUnits="userSpaceOnUse"><stop stop-color="#210800"/><stop offset="1" stop-color="#4B211C"/></linearGradient><linearGradient id="paint5_linear_955_38105" x1="205.544" y1="81.279" x2="238.129" y2="56.048" gradientUnits="userSpaceOnUse"><stop stop-color="#210800"/><stop offset="1" stop-color="#4B211C"/></linearGradient><linearGradient id="paint6_linear_955_38105" x1="218.698" y1="91.153" x2="222.428" y2="88.264" gradientUnits="userSpaceOnUse"><stop stop-color="#210800"/><stop offset="1" stop-color="#4B211C"/></linearGradient><linearGradient id="paint7_linear_955_38105" x1="131.776" y1="169.708" x2="173.05" y2="132.718" gradientUnits="userSpaceOnUse"><stop stop-color="#210800"/><stop offset="1" stop-color="#4B211C"/></linearGradient><linearGradient id="paint8_linear_955_38105" x1="123.173" y1="160.108" x2="164.447" y2="123.118" gradientUnits="userSpaceOnUse"><stop stop-color="#210800"/><stop offset="1" stop-color="#4B211C"/></linearGradient><linearGradient id="paint9_linear_955_38105" x1="133.894" y1="172.074" x2="175.168" y2="135.084" gradientUnits="userSpaceOnUse"><stop stop-color="#210800"/><stop offset="1" stop-color="#4B211C"/></linearGradient><linearGradient id="paint10_linear_955_38105" x1="121.053" y1="157.744" x2="162.327" y2="120.754" gradientUnits="userSpaceOnUse"><stop stop-color="#210800"/><stop offset="1" stop-color="#4B211C"/></linearGradient><linearGradient id="paint11_linear_955_38105" x1="110.502" y1="99.996" x2="110.502" y2="112.994" gradientUnits="userSpaceOnUse"><stop stop-color="#7A5FFF"/><stop offset=".609" stop-color="#927FF1"/><stop offset="1" stop-color="#01FF89"/></linearGradient><linearGradient id="paint12_linear_955_38105" x1="112" y1="100.011" x2="112" y2="119.004" gradientUnits="userSpaceOnUse"><stop stop-color="#7A5FFF"/><stop offset="1" stop-color="#01FF89"/></linearGradient><clipPath id="clip0_955_38105"><path fill="#fff" d="M0 0h366v241H0z"/></clipPath><clipPath id="clip1_955_38105"><path fill="#fff" transform="translate(98 22)" d="M0 0h170v172H0z"/></clipPath><filter id="filter0_d_955_38105" x="0" y=".301" width="365.777" height="240.699" filterUnits="userSpaceOnUse" color-interpolation-filters="sRGB"><feFlood flood-opacity="0" result="BackgroundImageFix"/><feColorMatrix in="SourceAlpha" values="0 0 0 0 0 0 0 0 0 0 0 0 0 0 0 0 0 0 127 0" result="hardAlpha"/><feOffset dy="2"/><feGaussianBlur stdDeviation="1.5"/><feColorMatrix values="0 0 0 0 0 0 0 0 0 0 0 0 0 0 0 0 0 0 0.15 0"/><feBlend in2="BackgroundImageFix" result="effect1_dropShadow_955_38105"/><feBlend in="SourceGraphic" in2="effect1_dropShadow_955_38105" result="shape"/></filter></defs></svg>