<svg width="366" height="241" fill="none" xmlns="http://www.w3.org/2000/svg"><g clip-path="url(#clip0_955_38123)"><g filter="url(#filter0_d_955_38123)"><mask id="mask0_955_38123" style="mask-type:alpha" maskUnits="userSpaceOnUse" x="39" y="1" width="288" height="223"><path fill-rule="evenodd" clip-rule="evenodd" d="M39.117 1.3H326.67v221.901H39.117V1.301z" fill="#fff"/></mask><g mask="url(#mask0_955_38123)"><path fill-rule="evenodd" clip-rule="evenodd" d="M326.669 214.655c0 4.729-3.621 8.546-8.073 8.546H47.186c-4.45 0-8.069-3.817-8.069-8.546V9.849c0-4.729 3.618-8.55 8.07-8.55h271.409c4.452 0 8.073 3.821 8.073 8.55v204.806z" fill="#fff"/></g><mask id="mask1_955_38123" style="mask-type:alpha" maskUnits="userSpaceOnUse" x="3" y="1" width="360" height="235"><path fill-rule="evenodd" clip-rule="evenodd" d="M3 236h359.778V1.3H3V236z" fill="#fff"/></mask><g mask="url(#mask1_955_38123)" fill-rule="evenodd" clip-rule="evenodd"><path d="M52 203.755h261.35V16H52v187.755z" fill="#191551"/><path d="M3 216.793C4.073 227.539 14.728 236 27.84 236h310.094c13.119 0 23.767-8.461 24.845-19.207H3z" fill="#EFEFEF"/><path d="M135.461 223.201h94.855v-6.409h-94.855v6.409z" fill="#CCC"/></g></g><path d="M237.341 174.338V177h-8.932v-2.662h3.124v-6.666c-.132.176-.345.359-.638.55a9.019 9.019 0 01-.924.506 6.55 6.55 0 01-1.056.396 3.406 3.406 0 01-.946.154v-2.75c.264 0 .587-.081.968-.242a9.352 9.352 0 001.122-.616c.367-.235.682-.462.946-.682.279-.235.455-.418.528-.55h3.014v9.9h2.794zm12.961-3.784c0 .968-.147 1.863-.44 2.684a6.473 6.473 0 01-1.188 2.112 5.4 5.4 0 01-1.804 1.386 5.22 5.22 0 01-2.244.484 5.273 5.273 0 01-2.266-.484 5.705 5.705 0 01-1.804-1.386 7.025 7.025 0 01-1.188-2.112c-.279-.821-.418-1.716-.418-2.684 0-.968.139-1.855.418-2.662.293-.821.689-1.525 1.188-2.112a5.576 5.576 0 011.804-1.408 5.09 5.09 0 012.266-.506c.807 0 1.555.169 2.244.506a5.285 5.285 0 011.804 1.408c.513.587.909 1.291 1.188 2.112.293.807.44 1.694.44 2.662zm-2.97 0c0-.587-.066-1.122-.198-1.606a3.928 3.928 0 00-.572-1.276 2.527 2.527 0 00-.858-.814 2.077 2.077 0 00-1.078-.286c-.411 0-.785.095-1.122.286a2.808 2.808 0 00-.858.814 4.23 4.23 0 00-.55 1.276 6.095 6.095 0 00-.198 1.606c0 .587.066 1.122.198 1.606s.315.902.55 1.254c.249.352.535.623.858.814.337.191.711.286 1.122.286.396 0 .755-.095 1.078-.286.337-.191.623-.462.858-.814.249-.352.44-.77.572-1.254a6.095 6.095 0 00.198-1.606zm16.484 0c0 .968-.147 1.863-.44 2.684a6.473 6.473 0 01-1.188 2.112 5.4 5.4 0 01-1.804 1.386 5.226 5.226 0 01-2.244.484 5.27 5.27 0 01-2.266-.484 5.693 5.693 0 01-1.804-1.386 7.025 7.025 0 01-1.188-2.112c-.279-.821-.418-1.716-.418-2.684 0-.968.139-1.855.418-2.662.293-.821.689-1.525 1.188-2.112a5.566 5.566 0 011.804-1.408 5.086 5.086 0 012.266-.506c.806 0 1.554.169 2.244.506a5.285 5.285 0 011.804 1.408c.513.587.909 1.291 1.188 2.112.293.807.44 1.694.44 2.662zm-2.97 0c0-.587-.066-1.122-.198-1.606a3.928 3.928 0 00-.572-1.276 2.527 2.527 0 00-.858-.814 2.077 2.077 0 00-1.078-.286c-.411 0-.785.095-1.122.286a2.808 2.808 0 00-.858.814 4.23 4.23 0 00-.55 1.276 6.095 6.095 0 00-.198 1.606c0 .587.066 1.122.198 1.606s.315.902.55 1.254c.249.352.535.623.858.814.337.191.711.286 1.122.286.396 0 .755-.095 1.078-.286.337-.191.623-.462.858-.814.249-.352.44-.77.572-1.254a6.095 6.095 0 00.198-1.606zm8.453-2.728a3.816 3.816 0 01-2.574-.968 3.64 3.64 0 01-.77-1.056 3.108 3.108 0 01-.286-1.32c0-.455.096-.887.286-1.298a3.28 3.28 0 01.77-1.056 3.816 3.816 0 012.574-.968c.499 0 .968.088 1.408.264a3.69 3.69 0 011.166.704c.323.293.58.645.77 1.056.191.411.286.843.286 1.298 0 .469-.095.909-.286 1.32-.19.396-.447.748-.77 1.056a3.69 3.69 0 01-1.166.704c-.44.176-.909.264-1.408.264zm0-1.474c.22 0 .418-.051.594-.154.191-.103.36-.235.506-.396.147-.176.257-.374.33-.594.088-.235.132-.477.132-.726 0-.513-.154-.946-.462-1.298-.308-.367-.674-.55-1.1-.55-.22 0-.425.051-.616.154a1.85 1.85 0 00-.484.418 1.886 1.886 0 00-.352.572c-.073.22-.11.455-.11.704 0 .513.154.953.462 1.32.308.367.675.55 1.1.55zm8.492 10.868a3.816 3.816 0 01-2.574-.968 3.357 3.357 0 01-.77-1.034 3.108 3.108 0 01-.286-1.32c0-.469.096-.902.286-1.298a3.28 3.28 0 01.77-1.056c.323-.308.704-.55 1.144-.726.44-.176.917-.264 1.43-.264.514 0 .99.088 1.43.264.44.176.822.418 1.144.726.338.293.594.645.77 1.056.191.396.286.829.286 1.298 0 .469-.095.909-.286 1.32a2.93 2.93 0 01-.77 1.034 3.813 3.813 0 01-2.574.968zm0-1.474c.22 0 .418-.051.594-.154.191-.103.36-.235.506-.396.147-.176.257-.374.33-.594a1.88 1.88 0 00.132-.704c0-.264-.044-.506-.132-.726a1.81 1.81 0 00-.352-.594 1.256 1.256 0 00-.484-.396 1.23 1.23 0 00-.594-.154c-.22 0-.425.051-.616.154a1.85 1.85 0 00-.484.418 1.828 1.828 0 00-.352.594c-.073.22-.11.455-.11.704 0 .513.154.953.462 1.32.308.352.675.528 1.1.528zm-10.89.22l6.204-7.238 5.72-7.524 1.342 1.188-6.006 7.106-5.918 7.656-1.342-1.188z" fill="#fff"/><path fill-rule="evenodd" clip-rule="evenodd" d="M204.083 164H84.673v.012C80.969 164.142 78 167.217 78 171c0 3.784 2.968 6.857 6.674 6.988V178h119.409c3.82 0 6.917-3.134 6.917-7s-3.097-7-6.917-7z" fill="#03E59F"/><path d="M266 58H95c-9.389 0-17 7.611-17 17v28c0 9.389 7.611 17 17 17h171c9.389 0 17-7.611 17-17V75c0-9.389-7.611-17-17-17z" fill="#fff"/><path d="M132.422 98.132l-.293.868c-8.607-3.162-13.204-13.081-10.218-22.226 2.987-9.144 12.356-13.949 20.963-10.818 6.559 2.387 11.009 8.865 11.126 16.212h-.908c-1.317-8.246-8.695-13.763-16.483-12.368-7.788 1.395-12.999 9.237-11.653 17.483.732 4.65 3.514 8.648 7.466 10.85z" fill="url(#paint0_linear_955_38123)"/><path d="M152.683 65.713l.308-.713c13.004 6.139 18.63 21.734 12.573 34.85-6.056 13.114-21.55 18.819-34.554 12.68-9.899-4.651-15.864-15.068-14.911-26.044l.831.093c.676 12.898 11.589 22.758 24.378 22.076 12.789-.683 22.565-11.69 21.889-24.587a23.45 23.45 0 00-10.514-18.355z" fill="url(#paint1_linear_955_38123)"/><path fill-rule="evenodd" clip-rule="evenodd" d="M212.012 65c6.163.016 11.293 3.408 13.634 8.706a15.54 15.54 0 011.223 4.563c.134 1.199.155 1.99.077 3.108-.377 5.418-3.224 10.156-7.704 13.525a.047.047 0 00.006.08l.385.215c3.151 1.768 5.702 3.614 7.661 5.715.135.145.267.291.396.438.021.024.06.024.081 0 .127-.148.258-.296.392-.442 1.938-2.118 4.471-3.985 7.603-5.781a69.935 69.935 0 013.737-1.98c.21-.103.462.038.463.26l.034 6.878a.294.294 0 01-.203.276c-4.83 1.705-8.272 6.033-8.454 9.134-.009.155-.147.276-.313.277l-6.47.028c-.19.001-.35-.137-.362-.315-.217-3.014-3.019-5.951-8.178-8.847a62.698 62.698 0 00-3.329-1.725c-.009-.004-.017-.01-.026-.013-1.894-.974-4.71-2.003-8.281-4.577-4.182-3.3-6.849-7.837-7.26-13.017-.088-1.117-.076-1.908.046-3.108.163-1.598.56-3.138 1.178-4.574 2.288-5.318 7.384-8.753 13.547-8.823h.029l.088-.001zm-9.524 33.1c1.479 1.104 3.33 2.137 5.555 3.102.332.144.362.547.054.727-4.34 2.533-6.692 5.056-6.888 7.654-.016.22-.226.391-.478.392l-6.247.025c-.272.001-.492-.194-.484-.431.104-3.018 1.508-5.774 3.944-8.258 1.119-1.14 2.431-2.205 3.938-3.223a.535.535 0 01.606.013zm9.498-26.522c-3.261.034-5.867 1.79-7.12 4.704a9.32 9.32 0 00-.7 2.74c-.085.84-.092 1.26-.034 1.996.351 4.426 3.294 8.192 7.918 10.422a.066.066 0 01.01.005.057.057 0 00.049 0l.011-.006c4.601-2.27 7.506-6.06 7.814-10.489.051-.736.04-1.157-.054-1.996a9.354 9.354 0 00-.727-2.734c-1.283-2.902-3.905-4.636-7.167-4.642z" fill="#005FF9"/></g><defs><linearGradient id="paint0_linear_955_38123" x1="137.506" y1="64.989" x2="137.506" y2="98.983" gradientUnits="userSpaceOnUse"><stop stop-color="#7A5FFF"/><stop offset=".609" stop-color="#927FF1"/><stop offset="1" stop-color="#01FF89"/></linearGradient><linearGradient id="paint1_linear_955_38123" x1="141.999" y1="65.029" x2="141.999" y2="115.01" gradientUnits="userSpaceOnUse"><stop stop-color="#7A5FFF"/><stop offset="1" stop-color="#01FF89"/></linearGradient><clipPath id="clip0_955_38123"><path fill="#fff" d="M0 0h366v241H0z"/></clipPath><filter id="filter0_d_955_38123" x="0" y=".301" width="365.777" height="240.699" filterUnits="userSpaceOnUse" color-interpolation-filters="sRGB"><feFlood flood-opacity="0" result="BackgroundImageFix"/><feColorMatrix in="SourceAlpha" values="0 0 0 0 0 0 0 0 0 0 0 0 0 0 0 0 0 0 127 0" result="hardAlpha"/><feOffset dy="2"/><feGaussianBlur stdDeviation="1.5"/><feColorMatrix values="0 0 0 0 0 0 0 0 0 0 0 0 0 0 0 0 0 0 0.15 0"/><feBlend in2="BackgroundImageFix" result="effect1_dropShadow_955_38123"/><feBlend in="SourceGraphic" in2="effect1_dropShadow_955_38123" result="shape"/></filter></defs></svg>