<svg width="366" height="241" fill="none" xmlns="http://www.w3.org/2000/svg"><g clip-path="url(#clip0_955_40143)"><g filter="url(#filter0_d_955_40143)"><mask id="mask0_955_40143" style="mask-type:alpha" maskUnits="userSpaceOnUse" x="39" y="1" width="288" height="223"><path fill-rule="evenodd" clip-rule="evenodd" d="M39.117 1.3H326.67v221.901H39.117V1.301z" fill="#fff"/></mask><g mask="url(#mask0_955_40143)"><path fill-rule="evenodd" clip-rule="evenodd" d="M326.669 214.655c0 4.729-3.621 8.546-8.073 8.546H47.186c-4.45 0-8.069-3.817-8.069-8.546V9.849c0-4.729 3.618-8.55 8.07-8.55h271.409c4.452 0 8.073 3.821 8.073 8.55v204.806z" fill="#fff"/></g><mask id="mask1_955_40143" style="mask-type:alpha" maskUnits="userSpaceOnUse" x="3" y="1" width="360" height="235"><path fill-rule="evenodd" clip-rule="evenodd" d="M3 236h359.778V1.3H3V236z" fill="#fff"/></mask><g mask="url(#mask1_955_40143)" fill-rule="evenodd" clip-rule="evenodd"><path d="M52 203.755h261.35V16H52v187.755z" fill="#191551"/><path d="M3 216.793C4.073 227.539 14.728 236 27.84 236h310.094c13.119 0 23.767-8.461 24.845-19.207H3z" fill="#EFEFEF"/><path d="M135.461 223.201h94.855v-6.409h-94.855v6.409z" fill="#CCC"/></g></g><mask id="mask2_955_40143" style="mask-type:alpha" maskUnits="userSpaceOnUse" x="68" y="37" width="103" height="82"><path fill-rule="evenodd" clip-rule="evenodd" d="M68 37h102.005v81.604H68V37z" fill="#fff"/></mask><g mask="url(#mask2_955_40143)"><path fill-rule="evenodd" clip-rule="evenodd" d="M157.616 40.489H87.959c-7.14 0-12.928 5.754-12.928 12.853v40.311c0 7.099 5.788 12.853 12.928 12.853h28.23c2.214 7.25 8.95 12.562 16.974 12.648a18.074 18.074 0 004.54-.528c-4.041-2.749-6.882-7.1-7.624-12.12h27.537c7.14 0 12.928-5.754 12.928-12.853V53.342c0-7.099-5.788-12.853-12.928-12.853z" fill="#1DAFF4"/></g><path fill-rule="evenodd" clip-rule="evenodd" d="M117.334 90.206c0-1.123.357-2.032 1.071-2.726.715-.694 1.621-1.04 2.717-1.04 1.13 0 2.053.346 2.768 1.04.714.694 1.072 1.603 1.072 2.726 0 1.124-.358 2.04-1.072 2.75-.715.71-1.638 1.066-2.768 1.066-1.096 0-2.002-.356-2.717-1.066-.714-.71-1.071-1.626-1.071-2.75zm.746-8.773c0-1.09.157-2.056.474-2.899.316-.843.714-1.611 1.196-2.305a16.217 16.217 0 011.571-1.933 30.4 30.4 0 001.57-1.785 9.852 9.852 0 001.196-1.858c.316-.644.474-1.363.474-2.156 0-1.222-.416-2.23-1.246-3.023-.831-.793-1.928-1.19-3.291-1.19-2.26 0-4.619 1.041-7.079 3.123v-5.898c2.659-1.85 5.484-2.776 8.475-2.776 1.463 0 2.8.224 4.014.67 1.212.446 2.251 1.065 3.116 1.858a8.413 8.413 0 012.018 2.825c.482 1.091.723 2.28.723 3.569 0 1.784-.366 3.32-1.096 4.61a22.877 22.877 0 01-2.443 3.518 75.7 75.7 0 00-2.444 3.023c-.731.96-1.096 2-1.096 3.123v1.14h-6.132v-1.636z" fill="#fff"/><path fill-rule="evenodd" clip-rule="evenodd" d="M135.844 145.195v14.308c0 2.519 2.054 4.561 4.588 4.561h10.019a6.366 6.366 0 006.025 4.489 6.432 6.432 0 001.611-.187 6.328 6.328 0 01-2.706-4.302h9.774c2.533 0 4.588-2.042 4.588-4.561v-14.308c0-2.519-2.055-4.561-4.588-4.561h-24.723c-2.534 0-4.588 2.042-4.588 4.561z" fill="#03E59F"/><path fill-rule="evenodd" clip-rule="evenodd" d="M143.113 151.748c0-1.115.909-2.017 2.029-2.017 1.121 0 2.03.902 2.03 2.017a2.024 2.024 0 01-2.03 2.017 2.023 2.023 0 01-2.029-2.017zm7.326 0c0-1.115.908-2.017 2.029-2.017s2.029.902 2.029 2.017a2.023 2.023 0 01-2.029 2.017 2.023 2.023 0 01-2.029-2.017zm7.32 0c0-1.115.909-2.017 2.029-2.017 1.121 0 2.029.902 2.029 2.017a2.023 2.023 0 01-2.029 2.017 2.023 2.023 0 01-2.029-2.017z" fill="#fff"/><mask id="mask3_955_40143" style="mask-type:alpha" maskUnits="userSpaceOnUse" x="213" y="82" width="101" height="92"><path fill-rule="evenodd" clip-rule="evenodd" d="M213.227 82.198H313.54v91.437H213.227V82.198z" fill="#fff"/></mask><g mask="url(#mask3_955_40143)"><path fill-rule="evenodd" clip-rule="evenodd" d="M309.219 82.198h-80.965c-8.3 0-15.027 6.688-15.027 14.94v46.856c0 8.251 6.727 14.939 15.027 14.939h32.007c-.862 5.835-4.164 10.892-8.862 14.088a21.06 21.06 0 005.277.613c9.327-.1 17.157-6.274 19.731-14.701h32.812c8.299 0 15.027-6.688 15.027-14.939V97.138c0-8.252-6.728-14.94-15.027-14.94z" fill="#FC3E54"/></g><mask id="mask4_955_40143" style="mask-type:alpha" maskUnits="userSpaceOnUse" x="100" y="54" width="214" height="145"><path fill-rule="evenodd" clip-rule="evenodd" d="M100 198.409h213.54V54.144H100V198.41z" fill="#fff"/></mask><g mask="url(#mask4_955_40143)" fill-rule="evenodd" clip-rule="evenodd"><path d="M237.305 139.09h62.864v-38.02h-62.864v38.02z" fill="#fff"/><path d="M300.169 101.071l-31.432 20.063-31.432-20.063h62.864z" fill="#EFEFEF"/></g></g><defs><clipPath id="clip0_955_40143"><path fill="#fff" d="M0 0h366v241H0z"/></clipPath><filter id="filter0_d_955_40143" x="0" y=".301" width="365.777" height="240.699" filterUnits="userSpaceOnUse" color-interpolation-filters="sRGB"><feFlood flood-opacity="0" result="BackgroundImageFix"/><feColorMatrix in="SourceAlpha" values="0 0 0 0 0 0 0 0 0 0 0 0 0 0 0 0 0 0 127 0" result="hardAlpha"/><feOffset dy="2"/><feGaussianBlur stdDeviation="1.5"/><feColorMatrix values="0 0 0 0 0 0 0 0 0 0 0 0 0 0 0 0 0 0 0.15 0"/><feBlend in2="BackgroundImageFix" result="effect1_dropShadow_955_40143"/><feBlend in="SourceGraphic" in2="effect1_dropShadow_955_40143" result="shape"/></filter></defs></svg>