<svg width="184" height="109" fill="none" xmlns="http://www.w3.org/2000/svg"><g filter="url(#filter0_d_955_40059)"><path fill-rule="evenodd" clip-rule="evenodd" d="M27.422 88.59h129.223V1H27.422v87.59z" fill="#191551"/><path d="M91.91 29.709c6.266-.776 10.716-6.469 9.938-12.716-.778-6.247-6.489-10.683-12.755-9.907-6.267.775-10.716 6.468-9.938 12.715.778 6.248 6.488 10.683 12.755 9.908z" fill="#03E59F"/><path d="M90.465 17.482a2.82 2.82 0 002.824-2.816 2.82 2.82 0 00-2.824-2.815 2.82 2.82 0 00-2.824 2.815 2.82 2.82 0 002.824 2.816z" fill="#fff"/><path d="M97.03 22.13c-.578-3.088-3.3-5.394-6.567-5.394-3.233 0-5.92 2.272-6.533 5.291 1.633 2.782 8.2 6.174 13.1.102zM121.069 78H59.931C57.219 78 55 76.481 55 74.625v-36.25C55 36.52 57.219 35 59.93 35h61.139c2.712 0 4.931 1.519 4.931 3.375V74.66c0 1.856-2.219 3.341-4.931 3.341z" fill="#fff"/><path fill-rule="evenodd" clip-rule="evenodd" d="M67.62 41.327c1.522.003 2.787.783 3.365 2.001.156.33.258.683.302 1.05.033.275.038.457.019.714-.093 1.246-.796 2.335-1.901 3.11-.007.005-.007.014.001.018l.095.05c.778.406 1.407.83 1.89 1.314l.099.1a.014.014 0 00.02 0 2.26 2.26 0 01.096-.101c.479-.487 1.104-.917 1.877-1.33.287-.153.583-.298.922-.455.051-.023.114.01.114.06l.008 1.581c0 .029-.02.054-.05.064-1.192.392-2.041 1.387-2.086 2.1-.002.036-.036.064-.077.064l-1.597.006c-.047 0-.086-.031-.09-.072-.053-.693-.744-1.368-2.017-2.034a15.797 15.797 0 00-.822-.397l-.006-.003c-.468-.224-1.162-.46-2.044-1.052-1.032-.759-1.69-1.802-1.791-2.993a3.308 3.308 0 01.011-.715c.04-.367.138-.721.29-1.051.565-1.223 1.823-2.013 3.344-2.03h.028zm-2.35 7.61a7.02 7.02 0 001.371.713c.082.033.09.126.013.168-1.07.582-1.65 1.162-1.7 1.76-.003.05-.055.09-.117.09l-1.542.005c-.067 0-.121-.044-.12-.099.026-.694.373-1.328.974-1.899.276-.262.6-.506.972-.74a.14.14 0 01.15.002zm2.344-6.098c-.805.008-1.448.412-1.757 1.082a2 2 0 00-.172.63c-.022.193-.023.29-.009.459.087 1.017.813 1.883 1.954 2.396l.003.001a.015.015 0 00.012 0l.002-.001c1.136-.522 1.853-1.394 1.928-2.412.013-.17.01-.266-.013-.459a2.027 2.027 0 00-.18-.629c-.316-.667-.963-1.066-1.768-1.067z" fill="#005FF9"/><path d="M79.362 48.57a.2.2 0 01-.061.147.23.23 0 01-.168.063h-.572a.234.234 0 01-.162-.06.196.196 0 01-.067-.15v-3.96c0-.06.02-.112.062-.153a.23.23 0 01.167-.063h.539c.11 0 .199.052.26.15l1.224 2.075 1.224-2.077a.296.296 0 01.26-.148h.532c.067 0 .124.02.169.062.044.04.067.093.067.154v3.962a.193.193 0 01-.069.153.251.251 0 01-.167.056h-.572a.234.234 0 01-.162-.06.196.196 0 01-.067-.15v-2.36l-.794 1.379a.306.306 0 01-.281.169h-.28a.331.331 0 01-.287-.168l-.795-1.38v2.36zm6.195.271c-.62 0-1.105-.145-1.451-.437-.349-.293-.522-.734-.522-1.318v-2.477c0-.06.02-.112.062-.153a.23.23 0 01.167-.063h.612a.24.24 0 01.17.062c.044.04.066.093.066.154v2.477c0 .306.078.532.231.68.152.15.37.224.658.224.288 0 .506-.075.658-.223.153-.15.23-.376.23-.681v-2.477a.2.2 0 01.068-.154.243.243 0 01.169-.062h.612a.23.23 0 01.167.063c.041.04.062.093.062.153v2.477c0 .584-.172 1.025-.518 1.318-.345.292-.826.437-1.441.437zm5.83-.918c.068 0 .125.02.17.061.044.04.067.091.067.149v.438a.196.196 0 01-.067.148.243.243 0 01-.17.061h-2.894a.234.234 0 01-.162-.06.196.196 0 01-.067-.15v-3.967a.19.19 0 01.07-.153.242.242 0 01.16-.057h.625c.066 0 .123.02.165.059.043.038.064.09.064.15v3.321h2.04zm1.989.648a.2.2 0 01-.062.146.231.231 0 01-.167.063h-.626a.234.234 0 01-.162-.06.196.196 0 01-.067-.15v-3.29h-1.161a.234.234 0 01-.162-.06.202.202 0 01-.067-.155v-.456c0-.06.02-.112.061-.153a.23.23 0 01.168-.063h3.4a.24.24 0 01.169.062c.044.04.066.093.066.154v.456a.202.202 0 01-.066.155.243.243 0 01-.17.06h-1.154v3.29zm2.32.21a.234.234 0 01-.163-.062.196.196 0 01-.067-.148v-3.968a.19.19 0 01.07-.153.242.242 0 01.16-.057h.638a.24.24 0 01.166.059c.042.038.063.09.063.15v3.969a.2.2 0 01-.062.146.231.231 0 01-.167.063h-.639zm4.779-.858c.067 0 .124.02.169.061.044.04.067.091.067.149v.438a.196.196 0 01-.067.148.244.244 0 01-.169.061h-2.894a.234.234 0 01-.163-.06.196.196 0 01-.066-.15v-3.967c0-.062.023-.114.068-.153a.242.242 0 01.16-.057h.626c.066 0 .123.02.165.059.043.038.064.09.064.15v3.321h2.04zm2.628.918c-.624 0-1.113-.145-1.464-.436-.352-.293-.537-.725-.555-1.293a13.548 13.548 0 01-.007-.52c0-.231.002-.406.007-.524.018-.556.207-.986.568-1.287.36-.3.845-.448 1.451-.448.602 0 1.085.149 1.447.448.363.3.554.73.572 1.286.009.236.013.411.013.526 0 .11-.004.283-.013.519-.018.568-.204 1-.559 1.293-.353.291-.841.436-1.46.436zm0-.833c.279 0 .496-.075.656-.224.159-.15.247-.384.259-.706.009-.243.014-.407.014-.491 0-.093-.005-.256-.014-.49-.012-.319-.102-.552-.266-.704-.163-.152-.379-.228-.649-.228-.275 0-.492.076-.656.228-.163.151-.251.385-.26.703-.004.117-.006.28-.006.49 0 .207.002.37.006.492.009.318.095.551.257.703.161.151.38.227.659.227zm4.773-.987a.233.233 0 01-.162-.06.196.196 0 01-.067-.149v-.335c0-.057.023-.108.067-.148a.233.233 0 01.162-.061h1.597a.24.24 0 01.169.061c.044.04.067.09.067.148v.645c0 .348-.085.653-.256.912-.171.26-.415.46-.728.6a2.666 2.666 0 01-1.089.207c-.628 0-1.121-.15-1.474-.449-.354-.3-.541-.718-.564-1.25a15.397 15.397 0 01-.007-.567c0-.26.002-.45.007-.568.018-.52.207-.93.568-1.23.36-.297.851-.444 1.47-.444.419 0 .78.065 1.085.197.305.132.537.297.695.495.159.198.243.395.253.594 0 .053-.021.1-.06.136a.226.226 0 01-.156.055h-.699a.238.238 0 01-.143-.038.278.278 0 01-.081-.106.797.797 0 00-.303-.355c-.142-.097-.338-.146-.591-.146-.293 0-.519.07-.68.211-.161.14-.247.36-.255.665-.004.117-.007.295-.007.534 0 .234.003.412.007.534.009.313.096.54.258.683.164.144.391.216.684.216.299 0 .536-.072.713-.215.174-.141.263-.355.263-.646v-.126h-.743zm2.657 1.76a.235.235 0 01-.162-.062.196.196 0 01-.067-.148v-3.968c0-.062.023-.114.069-.153a.242.242 0 01.16-.057h.639a.24.24 0 01.166.059c.042.038.063.09.063.15v3.969a.2.2 0 01-.062.146.23.23 0 01-.167.063h-.639zm2.687-.21a.2.2 0 01-.062.146.23.23 0 01-.167.063h-.572a.238.238 0 01-.163-.06.199.199 0 01-.066-.15v-3.96c0-.06.02-.112.062-.153a.229.229 0 01.167-.063h.519c.109 0 .196.047.251.133l1.775 2.52V44.61a.21.21 0 01.062-.153.232.232 0 01.167-.063h.573c.066 0 .124.02.168.062a.2.2 0 01.067.154v3.956a.2.2 0 01-.067.154.233.233 0 01-.162.061h-.525a.29.29 0 01-.258-.132l-1.769-2.464v2.387z" fill="#191551"/><path d="M105.881 62.006H75.086c-2.212 0-4.016-1.798-4.016-4.003S72.874 54 75.086 54h30.795c2.212 0 4.015 1.798 4.015 4.003s-1.803 4.003-4.015 4.003z" fill="#C2DAEA"/><path d="M77.843 56.68h-1.498c-.748 0-1.36.61-1.36 1.357v1.492c0 .747.612 1.357 1.36 1.357h1.498c.748 0 1.36-.61 1.36-1.357v-1.492c0-.746-.612-1.357-1.36-1.357zm-.205 2.646a.537.537 0 01-.544.543.537.537 0 01-.544-.543v-1.018c0-.305.238-.542.544-.542.306 0 .544.237.544.542v1.018z" fill="#fff"/><path d="M78.351 57.63h-2.484V56c0-.474.374-.848.85-.848h.784a.84.84 0 01.85.848v1.629zm-2.178-.34h1.838v-1.289a.537.537 0 00-.544-.542h-.783a.537.537 0 00-.545.542v1.29h.034z" fill="#fff"/><path d="M95.47 73.404h-9.936a4.031 4.031 0 01-4.05-4.037 4.031 4.031 0 014.05-4.037h9.936a4.031 4.031 0 014.05 4.037c0 2.239-1.838 4.037-4.05 4.037z" fill="#FB3D81"/><path d="M94.45 68.281h-7.86v2.171h7.86v-2.17z" fill="#fff"/><path d="M116.822 32.358c4.788-.592 8.188-4.942 7.593-9.715-.594-4.774-4.958-8.163-9.746-7.57-4.788.592-8.187 4.942-7.593 9.715.595 4.774 4.958 8.163 9.746 7.57z" fill="#7F65FC"/><path d="M115.72 23.017a2.155 2.155 0 002.158-2.152 2.155 2.155 0 00-2.158-2.151 2.155 2.155 0 00-2.158 2.151c0 1.188.967 2.152 2.158 2.152z" fill="#fff"/><path d="M120.729 26.567c-.442-2.359-2.522-4.121-5.018-4.121-2.47 0-4.524 1.736-4.992 4.043 1.248 2.126 6.266 4.717 10.01.078z" fill="#fff"/><path d="M65.822 32.358c4.788-.592 8.188-4.942 7.593-9.715-.594-4.774-4.958-8.163-9.746-7.57-4.787.592-8.187 4.942-7.593 9.715.595 4.774 4.958 8.163 9.746 7.57z" fill="#7F65FC"/><path d="M64.72 23.017a2.155 2.155 0 002.158-2.152 2.155 2.155 0 00-2.157-2.151 2.155 2.155 0 00-2.159 2.151c0 1.188.967 2.152 2.159 2.152z" fill="#fff"/><path d="M69.729 26.567c-.442-2.359-2.522-4.121-5.018-4.121-2.47 0-4.524 1.736-4.992 4.043 1.248 2.126 6.266 4.717 10.01.078z" fill="#fff"/><mask id="mask0_955_40059" style="mask-type:alpha" maskUnits="userSpaceOnUse" x="3" y="94" width="178" height="10"><path fill-rule="evenodd" clip-rule="evenodd" d="M3 94.561h177.89v8.96H3v-8.96z" fill="#fff"/></mask><g mask="url(#mask0_955_40059)"><path fill-rule="evenodd" clip-rule="evenodd" d="M3 94.561c.53 5.013 5.799 8.96 12.282 8.96h153.324c6.487 0 11.752-3.947 12.285-8.96H3z" fill="#EFEFEF"/></g><path fill-rule="evenodd" clip-rule="evenodd" d="M68.496 97.55h46.901v-2.99h-46.9v2.99z" fill="#CCC"/></g><defs><filter id="filter0_d_955_40059" x="0" y="0" width="183.891" height="108.521" filterUnits="userSpaceOnUse" color-interpolation-filters="sRGB"><feFlood flood-opacity="0" result="BackgroundImageFix"/><feColorMatrix in="SourceAlpha" values="0 0 0 0 0 0 0 0 0 0 0 0 0 0 0 0 0 0 127 0" result="hardAlpha"/><feOffset dy="2"/><feGaussianBlur stdDeviation="1.5"/><feComposite in2="hardAlpha" operator="out"/><feColorMatrix values="0 0 0 0 0 0 0 0 0 0 0 0 0 0 0 0 0 0 0.15 0"/><feBlend in2="BackgroundImageFix" result="effect1_dropShadow_955_40059"/><feBlend in="SourceGraphic" in2="effect1_dropShadow_955_40059" result="shape"/></filter></defs></svg>