<svg width="184" height="117" fill="none" xmlns="http://www.w3.org/2000/svg"><g filter="url(#filter0_d_955_39988)"><path fill-rule="evenodd" clip-rule="evenodd" d="M163.033 101.123a3.988 3.988 0 01-3.991 3.987H24.845a3.988 3.988 0 01-3.99-3.987V5.578a3.988 3.988 0 013.99-3.988h134.197a3.99 3.99 0 013.991 3.988v95.545z" fill="#fff"/><path fill-rule="evenodd" clip-rule="evenodd" d="M27.422 96.15h129.223V8.56H27.422v87.59z" fill="#191551"/><mask id="mask0_955_39988" style="mask-type:alpha" maskUnits="userSpaceOnUse" x="3" y="102" width="178" height="10"><path fill-rule="evenodd" clip-rule="evenodd" d="M3 102.121h177.89v8.96H3v-8.96z" fill="#fff"/></mask><g mask="url(#mask0_955_39988)"><path fill-rule="evenodd" clip-rule="evenodd" d="M3 102.121c.53 5.013 5.799 8.96 12.282 8.96h153.324c6.487 0 11.752-3.947 12.285-8.96H3z" fill="#EFEFEF"/></g><path fill-rule="evenodd" clip-rule="evenodd" d="M68.496 105.11h46.901v-2.989h-46.9v2.989z" fill="#CCC"/><g clip-path="url(#clip0_955_39988)"><path d="M45.726 22h92.548c.458 0 .897.18 1.22.5.324.32.506.755.506 1.208v6.561H44v-6.56a1.7 1.7 0 01.505-1.209c.324-.32.763-.5 1.22-.5z" fill="#2F2A7A"/><path d="M58.406 26.135c0 .274.082.541.236.769a1.412 1.412 0 002.152.21 1.38 1.38 0 00.303-1.51 1.387 1.387 0 00-.515-.62 1.408 1.408 0 00-2.07.62 1.37 1.37 0 00-.106.53z" fill="#7C9BE3"/><path d="M53.945 26.135c0 .274.082.541.236.769a1.412 1.412 0 002.152.21 1.38 1.38 0 00.303-1.51 1.387 1.387 0 00-.515-.62 1.41 1.41 0 00-1.766.172 1.383 1.383 0 00-.41.979z" fill="#FED512"/><path d="M49.484 26.135c0 .274.082.541.236.769a1.412 1.412 0 002.152.21 1.38 1.38 0 00.303-1.51 1.387 1.387 0 00-.515-.62 1.409 1.409 0 00-2.07.62c-.07.169-.106.349-.106.53z" fill="#7C9BE3"/><path d="M44 30.27h96v51.022c0 .453-.182.887-.506 1.207-.323.32-.762.5-1.22.5H45.726c-.458 0-.897-.18-1.22-.5A1.7 1.7 0 0144 81.293V30.268z" fill="#fff"/><path d="M130.401 24.563H68.285v3.144h62.116v-3.145z" fill="#544EA0"/></g></g><g clip-path="url(#clip1_955_39988)"><path d="M107.142 57.559l-.411-.34c-1.04-.859-2.624-.75-3.525.242l-2.333 2.57c-.332.368-.967.143-.967-.346 0-.202-.012-.404-.036-.605V42.907c0-1.06-.913-1.93-2.025-1.93h-.152c-1.112 0-2.025.87-2.025 1.93v10.526a.474.474 0 01-.483.461.527.527 0 01-.538-.513V40.867c0-1.026-.883-1.867-1.959-1.867h-.284c-1.076 0-1.958.841-1.958 1.867v12.6c0 .237-.2.427-.448.427a.561.561 0 01-.574-.547V43.304c0-1.06-.913-1.93-2.025-1.93h-.151c-1.112 0-2.025.87-2.025 1.93v10.123a.474.474 0 01-.484.461.52.52 0 01-.532-.507v-7.916c0-1.06-.912-1.93-2.025-1.93h-.15c-1.12-.006-2.032.864-2.032 1.93v13.908c0 .04 0 .075.006.116 0 .063-.006.127-.006.196v7.657C80 70.453 82.672 73 85.936 73h8.034c2.085 0 3.935-1.043 4.993-2.604.32-.473.665-.928 1.052-1.354l7.381-8.124a2.32 2.32 0 00-.254-3.36z" fill="#191551"/></g><path d="M92 79c-4.549 0-8.996-1.32-12.778-3.792A22.615 22.615 0 0170.75 65.11a22.047 22.047 0 01-1.31-13 22.353 22.353 0 016.296-11.52 23.163 23.163 0 0111.776-6.158 23.477 23.477 0 0113.289 1.28A22.901 22.901 0 01111.124 44 22.155 22.155 0 01115 56.5c-.007 5.965-2.432 11.684-6.744 15.902C103.944 76.621 98.098 78.993 92 79zm0-40.538a18.732 18.732 0 00-10.244 3.04 18.13 18.13 0 00-6.791 8.095 17.674 17.674 0 00-1.05 10.422 17.92 17.92 0 005.047 9.236 18.57 18.57 0 009.44 4.937 18.82 18.82 0 0010.654-1.027 18.354 18.354 0 008.275-6.644 17.754 17.754 0 003.108-10.021c-.005-4.782-1.95-9.367-5.407-12.749-3.456-3.382-8.143-5.284-13.032-5.29z" fill="#FB3D81"/><path d="M105.122 40.414l-29.29 28.531 3.173 3.192 29.29-28.53-3.173-3.193z" fill="#FB3D81"/><defs><clipPath id="clip0_955_39988"><path fill="#fff" transform="translate(44 22)" d="M0 0h96v61H0z"/></clipPath><clipPath id="clip1_955_39988"><path fill="#fff" transform="translate(80 39)" d="M0 0h28v34H0z"/></clipPath><filter id="filter0_d_955_39988" x="0" y=".59" width="183.891" height="115.491" filterUnits="userSpaceOnUse" color-interpolation-filters="sRGB"><feFlood flood-opacity="0" result="BackgroundImageFix"/><feColorMatrix in="SourceAlpha" values="0 0 0 0 0 0 0 0 0 0 0 0 0 0 0 0 0 0 127 0" result="hardAlpha"/><feOffset dy="2"/><feGaussianBlur stdDeviation="1.5"/><feColorMatrix values="0 0 0 0 0 0 0 0 0 0 0 0 0 0 0 0 0 0 0.15 0"/><feBlend in2="BackgroundImageFix" result="effect1_dropShadow_955_39988"/><feBlend in="SourceGraphic" in2="effect1_dropShadow_955_39988" result="shape"/></filter></defs></svg>