<svg width="184" height="116" fill="none" xmlns="http://www.w3.org/2000/svg"><g filter="url(#filter0_d_955_40018)"><path fill-rule="evenodd" clip-rule="evenodd" d="M163.033 100.533a3.988 3.988 0 01-3.991 3.987H24.845a3.988 3.988 0 01-3.99-3.987V4.988A3.988 3.988 0 0124.846 1h134.197a3.99 3.99 0 013.991 3.988v95.545z" fill="#fff"/><path fill-rule="evenodd" clip-rule="evenodd" d="M27.422 95.56h129.223V7.97H27.422v87.59z" fill="#191551"/><mask id="mask0_955_40018" style="mask-type:alpha" maskUnits="userSpaceOnUse" x="3" y="101" width="178" height="10"><path fill-rule="evenodd" clip-rule="evenodd" d="M3 101.531h177.89v8.96H3v-8.96z" fill="#fff"/></mask><g mask="url(#mask0_955_40018)"><path fill-rule="evenodd" clip-rule="evenodd" d="M3 101.531c.53 5.013 5.799 8.96 12.282 8.96h153.324c6.487 0 11.752-3.947 12.285-8.96H3z" fill="#EFEFEF"/></g><path fill-rule="evenodd" clip-rule="evenodd" d="M68.496 104.52h46.901v-2.99h-46.9v2.99z" fill="#CCC"/><circle cx="67.5" cy="51.5" r="26.5" fill="#0A0925"/><path d="M60.345 58.31l-.24.69c-7.042-2.51-10.803-10.388-8.36-17.65 2.444-7.261 10.11-11.077 17.152-8.59 5.366 1.895 9.007 7.04 9.103 12.873h-.743c-1.078-6.547-7.114-10.93-13.486-9.821-6.372 1.107-10.636 7.335-9.534 13.883a11.97 11.97 0 006.108 8.616z" fill="url(#paint0_linear_955_40018)"/><path d="M76.629 32.57l.248-.57c10.503 4.911 15.047 17.387 10.156 27.88-4.892 10.491-17.407 15.055-27.91 10.144A20.972 20.972 0 0147.08 49.19l.67.074c.547 10.319 9.362 18.206 19.691 17.66 10.33-.545 18.226-9.35 17.68-19.669a18.724 18.724 0 00-8.492-14.683z" fill="url(#paint1_linear_955_40018)"/><circle cx="110.5" cy="51.5" r="26.5" fill="#fff"/><path fill-rule="evenodd" clip-rule="evenodd" d="M108.488 32c4.957.013 9.083 2.726 10.967 6.965.508 1.144.839 2.373.983 3.65.108.96.125 1.592.062 2.486-.303 4.335-2.593 8.125-6.197 10.82a.038.038 0 00.005.065l.31.172c2.534 1.414 4.586 2.89 6.162 4.571.109.116.215.233.319.35.017.02.048.02.065 0 .102-.118.207-.236.315-.352 1.559-1.695 3.596-3.189 6.116-4.625a55.832 55.832 0 013.006-1.584c.168-.083.371.03.372.207l.027 5.503a.237.237 0 01-.163.221c-3.885 1.364-6.654 4.826-6.8 7.307-.007.124-.118.221-.252.222l-5.204.022c-.153 0-.281-.11-.292-.252-.174-2.411-2.427-4.76-6.577-7.078-.82-.457-1.68-.898-2.678-1.38l-.021-.01c-1.523-.779-3.788-1.602-6.661-3.661-3.363-2.64-5.508-6.27-5.84-10.414a12.267 12.267 0 01.038-2.486c.131-1.279.45-2.51.947-3.66 1.84-4.255 5.94-7.002 10.896-7.058h.024l.071-.001zm-7.661 26.48c1.19.883 2.679 1.71 4.469 2.482.267.115.291.437.043.581-3.491 2.027-5.383 4.045-5.54 6.123-.014.176-.182.313-.385.314L94.39 68c-.218 0-.395-.155-.389-.345.083-2.414 1.213-4.62 3.173-6.606.9-.913 1.955-1.764 3.167-2.579a.431.431 0 01.487.01zm7.64-21.218c-2.623.028-4.719 1.433-5.727 3.763a7.436 7.436 0 00-.563 2.193c-.069.672-.074 1.008-.027 1.597.282 3.54 2.649 6.553 6.368 8.337.003 0 .006.002.009.004a.045.045 0 00.039 0l.009-.004c3.7-1.816 6.037-4.849 6.285-8.392.041-.589.032-.925-.044-1.596a7.381 7.381 0 00-.585-2.188c-1.031-2.322-3.14-3.709-5.764-3.714z" fill="#005FF9"/></g><defs><linearGradient id="paint0_linear_955_40018" x1="64.505" y1="31.991" x2="64.505" y2="58.986" gradientUnits="userSpaceOnUse"><stop stop-color="#7A5FFF"/><stop offset=".609" stop-color="#927FF1"/><stop offset="1" stop-color="#01FF89"/></linearGradient><linearGradient id="paint1_linear_955_40018" x1="67.999" y1="32.023" x2="67.999" y2="72.008" gradientUnits="userSpaceOnUse"><stop stop-color="#7A5FFF"/><stop offset="1" stop-color="#01FF89"/></linearGradient><filter id="filter0_d_955_40018" x="0" y="0" width="183.891" height="115.491" filterUnits="userSpaceOnUse" color-interpolation-filters="sRGB"><feFlood flood-opacity="0" result="BackgroundImageFix"/><feColorMatrix in="SourceAlpha" values="0 0 0 0 0 0 0 0 0 0 0 0 0 0 0 0 0 0 127 0" result="hardAlpha"/><feOffset dy="2"/><feGaussianBlur stdDeviation="1.5"/><feColorMatrix values="0 0 0 0 0 0 0 0 0 0 0 0 0 0 0 0 0 0 0.15 0"/><feBlend in2="BackgroundImageFix" result="effect1_dropShadow_955_40018"/><feBlend in="SourceGraphic" in2="effect1_dropShadow_955_40018" result="shape"/></filter></defs></svg>