<svg width="262" height="24" fill="none" xmlns="http://www.w3.org/2000/svg"><path fill-rule="evenodd" clip-rule="evenodd" d="M9.324.713c3.07.008 5.625 1.71 6.791 4.367.315.718.52 1.489.609 2.29.067.6.077.998.038 1.558-.187 2.718-1.605 5.095-3.837 6.785a.024.024 0 00.003.04l.192.108c1.57.887 2.84 1.813 3.816 2.867.067.073.133.146.197.22.01.012.03.012.04 0a9.07 9.07 0 01.196-.222c.965-1.063 2.227-2 3.787-2.9.58-.335 1.177-.651 1.861-.993.105-.052.23.02.231.13l.017 3.45a.15.15 0 01-.101.14c-2.406.854-4.12 3.025-4.211 4.581a.154.154 0 01-.156.14l-3.223.013a.176.176 0 01-.18-.158c-.108-1.512-1.504-2.985-4.074-4.438a30.872 30.872 0 00-1.658-.865l-.013-.007c-.943-.488-2.346-1.005-4.125-2.296-2.083-1.655-3.411-3.931-3.616-6.53a7.788 7.788 0 01.023-1.559 7.849 7.849 0 01.586-2.294C3.657 2.472 6.196.748 9.265.713h.059zM4.58 17.318c.736.553 1.658 1.072 2.767 1.556.165.072.18.274.026.364-2.161 1.271-3.333 2.537-3.43 3.84-.009.11-.113.196-.239.197l-3.111.012c-.136 0-.245-.097-.241-.216.051-1.514.75-2.897 1.964-4.143a12.69 12.69 0 011.962-1.617.265.265 0 01.302.007zM9.31 4.013c-1.624.017-2.922.898-3.546 2.36-.18.423-.3.886-.349 1.374a4.735 4.735 0 00-.017 1.002c.176 2.22 1.641 4.109 3.944 5.228l.006.002a.028.028 0 00.024 0 .081.081 0 01.005-.003c2.292-1.139 3.74-3.04 3.893-5.262.025-.37.02-.58-.027-1a4.696 4.696 0 00-.363-1.373c-.638-1.455-1.945-2.325-3.57-2.328z" fill="#005FF9"/><path d="M33.025 16.518a.447.447 0 01-.462.457h-1.155a.453.453 0 01-.328-.133.443.443 0 01-.135-.324V7.874a.447.447 0 01.462-.47h1.088c.223 0 .402.112.527.325l2.469 4.528 2.47-4.532c.123-.209.303-.321.525-.321h1.075a.458.458 0 01.476.47v8.644a.436.436 0 01-.14.334.483.483 0 01-.337.123h-1.155a.453.453 0 01-.327-.133.443.443 0 01-.135-.324v-5.15l-1.602 3.008c-.121.24-.316.369-.568.369h-.564c-.241 0-.437-.126-.58-.366l-1.604-3.01v5.15zm12.504.59c-1.251 0-2.23-.316-2.93-.953-.703-.64-1.052-1.601-1.052-2.877V7.874a.447.447 0 01.462-.47h1.236a.458.458 0 01.476.47v5.404c0 .667.157 1.16.466 1.486.307.324.747.487 1.328.487.581 0 1.021-.163 1.328-.487.31-.325.466-.819.466-1.486V7.874a.458.458 0 01.476-.47h1.236a.447.447 0 01.462.47v5.404c0 1.275-.347 2.237-1.046 2.877-.695.637-1.667.953-2.908.953zm11.77-2.003a.47.47 0 01.34.134.443.443 0 01.136.323v.956a.443.443 0 01-.135.324.47.47 0 01-.341.133h-5.843a.453.453 0 01-.327-.133.443.443 0 01-.135-.324V7.861c0-.134.046-.249.139-.334a.466.466 0 01.323-.123h1.263a.46.46 0 01.334.127.448.448 0 01.128.33v7.244h4.118zm4.013 1.413a.447.447 0 01-.462.457h-1.263a.454.454 0 01-.328-.133.443.443 0 01-.135-.324V9.34H56.78a.458.458 0 01-.462-.47v-.996a.447.447 0 01.462-.47h6.864a.458.458 0 01.476.47v.996a.458.458 0 01-.476.47h-2.331v7.178zm4.681.457a.454.454 0 01-.327-.133.443.443 0 01-.135-.324V7.861a.44.44 0 01.139-.334.466.466 0 01.323-.123h1.29a.46.46 0 01.334.127.448.448 0 01.128.33v8.657a.447.447 0 01-.462.457h-1.29zm9.648-1.87a.47.47 0 01.341.134c.09.088.135.198.135.323v.956a.442.442 0 01-.135.324.47.47 0 01-.34.133h-5.843a.453.453 0 01-.327-.133.443.443 0 01-.135-.324V7.861c0-.134.046-.249.138-.334a.466.466 0 01.324-.123h1.262c.135 0 .248.042.334.127a.446.446 0 01.129.33v7.244h4.117zm5.305 2.003c-1.26 0-2.246-.316-2.955-.952-.711-.638-1.084-1.581-1.12-2.82-.01-.258-.014-.636-.014-1.133 0-.506.005-.888.014-1.146.037-1.213.418-2.151 1.147-2.807.726-.653 1.704-.979 2.928-.979 1.215 0 2.19.326 2.921.979.733.655 1.117 1.594 1.154 2.806.018.515.027.897.027 1.147 0 .24-.009.619-.027 1.133-.037 1.239-.411 2.182-1.127 2.82-.713.636-1.698.952-2.948.952zm0-1.817c.564 0 1.002-.163 1.323-.49.322-.325.499-.838.525-1.54.017-.53.027-.887.027-1.071 0-.202-.01-.56-.027-1.07-.025-.695-.207-1.204-.537-1.535-.33-.331-.766-.497-1.311-.497-.555 0-.994.166-1.324.497-.33.33-.507.84-.524 1.534a32.09 32.09 0 00-.014 1.07c0 .45.005.808.014 1.073.017.694.192 1.203.517 1.533.327.33.767.496 1.33.496zm9.635-2.153a.452.452 0 01-.327-.133.442.442 0 01-.135-.324v-.73c0-.126.045-.236.135-.324a.452.452 0 01.327-.133h3.223c.135 0 .251.044.34.133a.44.44 0 01.136.324v1.407c0 .76-.172 1.423-.517 1.99a3.392 3.392 0 01-1.47 1.308c-.628.302-1.36.452-2.196.452-1.269 0-2.263-.325-2.976-.98-.714-.655-1.093-1.566-1.14-2.725-.008-.259-.013-.672-.013-1.24s.004-.98.014-1.24c.037-1.133.419-2.03 1.147-2.68.726-.649 1.718-.972 2.968-.972.844 0 1.574.144 2.189.432.615.288 1.084.647 1.403 1.079.32.432.49.863.51 1.296a.407.407 0 01-.121.297.431.431 0 01-.314.12h-1.41a.455.455 0 01-.29-.083.597.597 0 01-.163-.232 1.719 1.719 0 00-.611-.774c-.287-.21-.683-.318-1.193-.318-.593 0-1.049.154-1.374.46-.324.304-.497.785-.514 1.451-.009.255-.014.643-.014 1.164 0 .512.005.9.014 1.165.017.684.192 1.178.52 1.49.331.315.79.473 1.381.473.604 0 1.081-.157 1.439-.47.352-.307.53-.774.53-1.41v-.273h-1.498zm5.363 3.837a.452.452 0 01-.327-.133.442.442 0 01-.135-.324V7.861a.44.44 0 01.139-.334.465.465 0 01.323-.123h1.29a.46.46 0 01.334.127.448.448 0 01.128.33v8.657a.447.447 0 01-.462.457h-1.29zm5.423-.457a.444.444 0 01-.462.457H99.75a.455.455 0 01-.463-.457V7.874a.446.446 0 01.463-.47h1.048c.22 0 .395.102.507.29l3.584 5.5v-5.32c0-.13.041-.244.124-.333a.448.448 0 01.338-.137h1.155a.457.457 0 01.475.47v8.631a.458.458 0 01-.462.47h-1.061a.577.577 0 01-.52-.288l-3.571-5.376v5.207zm91.509.095c-1.409 1.558-3.025 2.338-4.847 2.338a6.107 6.107 0 01-2.839-.672 7.67 7.67 0 01-2.242-1.775 8.567 8.567 0 01-1.473-2.489 8.052 8.052 0 01-.534-2.879c0-1.025.171-2.006.513-2.944.356-.938.84-1.76 1.452-2.468a6.974 6.974 0 012.22-1.71 6.228 6.228 0 012.818-.65c.74 0 1.409.087 2.007.26a5.52 5.52 0 011.622.693c.484.289.904.642 1.26 1.06.356.405.655.852.897 1.343l-1.153.78c-.498-.953-1.146-1.653-1.943-2.1-.797-.448-1.701-.672-2.711-.672-.84 0-1.602.18-2.285.542a5.59 5.59 0 00-1.729 1.45 6.567 6.567 0 00-1.089 2.056 7.452 7.452 0 00-.384 2.382c0 .866.142 1.688.427 2.467.299.78.704 1.465 1.217 2.057a6.012 6.012 0 001.793 1.385 5.02 5.02 0 002.263.52 5.33 5.33 0 002.477-.606c.783-.419 1.537-1.068 2.263-1.949v-2.576h-3.352v-1.168h4.633v7.554h-1.281v-2.23zm8.938 2.446a5.462 5.462 0 01-2.241-.455 5.657 5.657 0 01-1.772-1.277 6.253 6.253 0 01-1.175-1.883 6.318 6.318 0 01-.405-2.273c0-.794.135-1.537.405-2.23a5.716 5.716 0 011.175-1.84 5.436 5.436 0 011.75-1.255 5.258 5.258 0 012.242-.477c.811 0 1.551.16 2.22.477a5.144 5.144 0 011.751 1.255 5.929 5.929 0 011.132 1.84c.27.693.405 1.429.405 2.208 0 .116-.007.231-.021.347a.897.897 0 01-.021.238h-9.501a5.06 5.06 0 00.406 1.688c.242.505.541.945.896 1.32.37.376.79.672 1.26.888a3.95 3.95 0 001.537.303c.37 0 .733-.05 1.089-.151a4.28 4.28 0 00.982-.412 3.39 3.39 0 00.79-.628c.242-.26.427-.54.555-.844l1.26.347c-.171.418-.413.8-.726 1.147a5.546 5.546 0 01-1.089.887 5.256 5.256 0 01-1.366.563 5.505 5.505 0 01-1.538.217zm4.1-6.451a4.383 4.383 0 00-.427-1.645 4.212 4.212 0 00-.897-1.299 3.813 3.813 0 00-1.26-.844 3.949 3.949 0 00-1.537-.303c-.541 0-1.053.1-1.537.303a4.054 4.054 0 00-1.281.844 4.39 4.39 0 00-.875 1.299 5.143 5.143 0 00-.385 1.645h8.199zm8.367 6.451a5.464 5.464 0 01-2.242-.455 5.743 5.743 0 01-1.751-1.277 5.847 5.847 0 01-1.131-1.862 6.177 6.177 0 01-.406-2.23c0-.793.135-1.543.406-2.25a6.167 6.167 0 011.153-1.862 5.727 5.727 0 011.75-1.277 5.209 5.209 0 012.221-.477c.797 0 1.53.16 2.199.477a5.41 5.41 0 011.75 1.277 5.645 5.645 0 011.153 1.861 5.97 5.97 0 01.427 2.252c0 .779-.142 1.522-.427 2.23a5.644 5.644 0 01-1.153 1.861 5.409 5.409 0 01-1.75 1.277 5.266 5.266 0 01-2.199.455zm-4.035-5.802c0 .635.099 1.227.299 1.775.213.534.498 1.01.854 1.43.37.403.797.72 1.28.952a3.73 3.73 0 001.58.346c.555 0 1.075-.116 1.559-.346.498-.246.932-.57 1.302-.975a4.805 4.805 0 001.196-3.225 4.8 4.8 0 00-.32-1.753 4.476 4.476 0 00-.876-1.45 3.994 3.994 0 00-1.281-.975 3.397 3.397 0 00-1.558-.368 3.53 3.53 0 00-1.58.368 4.003 4.003 0 00-1.281.974c-.356.419-.641.91-.854 1.472a4.84 4.84 0 00-.32 1.775zm21.027-6.905c-.427-.49-1.003-.888-1.729-1.19-.712-.304-1.516-.455-2.413-.455-1.352 0-2.334.26-2.946.78-.612.504-.918 1.197-.918 2.077 0 .462.078.844.235 1.147.171.29.427.542.768.758.356.217.798.404 1.324.563a28.32 28.32 0 001.9.476c.812.173 1.537.368 2.178.585.64.202 1.188.469 1.644.8.455.318.804.715 1.046 1.191.242.462.363 1.04.363 1.732 0 .707-.135 1.32-.406 1.84-.27.52-.647.952-1.131 1.299-.484.346-1.061.606-1.73.78a9.417 9.417 0 01-2.177.237c-2.377 0-4.405-.743-6.085-2.23l.726-1.233c.555.591 1.302 1.096 2.242 1.515.939.404 1.985.606 3.138.606 1.21 0 2.156-.216 2.84-.65.683-.447 1.024-1.118 1.024-2.013 0-.476-.099-.873-.299-1.19-.185-.332-.469-.613-.854-.844-.384-.246-.868-.455-1.451-.628a29.823 29.823 0 00-1.986-.52 23.242 23.242 0 01-2.092-.584c-.598-.202-1.103-.455-1.516-.758a3.163 3.163 0 01-.918-1.082c-.199-.433-.299-.96-.299-1.58 0-.707.128-1.335.385-1.884a3.78 3.78 0 011.11-1.385 5.002 5.002 0 011.708-.844 7.58 7.58 0 012.199-.303c.996 0 1.886.158 2.668.476a7.031 7.031 0 012.157 1.299l-.705 1.212zm7.202 12.707c-1.167 0-2.049-.404-2.647-1.213-.598-.822-.897-2.041-.897-3.658V7.564h1.452v6.364c0 2.555.861 3.832 2.583 3.832.427 0 .847-.072 1.26-.216a3.8 3.8 0 001.132-.628c.355-.274.669-.6.939-.974a4.75 4.75 0 00.683-1.278v-7.1h1.452v9.373c0 .404.178.607.534.607v1.298a4.681 4.681 0 01-.598.065c-.327 0-.612-.1-.854-.303a.97.97 0 01-.342-.758v-1.558c-.498.88-1.16 1.566-1.985 2.056a5.334 5.334 0 01-2.712.715zm14.79-10.196c-.982.029-1.836.303-2.562.823-.726.52-1.238 1.233-1.537 2.143v7.013h-1.452V7.564h1.367v2.706a5.789 5.789 0 011.516-1.97c.626-.534 1.302-.8 2.028-.8h.363c.114 0 .206.006.277.02v1.343zm2.532 9.979v-8.788h-1.537v-1.17h1.537V7.262c0-1.385.292-2.468.875-3.247.584-.794 1.388-1.19 2.413-1.19.427 0 .847.064 1.26.194.412.13.768.303 1.067.52l-.448 1.06a2.15 2.15 0 00-.748-.367 2.916 2.916 0 00-.854-.13c-.683 0-1.209.267-1.579.8-.356.535-.534 1.307-.534 2.317v1.667h3.074v1.169h-3.074v8.788h-1.452z" fill="#fff"/><path d="M159.492 15.839l-.137.396c-4.051-1.444-6.214-5.975-4.809-10.151 1.405-4.177 5.814-6.372 9.865-4.942 3.086 1.09 5.18 4.05 5.236 7.405h-.428c-.62-3.766-4.092-6.286-7.756-5.649-3.665.637-6.118 4.22-5.484 7.985a6.883 6.883 0 003.513 4.956z" fill="url(#paint0_linear_963_38076)"/><path d="M168.931 1.028l.142-.322c6.001 2.773 8.598 9.819 5.803 15.743-2.795 5.925-9.947 8.503-15.948 5.73-4.569-2.102-7.322-6.808-6.882-11.766l.383.041c.312 5.827 5.349 10.281 11.252 9.973 5.902-.308 10.414-5.28 10.102-11.107-.184-3.376-1.986-6.443-4.852-8.292z" fill="url(#paint1_linear_963_38076)"/><circle cx="130" cy="12" r="9" fill="#8B4CDE"/><path d="M126 12h8m-4 4V8" stroke="#fff" stroke-width="1.5" stroke-linecap="round" stroke-linejoin="round"/><defs><linearGradient id="paint0_linear_963_38076" x1="161.885" y1=".701" x2="161.885" y2="16.227" gradientUnits="userSpaceOnUse"><stop stop-color="#7A5FFF"/><stop offset=".609" stop-color="#927FF1"/><stop offset="1" stop-color="#01FF89"/></linearGradient><linearGradient id="paint1_linear_963_38076" x1="164" y1=".719" x2="164" y2="23.299" gradientUnits="userSpaceOnUse"><stop stop-color="#7A5FFF"/><stop offset="1" stop-color="#01FF89"/></linearGradient></defs></svg>