<svg width="258" height="576" xmlns="http://www.w3.org/2000/svg" xmlns:xlink="http://www.w3.org/1999/xlink"><defs><path id="path-1" d="M.436.24h97.785v134.333H.436z"/><path d="M.01 1.452l.116 10.85c.053 4.45 3.286 9.941 7.19 12.211l7.022 4.077c4.69 2.574 9.318 5.26 13.938 7.959 13.034 7.61 26.065 15.227 39.1 22.84l22.747 13.207c.97.566 1.9.878 2.746.962.315.011.63.008.948-.077 1.896-.5 2.746-2.626 3.21-4.499.076-.308.124-.624.196-.936v-46.56c-.319-.844-.716-1.652-1.338-2.328-1.877-2.042-5.028-2.534-7.782-1.994-2.75.547-5.23 1.947-7.722 3.203-3.582 1.807-7.37 3.375-11.375 3.742-4.013.367-8.295-.602-11.218-3.316-2.975-2.766-4.492-7.199-8.291-8.727-3.372-1.355-7.138.147-10.618 1.216-7.67 2.35-17.007 2.163-22.62-3.47-3.281-3.299-5.323-8.363-9.883-9.484A8.333 8.333 0 005.54.174a7.382 7.382 0 00-.85-.048C3.068.126 1.449.648.01 1.452" id="path-3"/><path d="M.171 1.918c1.09-.156 2.376.13 3.758.93l83.702 48.601c3.912 2.275 7.115 7.803 7.115 12.29v67.472c0 1.367-.3 2.483-.82 3.309 1.974-.293 3.297-2.056 3.297-4.94V62.11c0-4.487-3.204-10.019-7.115-12.29L6.406 1.217C5.259.554 4.18.24 3.229.24 1.92.24.849.83.17 1.918" id="path-6"/><path d="M.171 2.183c1.09-.16 2.376.127 3.758.935l83.702 48.865c3.912 2.288 7.115 7.85 7.115 12.362v21.898c0 1.375-.3 2.5-.82 3.331 1.974-.294 3.297-2.071 3.297-4.97V62.702c0-4.512-3.204-10.074-7.115-12.358L6.406 1.475C5.259.808 4.18.492 3.229.492 1.92.492.849 1.088.17 2.183" id="path-9"/><path d="M14.168 56.178l9.953 5.728V6.609L14.168.878v55.3zM.286 48.084l9.956 5.832V17.232L.286 11.501v36.583zm27.761 16.084l9.957 5.731V30.753l-9.957-5.732v39.147zM41.93 72.16l9.956 5.732V51.999l-9.956-5.727v25.89zm13.882 7.99l9.953 5.731V65.524l-9.953-5.735V80.15z" id="path-12"/><path d="M24.238 2.004C17.113 4.296 8.184 6.967 6.901 15.608c-.321 2.192-.088 4.418-.08 6.632a33.03 33.03 0 01-3.423 14.773C.16 43.54-1.396 47.702 2.038 54.478 4.067 58.491 5.364 64.738 9.51 67.2c4.272 2.537 13.308 4.113 17.395 1.005 5.692-4.332 8.567-14.82 8.046-21.556-.566-7.274-4.187-14.61-1.992-21.564 1.378-4.35 7.21-9.24 10.507-12.292 2.93-2.718 4.416-5.407 1.46-8.92C42.647 1.166 38.814.25 34.837.25c-3.817 0-7.764.842-10.599 1.754" id="path-15"/><linearGradient x1="-.003%" y1="50%" x2="99.999%" y2="50%" id="linearGradient-5"><stop stop-color="#008EC6" offset="0%"/><stop stop-color="#1CAFF4" offset="100%"/></linearGradient><linearGradient x1=".001%" y1="50%" x2="99.999%" y2="50%" id="linearGradient-8"><stop stop-color="#D3DAED" offset="0%"/><stop stop-color="#B1B8F9" offset="100%"/></linearGradient><linearGradient x1=".001%" y1="50%" x2="99.999%" y2="50%" id="linearGradient-11"><stop stop-color="#D3DAED" offset="0%"/><stop stop-color="#B1B8F9" offset="100%"/></linearGradient><linearGradient x1="100.004%" y1="50.001%" x2="-.003%" y2="50.001%" id="linearGradient-14"><stop stop-color="#008EC6" offset="0%"/><stop stop-color="#1CAFF4" offset="100%"/></linearGradient><linearGradient x1=".002%" y1="49.999%" x2="99.998%" y2="49.999%" id="linearGradient-17"><stop stop-color="#FF5621" offset="0%"/><stop stop-color="#FDC45D" offset="100%"/></linearGradient></defs><g id="HP" stroke="none" stroke-width="1" fill="none" fill-rule="evenodd"><g id="Product_Sections" transform="translate(-987 -537)"><g id="Procuct_Data-Center" transform="translate(94 137)"><g id="images/Product_DataCenter" transform="translate(893 400)"><g id="Group-91"><g id="Group-3" transform="translate(159)"><mask id="mask-2" fill="#fff"><use xlink:href="#path-1"/></mask><path d="M98.221 129.58c0 4.486-3.194 6.287-7.096 4.001L8.365 85.07c-3.903-2.286-7.134-7.83-7.183-12.316L.437 5.247c-.05-4.49 3.108-6.302 7.02-4.031L91.11 49.817c3.914 2.272 7.111 7.807 7.111 12.294v67.468z" id="Fill-1" fill="#FAFBFD" mask="url(#mask-2)"/></g><g id="Group-6" transform="translate(160 61)"><mask id="mask-4" fill="#fff"><use xlink:href="#path-3"/></mask><path d="M.01 1.452l.116 10.85c.053 4.45 3.286 9.941 7.19 12.211l7.022 4.077c4.69 2.574 9.318 5.26 13.938 7.959 13.034 7.61 26.065 15.227 39.1 22.84l22.747 13.207c.97.566 1.9.878 2.746.962.315.011.63.008.948-.077 1.896-.5 2.746-2.626 3.21-4.499.076-.308.124-.624.196-.936v-46.56c-.319-.844-.716-1.652-1.338-2.328-1.877-2.042-5.028-2.534-7.782-1.994-2.75.547-5.23 1.947-7.722 3.203-3.582 1.807-7.37 3.375-11.375 3.742-4.013.367-8.295-.602-11.218-3.316-2.975-2.766-4.492-7.199-8.291-8.727-3.372-1.355-7.138.147-10.618 1.216-7.67 2.35-17.007 2.163-22.62-3.47-3.281-3.299-5.323-8.363-9.883-9.484A8.333 8.333 0 005.54.174a7.382 7.382 0 00-.85-.048C3.068.126 1.449.648.01 1.452" id="Fill-4" fill="url(#linearGradient-5)" mask="url(#mask-4)"/></g><g id="Group-9" transform="translate(160)"><mask id="mask-7" fill="#fff"><use xlink:href="#path-6"/></mask><path d="M.171 1.918c1.09-.156 2.376.13 3.758.93l83.702 48.601c3.912 2.275 7.115 7.803 7.115 12.29v67.472c0 1.367-.3 2.483-.82 3.309 1.974-.293 3.297-2.056 3.297-4.94V62.11c0-4.487-3.204-10.019-7.115-12.29L6.406 1.217C5.259.554 4.18.24 3.229.24 1.92.24.849.83.17 1.918" id="Fill-7" fill="url(#linearGradient-8)" mask="url(#mask-7)"/></g><path d="M258 172.986c0 4.505-3.201 6.313-7.112 4.018l-82.943-48.702c-3.91-2.299-7.149-7.864-7.198-12.369l-.746-21.907c-.05-4.504 3.114-6.323 7.036-4.04l83.836 48.792c3.922 2.28 7.127 7.834 7.127 12.342v21.866z" id="Fill-10" fill="#FAFBFD"/><g id="Group-14" transform="translate(160 88)"><mask id="mask-10" fill="#fff"><use xlink:href="#path-9"/></mask><path d="M.171 2.183c1.09-.16 2.376.127 3.758.935l83.702 48.865c3.912 2.288 7.115 7.85 7.115 12.362v21.898c0 1.375-.3 2.5-.82 3.331 1.974-.294 3.297-2.071 3.297-4.97V62.702c0-4.512-3.204-10.074-7.115-12.358L6.406 1.475C5.259.808 4.18.492 3.229.492 1.92.492.849 1.088.17 2.183" id="Fill-12" fill="url(#linearGradient-11)" mask="url(#mask-10)"/></g><g id="Group-39" transform="translate(0 104)"><path id="Fill-15" fill="#E4E9F4" d="M249.667 47.1v3.174l-81.522-46.88V.097z"/><path id="Fill-17" fill="#E4E9F4" d="M249.667 55.95v3.174l-81.522-46.88V8.947z"/><path id="Fill-19" fill="#E4E9F4" d="M249.667 64.8v3.175l-81.522-46.88v-3.297z"/><path id="Fill-21" fill="#F0F1FE" d="M221.24 162.409L109.247 97.856.001 162.41l109.246 64.552z"/><path id="Fill-23" fill="#D1D4FC" d="M221.24 162.409v248.536L109.247 472V226.961z"/><path id="Fill-25" fill="#E0E3FD" d="M0 162.409v245.038L109.246 472V226.961z"/><path id="Fill-27" fill="#C1C6FB" d="M95.801 243.996V425.36L9.722 375.748V194.384z"/><path id="Fill-29" fill="#F0F1FE" d="M83.57 304.559v5.835l-63.626-36.671v-5.835z"/><path id="Fill-31" fill="#F0F1FE" d="M83.57 319.478v5.839l-63.626-36.675v-5.835z"/><path id="Fill-33" fill="#F0F1FE" d="M83.57 334.396v5.84l-63.626-36.672v-5.839z"/><path id="Fill-35" fill="#F0F1FE" d="M83.57 349.315v5.839l-63.626-36.671v-5.839z"/><path id="Fill-37" fill="#F0F1FE" d="M51.758 345.9v5.835l-31.812-18.334v-5.838z"/></g><g id="Group-42" transform="translate(20 318)"><mask id="mask-13" fill="#fff"><use xlink:href="#path-12"/></mask><path d="M14.168 56.178l9.953 5.728V6.609L14.168.878v55.3zM.286 48.084l9.956 5.832V17.232L.286 11.501v36.583zm27.761 16.084l9.957 5.731V30.753l-9.957-5.732v39.147zM41.93 72.16l9.956 5.732V51.999l-9.956-5.727v25.89zm13.882 7.99l9.953 5.731V65.524l-9.953-5.735V80.15z" id="Fill-40" fill="url(#linearGradient-14)" mask="url(#mask-13)"/></g><g id="Group-85" transform="translate(115 113)"><path d="M32.683 62.314L5.995 56.385c-3-.664-4.9-3.653-4.235-6.672a5.563 5.563 0 016.63-4.26l21.293 4.73 32.34-27.664a5.542 5.542 0 017.84.638 5.623 5.623 0 01-.634 7.892L32.683 62.314z" id="Fill-43" fill="#FFCEBD"/><path d="M51.372 132.526a30.674 30.674 0 01-6.197 3.578l-.463.269-.034-.056c-16.88 6.877-32.24-6.023-32.24-6.023-3.252-2.963-4.398-10.567-4.116-15.877-.334-1.201-.679-2.645-1.102-4.433-.997-4.227-1.464-9.519-1.546-15.272l67.514 39.22v1.164l-13.098-7.608-8.718 5.038z" id="Fill-45" fill="#231F20"/><path d="M24.017 123.303l31.236-18.045v19.302l17.596 10.224v-32.698c0-5.739-2.948-10.88-7.888-13.75-4.943-2.87-10.843-2.866-15.779.004l-33.964 19.63 8.8 15.333z" id="Fill-47" fill="#FE5E31"/><path d="M39.984 132.808l31.236-18.045v18.802l17.596 10.224v-32.198c0-5.739-2.948-10.877-7.888-13.746-4.943-2.873-10.843-2.87-15.783 0l-33.96 19.63 8.8 15.333z" id="Fill-49" fill="#FE5E31"/><path d="M86.452 111.593c0-5.742-2.948-10.88-7.887-13.75a15.756 15.756 0 00-6.709-2.075 15.6 15.6 0 019.071 2.075c4.94 2.87 7.888 8.008 7.888 13.75v32.195l-2.363-1.37v-30.825z" id="Fill-51" fill="#717386"/><path d="M46.646 128.958c-19.28 14.303-38.934-2.227-38.934-2.227-4.194-3.821-4.895-15.359-3.541-19.74l5.321-5.414L37.056 117l9.59 11.96z" id="Fill-53" fill="#4D5068"/><path d="M42.836 66.035c.393-6.467-.983-12.63-3.182-16.97-2.744-5.407-7.38-10.09-12.463-13.045l-5.025-2.918c-6.445-3.747-11.08 1.772-14.503 8.425-12.279 23.851-.716 57.045-7.428 79.397 0 0 23.355 11.104 29.752 11.108 9.089.011 23.232-2.422 21.868-6.082-10.888-29.277-10.11-41.978-9.019-59.915" id="Fill-55" fill="#4D5068"/><path d="M24.7 42.247h.76c2.188 0 3.96-1.787 3.96-3.985V27.803c0-2.202-1.772-3.985-3.96-3.985h-.76c-2.188 0-3.96 1.783-3.96 3.985v10.46c0 2.2 1.772 3.984 3.96 3.984" id="Fill-57" fill="#FFCEBD"/><path d="M64.157 24.228l7.31-7.09a1.195 1.195 0 00.029-1.69 1.179 1.179 0 00-1.676-.03l-7.31 7.09a1.201 1.201 0 00-.033 1.69 1.183 1.183 0 001.68.03" id="Fill-59" fill="#FFCEBD"/><path d="M62.8 29.483l7.308-7.09a1.201 1.201 0 00.03-1.69 1.183 1.183 0 00-1.68-.03l-7.31 7.09a1.201 1.201 0 00-.029 1.69 1.183 1.183 0 001.68.03" id="Fill-61" fill="#FFCEBD"/><path d="M64.157 31.554l7.31-7.09a1.195 1.195 0 00.029-1.69 1.179 1.179 0 00-1.676-.03l-7.31 7.09a1.197 1.197 0 00-.033 1.687 1.18 1.18 0 001.68.033" id="Fill-63" fill="#FFCEBD"/><path d="M65.032 34.223l7.31-7.09a1.195 1.195 0 00.029-1.69 1.179 1.179 0 00-1.676-.03l-7.31 7.09a1.2 1.2 0 00-.033 1.687 1.18 1.18 0 001.68.033" id="Fill-65" fill="#FFCEBD"/><path d="M62.146 30.64l-.453-10.206a1.193 1.193 0 00-1.242-1.142c-.653.03-1.16.59-1.131 1.247l.452 10.205c.03.66.586 1.172 1.239 1.142a1.189 1.189 0 001.135-1.246" id="Fill-67" fill="#FFCEBD"/><path d="M49.106 124.879l8.737 5.205c.564.336 1.295.15 1.625-.422a1.198 1.198 0 00-.416-1.638l-8.733-5.201a1.181 1.181 0 00-1.628.418 1.198 1.198 0 00.415 1.638" id="Fill-69" fill="#FFCEBD"/><path d="M52.78 133.384l7.417 6.977a1.18 1.18 0 001.677-.056 1.202 1.202 0 00-.056-1.69l-7.413-6.978a1.184 1.184 0 00-1.68.056 1.202 1.202 0 00.056 1.69" id="Fill-71" fill="#FFCEBD"/><path d="M50.407 134.348l5.325 8.697a1.179 1.179 0 001.631.392c.56-.347.735-1.082.39-1.645l-5.325-8.698a1.184 1.184 0 00-1.632-.392 1.199 1.199 0 00-.39 1.646" id="Fill-73" fill="#FFCEBD"/><path d="M47.207 132.045l2.4 9.929a1.184 1.184 0 001.434.877 1.194 1.194 0 00.872-1.444l-2.396-9.926a1.19 1.19 0 00-1.435-.88 1.193 1.193 0 00-.875 1.444" id="Fill-75" fill="#FFCEBD"/><path d="M41.415 103.95a57.535 57.535 0 01-3.63-27.27l-.13-20.305c.318-2.885.381-5.135-2.485-5.452-2.837-.284-5.11.489-5.43 3.377l-2.335 21.224a68.082 68.082 0 004.301 32.292l9.171 23.32c4.35-.693 8.229-1.76 10.016-3.104l-9.478-24.082z" id="Fill-77" fill="#231F20"/><path d="M51.376 137.78a5.22 5.22 0 01-4.717-2.996l-12.505-26.389a68.125 68.125 0 01-6.47-31.93l.9-21.331c.123-2.903 2.592-5.116 5.44-5.027 2.882.124 5.118 2.575 4.995 5.47l-.9 21.337a57.542 57.542 0 005.462 26.959l12.508 26.392c1.235 2.62.137 5.754-2.47 7.004a5.18 5.18 0 01-2.243.511" id="Fill-79" fill="#FFCEBD"/><path d="M32.848 87.964c-.074 0-.148 0-.218-.004-3.293-.119-5.867-2.903-5.748-6.216l.956-26.605c.12-3.313 2.908-5.933 6.179-5.783 3.296.123 5.866 2.906 5.747 6.216l-.956 26.605c-.115 3.239-2.763 5.787-5.96 5.787" id="Fill-81" fill="#4D5068"/><path d="M21.67 30.776h-7.03V.656h25.92v11.112c0 10.497-8.459 19.008-18.89 19.008" id="Fill-83" fill="#FFCEBD"/></g><g id="Group-88" transform="translate(112 105)"><mask id="mask-16" fill="#fff"><use xlink:href="#path-15"/></mask><path d="M24.238 2.004C17.113 4.296 8.184 6.967 6.901 15.608c-.321 2.192-.088 4.418-.08 6.632a33.03 33.03 0 01-3.423 14.773C.16 43.54-1.396 47.702 2.038 54.478 4.067 58.491 5.364 64.738 9.51 67.2c4.272 2.537 13.308 4.113 17.395 1.005 5.692-4.332 8.567-14.82 8.046-21.556-.566-7.274-4.187-14.61-1.992-21.564 1.378-4.35 7.21-9.24 10.507-12.292 2.93-2.718 4.416-5.407 1.46-8.92C42.647 1.166 38.814.25 34.837.25c-3.817 0-7.764.842-10.599 1.754" id="Fill-86" fill="url(#linearGradient-17)" mask="url(#mask-16)"/></g><path d="M157.39 108.613c-2.617-3.128-7.292-3.847-11.874-3.553 3.43.213 6.633 1.167 8.629 3.553 2.956 3.535 1.47 6.234-1.456 8.967-3.3 3.072-9.132 7.982-10.507 12.359-2.198 6.987 1.423 14.365 1.985 21.676.521 6.77-2.347 17.314-8.041 21.668-1.301.996-3.13 1.473-5.126 1.633 3.215.28 6.382-.111 8.374-1.633 5.69-4.354 8.562-14.898 8.041-21.668-.565-7.311-4.187-14.69-1.988-21.676 1.378-4.377 7.206-9.287 10.506-12.36 2.927-2.732 4.413-5.431 1.456-8.966" id="Fill-89" fill="#FEDC9E"/></g></g></g></g></g></svg>