<svg width="299" height="545" xmlns="http://www.w3.org/2000/svg" xmlns:xlink="http://www.w3.org/1999/xlink"><defs><linearGradient x1="0%" y1="49.998%" x2="99.963%" y2="49.998%" id="linearGradient-3"><stop stop-color="#04BF80" offset="0%"/><stop stop-color="#02E49E" offset="100%"/></linearGradient><linearGradient x1="0%" y1="50.001%" x2="100.01%" y2="50.001%" id="linearGradient-6"><stop stop-color="#04BF80" offset="0%"/><stop stop-color="#02E49E" offset="100%"/></linearGradient><linearGradient x1="0%" y1="49.999%" x2="100.016%" y2="49.999%" id="linearGradient-9"><stop stop-color="#04BF80" offset="0%"/><stop stop-color="#02E49E" offset="100%"/></linearGradient><linearGradient x1=".042%" y1="50%" x2="100.005%" y2="50%" id="linearGradient-12"><stop stop-color="#04BF80" offset="0%"/><stop stop-color="#02E49E" offset="100%"/></linearGradient><linearGradient x1="-.005%" y1="49.999%" x2="100.005%" y2="49.999%" id="linearGradient-15"><stop stop-color="#04BF80" offset="0%"/><stop stop-color="#02E49E" offset="100%"/></linearGradient><linearGradient x1=".003%" y1="50%" x2="100%" y2="50%" id="linearGradient-18"><stop stop-color="#D3DAED" offset="0%"/><stop stop-color="#B1B8F9" offset="100%"/></linearGradient><linearGradient x1="56.726%" y1="77.592%" x2="43.272%" y2="22.408%" id="linearGradient-21"><stop stop-color="#04BF80" offset="0%"/><stop stop-color="#02E49E" offset="100%"/></linearGradient><linearGradient x1="0%" y1="50%" x2="99.998%" y2="50%" id="linearGradient-24"><stop stop-color="#D3DAED" offset="0%"/><stop stop-color="#B1B8F9" offset="100%"/></linearGradient><linearGradient x1="53.55%" y1="56.408%" x2="38.12%" y2="35.166%" id="linearGradient-27"><stop stop-color="#04BF80" offset="0%"/><stop stop-color="#02E49E" offset="100%"/></linearGradient><path d="M.696 2.116v27.839c0 .836.505 1.615 1.329 2.043l2.974 1.548c1.32.688 2.996-.148 2.996-1.494V4.217c0-.84-.508-1.618-1.332-2.047L3.693.626A2.202 2.202 0 002.683.38C1.648.38.697 1.105.697 2.116" id="path-1"/><path d="M.33 2.168V30c0 .843.504 1.615 1.328 2.047l2.974 1.547c1.32.685 2.993-.148 2.993-1.494V4.262c0-.836-.505-1.612-1.325-2.04L3.322.674A2.175 2.175 0 002.317.428C1.28.428.329 1.15.329 2.168" id="path-4"/><path d="M.209 1.756v27.838c0 .836.504 1.615 1.329 2.043l2.97 1.545c1.32.691 2.996-.145 2.996-1.49V3.855c0-.84-.504-1.615-1.329-2.046L3.205.265A2.202 2.202 0 002.197.02C1.16.02.21.741.21 1.756" id="path-7"/><path d="M.296 2.338v27.216c0 .821.528 1.58 1.384 1.998l3.084 1.513c1.376.673 3.112-.145 3.112-1.457V4.388c0-.82-.528-1.579-1.38-1.998L3.412.877c-.34-.165-.7-.24-1.048-.24-1.076 0-2.068.708-2.068 1.7" id="path-10"/><path d="M.61 2.2v27.832c0 .843.504 1.619 1.328 2.047l2.97 1.548c1.325.688 2.997-.149 2.997-1.494V4.301c0-.843-.505-1.618-1.325-2.046L3.606.707A2.202 2.202 0 002.597.461C1.561.46.609 1.186.609 2.2" id="path-13"/><path d="M88.151.796L1.576 50.763C.858 51.178.27 52.192.27 53.023v59.913c0 .827.588 1.166 1.306.75l86.575-49.97c.718-.408 1.303-1.425 1.303-2.256V1.55c0-.592-.296-.93-.724-.93-.173 0-.37.056-.579.176" id="path-16"/><path d="M1.048 15.397c-.48.285-.869.992-.869 1.565v40.71l24.243-14.853c.476-.288.87-.991.87-1.565V.545L1.047 15.397z" id="path-19"/><path d="M134.863.644L1.999 77.436C.9 78.07 0 79.632 0 80.903v92.073c0 1.271.9 1.79 1.999 1.156l132.864-76.79c1.098-.636 2.002-2.195 2.002-3.47V1.8c0-.905-.458-1.427-1.115-1.427-.267 0-.57.086-.887.27" id="path-22"/><path id="path-25" d="M89.557 15.34H73.46l-7.763 4.87-13.292 20.04h-8.238l-5.66-10.092-15.54 31.378-7.68-5.741L.585 77.059v19.285L123.782 24.73V4.958l-12.309.567L99.82.158z"/></defs><g id="HP" stroke="none" stroke-width="1" fill="none" fill-rule="evenodd"><g transform="translate(-1062 -674)" id="Products"><g id="Residential" transform="translate(130 246)"><g id="images/Product_Residential" transform="translate(932 428)"><path id="Path-2" fill="#FFF" d="M102 202l97-58 100 55v292l-98 54-99-57z"/><g id="Group-210" stroke-width="1"><path id="Fill-1" fill="#F0F1FE" d="M102 198l97.275 57L299 198l-99.725-57z"/><path id="Fill-2" fill="#D1D4FC" d="M200 256.28V545l99-54.176V199z"/><path id="Fill-3" fill="#E0E3FD" d="M102 487.72L199 545V256.28L102 199z"/><path id="Fill-4" fill="#C1C6FB" d="M111 218v263.326L190 528V264.674z"/><path id="Fill-5" fill="#F0F1FE" d="M121.447 482.634l2.106 1.366V229.366L121.447 228z"/><path id="Fill-6" fill="#F0F1FE" d="M135.447 491.634l2.106 1.366V238.37l-2.106-1.37z"/><path id="Fill-7" fill="#F0F1FE" d="M149.447 499.634l2.106 1.366V246.37l-2.106-1.37z"/><g id="Group-10" transform="translate(147 341)"><mask id="mask-2" fill="#fff"><use xlink:href="#path-1"/></mask><path d="M.696 2.116v27.839c0 .836.505 1.615 1.329 2.043l2.974 1.548c1.32.688 2.996-.148 2.996-1.494V4.217c0-.84-.508-1.618-1.332-2.047L3.693.626A2.202 2.202 0 002.683.38C1.648.38.697 1.105.697 2.116" id="Fill-8" fill="url(#linearGradient-3)" mask="url(#mask-2)"/></g><g id="Group-13" transform="translate(133 307)"><mask id="mask-5" fill="#fff"><use xlink:href="#path-4"/></mask><path d="M.33 2.168V30c0 .843.504 1.615 1.328 2.047l2.974 1.547c1.32.685 2.993-.148 2.993-1.494V4.262c0-.836-.505-1.612-1.325-2.04L3.322.674A2.175 2.175 0 002.317.428C1.28.428.329 1.15.329 2.168" id="Fill-11" fill="url(#linearGradient-6)" mask="url(#mask-5)"/></g><g id="Group-16" transform="translate(119 375)"><mask id="mask-8" fill="#fff"><use xlink:href="#path-7"/></mask><path d="M.209 1.756v27.838c0 .836.504 1.615 1.329 2.043l2.97 1.545c1.32.691 2.996-.145 2.996-1.49V3.855c0-.84-.504-1.615-1.329-2.046L3.205.265A2.202 2.202 0 002.197.02C1.16.02.21.741.21 1.756" id="Fill-14" fill="url(#linearGradient-9)" mask="url(#mask-8)"/></g><g id="Group-21" transform="translate(164 253)" fill="#F0F1FE"><path id="Fill-17" d="M.68.718v256.414l2.282 1.376V2.097z"/><path id="Fill-19" d="M14.702 9.075v256.41l2.282 1.38V10.451z"/></g><g id="Group-24" transform="translate(161 406)"><mask id="mask-11" fill="#fff"><use xlink:href="#path-10"/></mask><path d="M.296 2.338v27.216c0 .821.528 1.58 1.384 1.998l3.084 1.513c1.376.673 3.112-.145 3.112-1.457V4.388c0-.82-.528-1.579-1.38-1.998L3.412.877c-.34-.165-.7-.24-1.048-.24-1.076 0-2.068.708-2.068 1.7" id="Fill-22" fill="url(#linearGradient-12)" mask="url(#mask-11)"/></g><g id="Group-27" transform="translate(175 365)"><mask id="mask-14" fill="#fff"><use xlink:href="#path-13"/></mask><path d="M.61 2.2v27.832c0 .843.504 1.619 1.328 2.047l2.97 1.548c1.325.688 2.997-.149 2.997-1.494V4.301c0-.843-.505-1.618-1.325-2.046L3.606.707A2.202 2.202 0 002.597.461C1.561.46.609 1.186.609 2.2" id="Fill-25" fill="url(#linearGradient-15)" mask="url(#mask-14)"/></g><g id="Group-30" transform="translate(2 133)"><mask id="mask-17" fill="#fff"><use xlink:href="#path-16"/></mask><path d="M88.151.796L1.576 50.763C.858 51.178.27 52.192.27 53.023v59.913c0 .827.588 1.166 1.306.75l86.575-49.97c.718-.408 1.303-1.425 1.303-2.256V1.55c0-.592-.296-.93-.724-.93-.173 0-.37.056-.579.176" id="Fill-28" fill="url(#linearGradient-18)" mask="url(#mask-17)"/></g><path d="M5.29 184.843c-.711.41-1.29 1.412-1.29 2.23V245l84.714-48.843c.707-.407 1.286-1.409 1.286-2.226V136L5.29 184.843z" id="Fill-31" fill="#FAFBFD"/><g id="Group-35" transform="translate(13 178)"><mask id="mask-20" fill="#fff"><use xlink:href="#path-19"/></mask><path d="M1.048 15.397c-.48.285-.869.992-.869 1.565v40.71l24.243-14.853c.476-.288.87-.991.87-1.565V.545L1.047 15.397z" id="Fill-33" fill="url(#linearGradient-21)" mask="url(#mask-20)"/></g><g id="Group-44" transform="translate(41 149)" fill="#E4E9F4"><path id="Fill-36" d="M.11 28.148L48.41.49l-.004 3.952L.111 32.101z"/><path id="Fill-38" d="M.11 37.58l48.3-27.659-.004 3.952L.111 41.533z"/><path id="Fill-40" d="M.11 47.012l48.3-27.659-.004 3.952L.111 50.965z"/><path id="Fill-42" d="M.11 56.444l27.156-15.45v3.949L.111 60.396z"/></g><g id="Group-47"><mask id="mask-23" fill="#fff"><use xlink:href="#path-22"/></mask><path d="M134.863.644L1.999 77.436C.9 78.07 0 79.632 0 80.903v92.073c0 1.271.9 1.79 1.999 1.156l132.864-76.79c1.098-.636 2.002-2.195 2.002-3.47V1.8c0-.905-.458-1.427-1.115-1.427-.267 0-.57.086-.887.27" id="Fill-45" fill="url(#linearGradient-24)" mask="url(#mask-23)"/></g><path d="M5.993 80.174C4.898 80.81 4 82.376 4 83.65V174l131.007-76.177c1.095-.64 1.993-2.203 1.993-3.478V4L5.993 80.174z" id="Fill-48" fill="#FAFBFD"/><g id="Group-52" transform="translate(8 66)"><mask id="mask-26" fill="#fff"><use xlink:href="#path-25"/></mask><path id="Fill-50" fill="url(#linearGradient-27)" mask="url(#mask-26)" d="M89.557 15.34H73.46l-7.763 4.87-13.292 20.04h-8.238l-5.66-10.092-15.54 31.378-7.68-5.741L.585 77.059v19.285L123.782 24.73V4.958l-12.309.567L99.82.158z"/></g><g id="Group-209" transform="translate(108 53)"><path d="M41.075 127.444a28.589 28.589 0 005.766 3.27l.428.245.033-.05c15.696 6.288 29.979-5.504 29.979-5.504 3.026-2.71 4.092-9.66 3.832-14.51.307-1.101.628-2.423 1.022-4.052.929-3.869 1.363-8.702 1.437-13.962l-62.783 35.848v1.064l12.18-6.952 8.106 4.603z" id="Fill-53" fill="#231F20"/><path d="M70.595 116.498l-29.05-16.494v17.647l-16.363 9.34V97.107c0-5.247 2.746-9.942 7.34-12.565 4.593-2.624 10.08-2.62 14.673 0l31.582 17.94-8.182 14.016z" id="Fill-55" fill="#4D5068"/><path d="M51.665 127.7L22.62 111.207v17.187l-16.364 9.343V108.31c0-5.247 2.743-9.942 7.337-12.565 4.594-2.623 10.083-2.62 14.673 0l31.582 17.944-8.182 14.012z" id="Fill-57" fill="#4D5068"/><path d="M8.452 108.31c0-5.246 2.742-9.945 7.336-12.565a14.736 14.736 0 016.238-1.896 14.697 14.697 0 00-8.436 1.896c-4.594 2.62-7.337 7.319-7.337 12.565v29.429l2.199-1.256V108.31z" id="Fill-59" fill="#717386"/><path d="M45.47 124.183c17.927 13.07 36.205-2.038 36.205-2.038 3.902-3.49 4.554-14.036 3.298-18.04l-4.952-4.95-25.631 14.099-8.92 10.93z" id="Fill-61" fill="#4D5068"/><path d="M1.165 69.058l35.574-20.313a.72.72 0 011.08.618l9.998 26.947c0 .555-.297 1.067-.785 1.342l-35.57 20.312c-.482.275-.822-.072-1.083-.618L.383 70.4c0-.555.294-1.067.782-1.341" id="Fill-63" fill="#3A3C4E"/><path d="M1.623 69.361l35.574-20.313c.481-.274.899.15 1.083.618l9.996 26.947a1.54 1.54 0 01-.782 1.342L11.92 98.268c-.481.274-.805-.093-1.083-.618L.841 70.703c0-.555.298-1.068.782-1.342" id="Fill-65" fill="#4D5068"/><path id="Fill-67" fill="#E0E3FD" d="M2.775 70.666l34.518-19.305 9.128 25.137-34.385 19.56z"/><path d="M49.858 78.805L72.64 90.69s.123 1.757-.361 2.035l-34.903 19.93a2.939 2.939 0 01-2.883.006L12.075 99.987c-.925-.568-.364-2.042-.364-2.042L46.978 78.81a2.924 2.924 0 012.88-.004" id="Fill-69" fill="#3A3C4E"/><path d="M49.858 77.44l22.417 12.671a.718.718 0 01.004 1.249l-34.903 19.93a2.93 2.93 0 01-2.883.006L12.075 98.622a.714.714 0 01-.003-1.245l34.906-19.93a2.916 2.916 0 012.88-.007" id="Fill-71" fill="#F9F9F9"/><path d="M51.845 93.85l5.91 3.34a.188.188 0 010 .328l-9.201 5.253a.767.767 0 01-.759.004L41.89 99.43a.187.187 0 01-.004-.327l9.201-5.253a.767.767 0 01.759 0" id="Fill-73" fill="#717386"/><path d="M47.386 79.377l-1.93 1.103a.114.114 0 000 .198l.958.545c.077.043.17.043.247 0l1.931-1.103a.114.114 0 000-.198l-.959-.545a.253.253 0 00-.247 0" id="Fill-75" fill="#4D5068"/><path d="M44.556 81.044l-1.931 1.1a.117.117 0 000 .202l.959.545a.251.251 0 00.25-.003l1.931-1.1a.113.113 0 00-.003-.198l-.959-.546a.253.253 0 00-.247 0" id="Fill-77" fill="#4D5068"/><path d="M41.716 82.622l-1.931 1.104a.114.114 0 000 .198l.959.545a.253.253 0 00.247 0l1.931-1.103a.114.114 0 000-.199l-.959-.545a.253.253 0 00-.247 0" id="Fill-79" fill="#4D5068"/><path d="M38.79 84.253l-1.932 1.1a.117.117 0 000 .202l.96.545a.25.25 0 00.25-.003l1.93-1.1a.114.114 0 000-.199l-.958-.545a.244.244 0 00-.25 0" id="Fill-81" fill="#4D5068"/><path d="M35.979 85.802l-1.932 1.104a.114.114 0 000 .198l.96.545a.26.26 0 00.25 0l1.931-1.104a.114.114 0 000-.198l-.962-.545a.253.253 0 00-.247 0" id="Fill-83" fill="#4D5068"/><path d="M33.246 87.469l-1.931 1.103c-.08.043-.08.152 0 .198l.959.546c.077.042.17.042.247 0l1.934-1.104c.074-.043.074-.152-.003-.198l-.959-.545a.253.253 0 00-.247 0" id="Fill-85" fill="#4D5068"/><path d="M30.385 89.029l-1.931 1.103a.114.114 0 000 .198l.959.546a.26.26 0 00.25 0l1.928-1.104a.114.114 0 000-.198l-.959-.545a.253.253 0 00-.247 0" id="Fill-87" fill="#4D5068"/><path d="M27.566 90.689l-1.931 1.103a.114.114 0 000 .198l.959.546a.26.26 0 00.25 0l1.931-1.104a.114.114 0 000-.198l-.959-.545a.26.26 0 00-.25 0" id="Fill-89" fill="#4D5068"/><path d="M24.794 92.307l-1.931 1.103a.114.114 0 000 .198l.959.546a.26.26 0 00.25 0L26 93.05c.08-.046.08-.155 0-.198l-.959-.545a.253.253 0 00-.247 0" id="Fill-91" fill="#4D5068"/><path d="M21.872 93.971l-1.93 1.1a.117.117 0 000 .202l.958.545a.25.25 0 00.25-.003l1.929-1.1a.114.114 0 000-.198l-.96-.546a.253.253 0 00-.247 0" id="Fill-93" fill="#4D5068"/><path d="M19.034 95.546l-1.931 1.104a.114.114 0 000 .198l.959.545a.26.26 0 00.25 0l1.931-1.103a.114.114 0 000-.199l-.962-.545a.253.253 0 00-.247 0" id="Fill-95" fill="#4D5068"/><path d="M51.314 81.454l-1.31-.756a.556.556 0 00-.55-.004l-1.277.73a.268.268 0 00-.006.463l1.27.773a.559.559 0 00.56.007l1.313-.747a.268.268 0 000-.466" id="Fill-97" fill="#4D5068"/><path d="M48.385 83.123l-1.31-.757a.556.556 0 00-.551-.003l-1.276.73a.267.267 0 00-.007.462l1.27.77a.551.551 0 00.56.01l1.314-.747a.268.268 0 000-.465" id="Fill-99" fill="#4D5068"/><path d="M45.54 84.7l-1.31-.756a.542.542 0 00-.548 0l-1.28.726a.27.27 0 00-.006.463l1.273.773c.17.103.384.106.558.007l1.313-.747a.268.268 0 000-.466" id="Fill-101" fill="#4D5068"/><path d="M42.514 86.33l-1.31-.757a.542.542 0 00-.548 0l-1.28.727a.268.268 0 00-.003.463l1.27.773c.17.102.384.105.558.006l1.313-.746a.268.268 0 000-.466" id="Fill-103" fill="#4D5068"/><path d="M39.848 87.88l-1.31-.757a.556.556 0 00-.55-.003l-1.277.73a.27.27 0 00-.007.463l1.27.77a.551.551 0 00.561.01l1.313-.747a.268.268 0 000-.466" id="Fill-105" fill="#4D5068"/><path d="M37.139 89.539l-1.31-.757a.55.55 0 00-.548-.003l-1.276.73a.267.267 0 00-.007.462l1.27.773c.17.103.384.106.558.007l1.313-.747a.268.268 0 000-.465" id="Fill-107" fill="#4D5068"/><path d="M34.245 91.107l-1.31-.757a.542.542 0 00-.548 0l-1.28.727a.268.268 0 00-.003.462l1.27.774c.17.102.384.105.558.006l1.313-.747a.268.268 0 000-.465" id="Fill-109" fill="#4D5068"/><path d="M31.412 92.695l-1.31-.756a.556.556 0 00-.55-.003l-1.277.73a.267.267 0 00-.006.462l1.27.77a.551.551 0 00.56.01l1.313-.747a.268.268 0 000-.466" id="Fill-111" fill="#4D5068"/><path d="M28.628 94.384l-1.31-.756a.55.55 0 00-.551-.003l-1.276.73a.267.267 0 00-.007.462l1.27.77c.17.106.387.11.56.01l1.314-.747a.27.27 0 000-.466" id="Fill-113" fill="#4D5068"/><path d="M25.594 96.153l-1.31-.757a.556.556 0 00-.551-.003l-1.277.73a.267.267 0 00-.006.463l1.27.77a.56.56 0 00.56.01l1.31-.747a.268.268 0 00.004-.466" id="Fill-115" fill="#4D5068"/><path d="M22.848 97.624l-1.31-.757a.55.55 0 00-.548-.003l-1.276.73a.267.267 0 00-.006.463l1.27.77c.17.105.383.109.557.01l1.313-.747a.268.268 0 000-.466" id="Fill-117" fill="#4D5068"/><path d="M54.23 83.022l-1.31-.756a.55.55 0 00-.548-.003l-1.28.73a.27.27 0 00-.006.462l1.273.773c.17.103.384.106.558.007l1.313-.747a.268.268 0 000-.466" id="Fill-119" fill="#4D5068"/><path d="M51.3 84.689l-1.31-.757a.542.542 0 00-.548 0l-1.28.727a.268.268 0 00-.006.463l1.273.773c.17.102.384.106.558.007l1.313-.747a.268.268 0 000-.466" id="Fill-121" fill="#4D5068"/><path d="M48.457 86.268l-1.31-.756c-.17-.1-.38-.1-.551-.004l-1.277.73a.267.267 0 00-.006.463l1.27.77c.17.106.387.109.56.01l1.31-.747a.267.267 0 00.004-.466" id="Fill-123" fill="#4D5068"/><path d="M45.429 87.898l-1.31-.757a.542.542 0 00-.548 0l-1.276.727a.267.267 0 00-.007.463l1.27.773c.17.102.384.105.558.006l1.313-.746a.268.268 0 000-.466" id="Fill-125" fill="#4D5068"/><path d="M42.763 89.448l-1.31-.757a.55.55 0 00-.547-.003l-1.28.73a.27.27 0 00-.007.463l1.273.77c.17.105.385.105.558.01l1.313-.747a.268.268 0 000-.466" id="Fill-127" fill="#4D5068"/><path d="M40.055 91.107l-1.31-.757a.556.556 0 00-.55-.003l-1.277.73a.267.267 0 00-.007.462l1.27.77a.551.551 0 00.561.01l1.313-.747a.268.268 0 000-.465" id="Fill-129" fill="#4D5068"/><path d="M37.161 92.675l-1.31-.757c-.17-.1-.38-.1-.55 0l-1.277.727a.267.267 0 00-.007.462l1.27.774a.56.56 0 00.561.006l1.31-.746a.268.268 0 00.003-.466" id="Fill-131" fill="#4D5068"/><path d="M34.328 94.264l-1.31-.757a.556.556 0 00-.551-.003l-1.276.73a.27.27 0 00-.007.462l1.273.77c.17.106.384.106.558.01l1.313-.747a.268.268 0 000-.465" id="Fill-133" fill="#4D5068"/><path d="M31.543 95.953l-1.31-.757a.554.554 0 00-.55-.003l-1.277.73a.267.267 0 00-.007.463l1.27.77a.551.551 0 00.561.01l1.31-.747a.267.267 0 00.003-.466" id="Fill-135" fill="#4D5068"/><path d="M28.507 97.72l-1.31-.757a.542.542 0 00-.547 0l-1.277.726a.267.267 0 00-.006.463l1.27.773a.55.55 0 00.557.007l1.313-.747a.268.268 0 000-.466" id="Fill-137" fill="#4D5068"/><path d="M25.765 99.192l-1.31-.757a.556.556 0 00-.55-.003l-1.277.73a.267.267 0 00-.007.463l1.27.77a.551.551 0 00.561.01l1.31-.747a.267.267 0 00.003-.466" id="Fill-139" fill="#4D5068"/><path d="M57.145 84.59l-1.31-.756a.55.55 0 00-.548-.003l-1.28.73a.268.268 0 00-.003.462l1.27.773c.17.103.384.106.558.007l1.313-.747a.268.268 0 000-.465" id="Fill-141" fill="#4D5068"/><path d="M54.215 86.257l-1.31-.757a.542.542 0 00-.548 0l-1.276.727a.268.268 0 00-.01.463l1.273.773c.17.102.384.106.558.007l1.313-.747a.268.268 0 000-.466" id="Fill-143" fill="#4D5068"/><path d="M51.372 87.836l-1.31-.756c-.17-.1-.38-.1-.551-.004l-1.277.73a.267.267 0 00-.006.463l1.27.77a.551.551 0 00.56.01l1.314-.747a.268.268 0 000-.466" id="Fill-145" fill="#4D5068"/><path d="M48.346 89.466l-1.31-.757a.556.556 0 00-.551-.003l-1.276.73a.267.267 0 00-.007.463l1.27.773a.559.559 0 00.56.006l1.314-.746a.268.268 0 000-.466" id="Fill-147" fill="#4D5068"/><path d="M45.678 91.016l-1.31-.757a.55.55 0 00-.547-.003l-1.277.73a.267.267 0 00-.006.463l1.27.77c.17.105.384.109.557.01l1.313-.747a.268.268 0 000-.466" id="Fill-149" fill="#4D5068"/><path d="M42.97 92.675l-1.31-.757a.556.556 0 00-.55-.003l-1.277.73a.267.267 0 00-.006.462l1.27.77a.56.56 0 00.56.01l1.313-.746a.268.268 0 000-.466" id="Fill-151" fill="#4D5068"/><path d="M40.075 94.243l-1.31-.757a.55.55 0 00-.548-.003l-1.276.73a.267.267 0 00-.007.463l1.27.773c.17.102.384.105.558.006l1.313-.746a.268.268 0 000-.466" id="Fill-153" fill="#4D5068"/><path d="M37.243 95.832l-1.31-.757a.55.55 0 00-.548-.003l-1.28.73a.27.27 0 00-.006.462l1.27.77a.56.56 0 00.56.01l1.314-.747a.268.268 0 000-.465" id="Fill-155" fill="#4D5068"/><path d="M34.458 97.52l-1.31-.757a.548.548 0 00-.55 0l-1.277.727a.267.267 0 00-.007.462l1.27.773a.559.559 0 00.561.007l1.313-.747a.268.268 0 000-.466" id="Fill-157" fill="#4D5068"/><path d="M31.424 99.287l-1.31-.756a.556.556 0 00-.551-.004l-1.276.73a.268.268 0 00-.007.463l1.27.773a.559.559 0 00.56.007l1.314-.747a.268.268 0 000-.466" id="Fill-159" fill="#4D5068"/><path d="M28.68 100.76l-1.31-.756a.556.556 0 00-.551-.004l-1.276.73a.267.267 0 00-.007.463l1.27.77a.551.551 0 00.56.01l1.314-.747a.268.268 0 000-.466" id="Fill-161" fill="#4D5068"/><path d="M60.062 86.159l-1.31-.757a.556.556 0 00-.551-.003l-1.276.73a.267.267 0 00-.007.462l1.27.77a.56.56 0 00.56.01l1.31-.747a.267.267 0 00.004-.465" id="Fill-163" fill="#4D5068"/><path d="M57.132 87.825l-1.31-.757a.548.548 0 00-.551 0l-1.276.727a.267.267 0 00-.007.463l1.27.773c.17.102.387.106.56.007l1.31-.747a.268.268 0 00.004-.466" id="Fill-165" fill="#4D5068"/><path d="M54.287 89.404l-1.31-.756a.556.556 0 00-.551-.004l-1.276.73a.268.268 0 00-.007.463l1.27.77a.56.56 0 00.56.01l1.314-.747a.268.268 0 000-.466" id="Fill-167" fill="#4D5068"/><path d="M51.26 91.034l-1.309-.757a.548.548 0 00-.551 0l-1.276.727a.268.268 0 00-.007.463l1.27.773a.559.559 0 00.56.006l1.314-.746a.268.268 0 000-.466" id="Fill-169" fill="#4D5068"/><path d="M48.346 92.755L47.036 92a.556.556 0 00-.551-.004l-6.652 3.8a.267.267 0 00-.007.462l1.273.774c.17.102.384.105.558.006l6.689-3.816a.268.268 0 000-.466" id="Fill-171" fill="#4D5068"/><path d="M40.158 97.398l-1.31-.756a.542.542 0 00-.548 0l-1.276.727a.267.267 0 00-.006.462l1.27.773a.55.55 0 00.557.007l1.313-.747a.268.268 0 000-.466" id="Fill-173" fill="#4D5068"/><path d="M37.373 99.089l-1.31-.757a.55.55 0 00-.547-.003l-1.28.73a.27.27 0 00-.006.463l1.27.77a.56.56 0 00.56.01l1.313-.747a.268.268 0 000-.466" id="Fill-175" fill="#4D5068"/><path d="M34.34 100.855l-1.31-.756a.556.556 0 00-.552-.004l-1.276.73a.268.268 0 00-.007.463l1.27.77a.551.551 0 00.561.01l1.313-.747a.268.268 0 000-.466" id="Fill-177" fill="#4D5068"/><path d="M31.595 102.327l-1.31-.757a.548.548 0 00-.55 0l-1.277.727a.268.268 0 00-.007.463l1.27.773a.559.559 0 00.561.006l1.313-.746a.268.268 0 000-.466" id="Fill-179" fill="#4D5068"/><path d="M47.626 72.159c-.367-5.911 2.299-17.032 4.347-21 2.549-4.943 6.859-9.222 11.593-11.921l4.67-2.666c5.994-3.427 8.647 2.805 13.488 7.698 18.953 19.166 5.843 51.314 5.048 68.547-.394 8.577-20.627 10.596-26.577 10.603-8.453.006-20.517-5.845-19.25-9.195 10.126-26.756 7.697-25.672 6.681-42.066" id="Fill-181" fill="#1DAFF4"/><path d="M81.724 44.27c-4.24-4.285-6.802-9.598-11.403-8.547 3.325.756 5.693 4.995 9.205 8.547 18.956 19.167 5.843 51.314 5.048 68.548-.368 7.999-17.981 10.291-25.18 10.569.266.01.54.033.801.033 5.95-.007 26.183-2.025 26.577-10.602.795-17.234 13.905-49.381-5.048-68.548" id="Fill-183" fill="#1DAFF4"/><path d="M65.995 44.928h-.939c-1.971 0-3.568-1.579-3.568-3.528v-9.787c0-1.949 1.597-3.528 3.568-3.528h.939c1.971 0 3.568 1.579 3.568 3.528V41.4c0 1.95-1.597 3.528-3.568 3.528" id="Fill-185" fill="#FFCEBD"/><path d="M72.32 35.44l-2.892.91c-9.251 2.9-19.13-2.162-22.067-11.31l-4.584-14.287 24.89-7.81 8.239 25.662c.918 2.864-.685 5.927-3.585 6.836" id="Fill-187" fill="#FFCEBD"/><path d="M75.016 6.125C74.181 3.607 72.684.508 69.657.267c-2.068-.169-4.123 1.02-5.202 2.772-1.657-1.96-4.654-2.016-7.216-1.685-4.717.608-9.973 1.757-13.818 4.582-2.817 2.069-6.455 4.728-5.616 8.73.444 2.127 2.235 3.696 4.226 4.453.976.37 1.938.32 2.843.806.956.516 1.507 1.553 2.563 1.956 1.373.526 3.057-.165 4.333.562 1.35.763 1.466 2.587 1.704 4.107.38 2.461 1.142 4.44 2.733 6.442 1.042 1.309 2.288 2.511 3.828 3.199 1.26.561 2.653.746 4.023.928.324.043.655.08.982.112 3.982.364 8.159-.26 10.798-3.574 1.654-2.079 2.435-4.719 2.743-7.342.802-6.842-1.397-13.645-3.565-20.19" id="Fill-189" fill="#4D5068"/><path d="M43.42 5.936c3.846-2.826 9.101-3.976 13.82-4.583a15.598 15.598 0 012.97-.083c-.361.027-.729.037-1.08.083-4.717.608-9.972 1.758-13.82 4.583-2.814 2.068-6.452 4.728-5.617 8.732.448 2.128 2.238 3.694 4.23 4.45.975.37 1.934.32 2.84.807.958.515 1.51 1.552 2.565 1.956 1.373.525 3.057-.166 4.333.561 1.35.767 1.467 2.587 1.704 4.107.381 2.461 1.14 4.444 2.733 6.443 1.043 1.308 2.289 2.51 3.826 3.198 1.262.562 2.656.747 4.025.928.324.043.652.08.983.11.357.033.718.049 1.075.066-.982.056-1.98.026-2.966-.067-.328-.03-.658-.066-.983-.109-1.37-.181-2.763-.366-4.022-.928-1.54-.687-2.786-1.89-3.829-3.198-1.59-2-2.348-3.982-2.733-6.443-.237-1.52-.354-3.34-1.7-4.107-1.28-.727-2.964-.036-4.337-.561-1.055-.404-1.607-1.441-2.562-1.956-.906-.486-1.868-.437-2.843-.807-1.992-.756-3.782-2.322-4.227-4.45-.838-4.004 2.8-6.664 5.616-8.732" id="Fill-191" fill="#717386"/><path d="M65.685 80.907l-2.77-19.731c-.387-2.765-2.97-4.702-5.77-4.312-2.796.384-4.75 2.937-4.36 5.703l2.767 19.731c.551 3.909-.732 7.771-3.518 10.6a12.772 12.772 0 01-4.868 3.092c-.762 2.874-1.884 6.35-3.481 10.814 5.893-.198 11.473-2.587 15.669-6.846 5.008-5.078 7.316-12.023 6.33-19.05" id="Fill-193" fill="#0086AF"/><path d="M42.902 103.582c-.839 0-1.68-.043-2.526-.136l-6.26-.416c-2.82-.185-4.952-2.597-4.762-5.382.188-2.789 2.667-4.874 5.443-4.708l6.608.446c3.963.436 7.841-.925 10.628-3.75 2.786-2.825 4.069-6.688 3.521-10.596l-2.77-19.731c-.387-2.766 1.567-5.323 4.364-5.703 2.8-.39 5.382 1.546 5.77 4.312l2.766 19.728c.989 7.027-1.32 13.972-6.328 19.054a23.007 23.007 0 01-16.454 6.882" id="Fill-195" fill="#FFCEBD"/><path d="M66.1 78.657l-3.001-21.383c-.421-2.997-3.22-5.098-6.254-4.675-3.03.413-5.149 3.181-4.728 6.181l3 21.387 10.982-1.51z" id="Fill-197" fill="#0086AF"/><path d="M34.703 95.072h-9.695a.972.972 0 01-.98-.965v-.254c0-.532.438-.965.98-.965h9.695a.97.97 0 01.976.965v.254a.97.97 0 01-.976.965" id="Fill-199" fill="#FFCEBD"/><path d="M40.25 96.237l-8.437-4.728a.96.96 0 01-.37-1.315l.127-.222a.978.978 0 011.33-.363l8.438 4.725a.96.96 0 01.368 1.318l-.127.221a.984.984 0 01-1.33.364" id="Fill-201" fill="#FFCEBD"/><path d="M32.988 98.202H23.29a.971.971 0 01-.976-.965v-.255c0-.532.438-.964.976-.964h9.698c.538 0 .976.432.976.964v.255a.971.971 0 01-.976.965" id="Fill-203" fill="#FFCEBD"/><path d="M34.778 100.126l-9.652.952a.974.974 0 01-1.066-.866l-.027-.254a.971.971 0 01.872-1.058l9.652-.948a.973.973 0 011.07.866l.026.25a.968.968 0 01-.875 1.058" id="Fill-205" fill="#FFCEBD"/><path d="M36.001 102.751l-9.652.952a.968.968 0 01-1.065-.87l-.027-.25a.967.967 0 01.875-1.054l9.649-.952a.973.973 0 011.069.866l.027.254a.971.971 0 01-.876 1.054" id="Fill-207" fill="#FFCEBD"/></g></g></g></g></g></g></svg>