<svg width="295" height="447" xmlns="http://www.w3.org/2000/svg" xmlns:xlink="http://www.w3.org/1999/xlink"><defs><path id="path-1" d="M0 .031h204.436v395.731H0z"/><path id="path-3" d="M.724.43H42.94v81.565H.724z"/></defs><g id="HP" stroke="none" stroke-width="1" fill="none" fill-rule="evenodd"><g id="Product_Sections" transform="translate(-2482 -603)"><g id="Product_MobileVPN" transform="translate(1605 137)"><g id="images/Product_MobileVPN" transform="translate(877 466)"><g id="Group-139"><g id="Group-3"><mask id="mask-2" fill="#fff"><use xlink:href="#path-1"/></mask><path d="M14.699 68.786L125.078 2.497c4.832-2.9 9.783-3.155 14.09-1.228v-.003l10.492 3.81h-8.002c1.544 2.567 2.759 5.638 3.522 9.152l58.364 267.618c3.309 15.161-2.874 32.779-13.808 39.343L79.358 387.474a18.059 18.059 0 01-3.526 1.642l4.357 6.646-9.25-3.22h.01c-5.44-2.428-9.851-8.335-11.697-16.795L.892 108.128C-2.415 92.964 3.764 75.35 14.698 68.786" id="Fill-1" fill="#D1D4FC" mask="url(#mask-2)"/></g><path d="M94.99 395.527l110.318-66.33c10.928-6.569 17.107-24.193 13.8-39.364L160.78 22.05C157.473 6.876 145.935-.097 135.01 6.472L24.688 72.802C13.764 79.37 7.585 96.995 10.891 112.169l58.33 267.783c3.303 15.17 14.84 22.146 25.769 15.575" id="Fill-4" fill="#E0E3FD"/><path d="M94.782 387.08l107.79-64.66c8.5-5.098 13.305-18.781 10.736-30.557L155.267 26.01c-2.573-11.776-11.548-17.19-20.049-12.09L27.428 78.58c-8.5 5.1-13.305 18.78-10.736 30.557l58.041 265.856c2.573 11.775 11.548 17.187 20.049 12.087" id="Fill-6" fill="#FFF"/><path d="M103.776 69.715l12.608-7.355c1.169-.682 1.858-2.373 1.538-3.776-.32-1.399-1.531-1.979-2.697-1.3l-12.608 7.358c-1.169.682-1.86 2.37-1.537 3.772.316 1.4 1.527 1.983 2.696 1.3" id="Fill-8" fill="#F0F1FE"/><path d="M74.656 86.723l17.797-10.522c1.119-.662 1.778-2.303 1.472-3.66-.306-1.361-1.462-1.927-2.584-1.262L73.547 81.8c-1.119.659-1.778 2.3-1.472 3.66.306 1.358 1.462 1.924 2.581 1.262" id="Fill-10" fill="#F0F1FE"/><path d="M124.775 126.715l12.609-7.355c1.169-.682 1.858-2.373 1.538-3.776-.32-1.399-1.528-1.979-2.697-1.3l-12.609 7.358c-1.169.682-1.858 2.37-1.538 3.772.32 1.4 1.528 1.983 2.697 1.3" id="Fill-12" fill="#F0F1FE"/><path d="M98.657 141.723l17.796-10.524c1.119-.661 1.778-2.299 1.472-3.66-.306-1.36-1.462-1.923-2.581-1.262l-17.796 10.524c-1.119.661-1.782 2.299-1.472 3.66.303 1.36 1.462 1.923 2.581 1.262" id="Fill-14" fill="#F0F1FE"/><path d="M139.714 60.721l7.705-4.488c1.144-.666 1.817-2.314 1.504-3.684-.313-1.367-1.494-1.937-2.637-1.27l-7.705 4.488c-1.144.666-1.817 2.314-1.504 3.684.313 1.367 1.494 1.937 2.637 1.27" id="Fill-16" fill="#F0F1FE"/><path d="M115.73 85.725l23.68-13.553c1.15-.655 1.828-2.287 1.513-3.641-.315-1.35-1.506-1.914-2.657-1.256L114.59 80.828c-1.15.655-1.828 2.287-1.513 3.638.312 1.354 1.503 1.917 2.653 1.259" id="Fill-18" fill="#F0F1FE"/><path d="M136.714 96.721l7.705-4.488c1.144-.666 1.817-2.314 1.504-3.684-.313-1.367-1.494-1.937-2.637-1.27l-7.705 4.488c-1.144.666-1.817 2.314-1.504 3.684.313 1.367 1.494 1.937 2.637 1.27" id="Fill-20" fill="#F0F1FE"/><path d="M94.728 166.73l20.68-11.645c1.152-.647 1.83-2.251 1.515-3.579-.318-1.33-1.505-1.88-2.654-1.237l-20.68 11.647c-1.15.644-1.827 2.248-1.512 3.58.315 1.327 1.502 1.88 2.65 1.233" id="Fill-22" fill="#F0F1FE"/><path d="M143.643 115.735l4.815-2.746c1.117-.635 1.77-2.209 1.468-3.51-.304-1.306-1.454-1.85-2.571-1.212l-4.816 2.746c-1.113.635-1.77 2.205-1.464 3.51.305 1.303 1.455 1.846 2.568 1.212" id="Fill-24" fill="#F0F1FE"/><path d="M147.6 136.724l5.885-3.542c1.096-.66 1.741-2.291 1.442-3.648-.3-1.356-1.432-1.917-2.53-1.258l-5.882 3.543c-1.096.66-1.741 2.291-1.442 3.647.297 1.353 1.432 1.918 2.527 1.258" id="Fill-26" fill="#F0F1FE"/><path d="M123.65 150.72l15.803-9.467c1.12-.668 1.778-2.323 1.472-3.698-.309-1.375-1.462-1.943-2.578-1.275l-15.803 9.467c-1.116.665-1.777 2.323-1.468 3.698.302 1.372 1.458 1.944 2.575 1.275" id="Fill-28" fill="#F0F1FE"/><path d="M144.726 149.728l11.684-6.62c1.15-.65 1.827-2.258 1.513-3.595-.314-1.338-1.503-1.89-2.651-1.24l-11.684 6.619c-1.148.65-1.828 2.259-1.51 3.596.311 1.334 1.5 1.89 2.648 1.24" id="Fill-30" fill="#F0F1FE"/><path d="M76.768 177.718l7.62-4.412c1.166-.676 1.853-2.35 1.534-3.734-.32-1.389-1.523-1.966-2.692-1.288l-7.617 4.413c-1.166.675-1.856 2.345-1.534 3.733.316 1.385 1.523 1.963 2.689 1.288" id="Fill-32" fill="#F0F1FE"/><path d="M107.728 112.73l20.68-11.646c1.152-.647 1.83-2.252 1.515-3.58-.318-1.327-1.502-1.88-2.654-1.233l-20.68 11.645c-1.15.647-1.827 2.248-1.512 3.58.315 1.327 1.502 1.88 2.65 1.233" id="Fill-34" fill="#F0F1FE"/><path d="M105.704 102.726l35.721-20.57c1.14-.656 1.81-2.282 1.499-3.628-.312-1.349-1.489-1.91-2.627-1.254l-35.722 20.573c-1.14.653-1.81 2.279-1.499 3.628.309 1.345 1.489 1.907 2.628 1.25" id="Fill-36" fill="#F0F1FE"/><path d="M125.728 114.73l20.682-11.646c1.15-.647 1.83-2.252 1.512-3.58-.315-1.327-1.502-1.88-2.651-1.233l-20.682 11.645c-1.15.647-1.827 2.248-1.512 3.58.315 1.327 1.502 1.88 2.651 1.233" id="Fill-38" fill="#F0F1FE"/><path d="M92.768 122.718l7.62-4.415c1.166-.672 1.853-2.345 1.534-3.733-.32-1.385-1.523-1.963-2.692-1.288l-7.617 4.415c-1.166.672-1.856 2.345-1.534 3.733.316 1.385 1.523 1.963 2.689 1.288" id="Fill-40" fill="#F0F1FE"/><path d="M36.767 106.718l7.621-4.412c1.166-.676 1.853-2.35 1.534-3.734-.32-1.389-1.523-1.966-2.689-1.288l-7.621 4.413c-1.166.675-1.853 2.345-1.534 3.733.32 1.385 1.523 1.963 2.689 1.288" id="Fill-42" fill="#F0F1FE"/><path d="M126.711 138.72l24.71-14.464c1.142-.672 1.815-2.327 1.502-3.702-.312-1.372-1.492-1.941-2.634-1.276l-24.71 14.468c-1.142.669-1.815 2.323-1.502 3.699.312 1.372 1.492 1.944 2.634 1.275" id="Fill-44" fill="#F0F1FE"/><path d="M126.656 55.723l17.795-10.522c1.122-.662 1.778-2.303 1.475-3.66-.31-1.361-1.465-1.927-2.584-1.262L125.547 50.8c-1.119.659-1.778 2.3-1.472 3.657.306 1.36 1.462 1.927 2.581 1.265" id="Fill-46" fill="#F0F1FE"/><path d="M147.677 160.718L168.44 148.3c1.128-.677 1.795-2.346 1.483-3.73-.305-1.386-1.473-1.96-2.6-1.289l-20.763 12.423c-1.128.67-1.795 2.342-1.483 3.726.305 1.386 1.473 1.963 2.6 1.29" id="Fill-48" fill="#F0F1FE"/><path d="M134.775 226.715l12.609-7.355c1.169-.685 1.858-2.373 1.538-3.776-.32-1.399-1.528-1.979-2.697-1.3l-12.609 7.358c-1.169.682-1.858 2.37-1.538 3.772.32 1.4 1.528 1.983 2.697 1.3" id="Fill-50" fill="#F0F1FE"/><path d="M105.656 243.723l17.795-10.522c1.122-.662 1.778-2.303 1.475-3.66-.306-1.361-1.462-1.927-2.584-1.262L104.547 238.8c-1.119.659-1.778 2.3-1.472 3.66.306 1.358 1.462 1.924 2.581 1.262" id="Fill-52" fill="#F0F1FE"/><path d="M156.775 284.715l12.609-7.355c1.169-.682 1.858-2.373 1.538-3.776-.32-1.399-1.528-1.979-2.697-1.3l-12.609 7.358c-1.169.682-1.858 2.37-1.538 3.772.32 1.4 1.528 1.983 2.697 1.3" id="Fill-54" fill="#F0F1FE"/><path d="M130.656 299.723l17.797-10.523c1.119-.662 1.778-2.3 1.472-3.66-.306-1.362-1.462-1.924-2.584-1.263l-17.794 10.524c-1.119.662-1.778 2.3-1.472 3.66.306 1.358 1.462 1.924 2.581 1.262" id="Fill-56" fill="#F0F1FE"/><path d="M171.714 217.721l7.705-4.488c1.144-.666 1.817-2.314 1.504-3.684-.313-1.367-1.494-1.937-2.637-1.27l-7.705 4.488c-1.144.666-1.817 2.314-1.504 3.684.313 1.367 1.494 1.937 2.637 1.27" id="Fill-58" fill="#F0F1FE"/><path d="M147.732 242.725l23.68-13.553c1.147-.655 1.828-2.287 1.51-3.641-.312-1.35-1.503-1.914-2.654-1.256l-23.676 13.553c-1.15.655-1.832 2.287-1.514 3.638.312 1.354 1.503 1.917 2.654 1.259" id="Fill-60" fill="#F0F1FE"/><path d="M168.714 254.721l7.705-4.487c1.144-.666 1.817-2.314 1.504-3.684-.313-1.37-1.494-1.937-2.637-1.27l-7.705 4.487c-1.144.666-1.817 2.314-1.504 3.684.31 1.367 1.494 1.937 2.637 1.27" id="Fill-62" fill="#F0F1FE"/><path d="M126.728 324.73l20.68-11.645c1.152-.647 1.83-2.251 1.515-3.579-.318-1.33-1.505-1.88-2.654-1.237l-20.68 11.647c-1.15.644-1.827 2.249-1.512 3.576.315 1.33 1.502 1.885 2.65 1.238" id="Fill-64" fill="#F0F1FE"/><path d="M175.643 272.735l4.815-2.746c1.117-.635 1.77-2.209 1.468-3.51-.308-1.306-1.458-1.85-2.571-1.212l-4.816 2.746c-1.113.635-1.77 2.205-1.464 3.51.305 1.303 1.455 1.846 2.568 1.212" id="Fill-66" fill="#F0F1FE"/><path d="M179.601 294.724l5.882-3.542c1.1-.66 1.741-2.291 1.445-3.648-.304-1.356-1.432-1.917-2.53-1.258l-5.882 3.543c-1.096.66-1.745 2.291-1.441 3.647.296 1.353 1.43 1.918 2.526 1.258" id="Fill-68" fill="#F0F1FE"/><path d="M155.65 308.72l15.807-9.467c1.116-.668 1.774-2.323 1.468-3.698-.306-1.375-1.458-1.943-2.575-1.275l-15.807 9.467c-1.116.666-1.774 2.323-1.468 3.695.306 1.375 1.458 1.947 2.575 1.279" id="Fill-70" fill="#F0F1FE"/><path d="M175.725 307.728l11.688-6.62c1.148-.65 1.824-2.258 1.51-3.595-.314-1.338-1.5-1.89-2.648-1.24l-11.688 6.619c-1.148.65-1.824 2.259-1.51 3.596.314 1.334 1.5 1.89 2.648 1.24" id="Fill-72" fill="#F0F1FE"/><path d="M108.767 334.718l7.621-4.412c1.166-.676 1.853-2.35 1.534-3.734-.32-1.389-1.523-1.966-2.689-1.288l-7.621 4.413c-1.166.675-1.853 2.345-1.534 3.733.32 1.385 1.523 1.963 2.689 1.288" id="Fill-74" fill="#F0F1FE"/><path d="M139.728 270.73l20.68-11.646c1.152-.647 1.83-2.252 1.515-3.58-.318-1.327-1.505-1.88-2.654-1.233l-20.68 11.645c-1.15.647-1.827 2.248-1.512 3.58.315 1.327 1.502 1.88 2.65 1.233" id="Fill-76" fill="#F0F1FE"/><path d="M137.705 259.726l35.72-20.57c1.14-.656 1.81-2.282 1.499-3.628-.312-1.349-1.488-1.91-2.627-1.254l-35.721 20.573c-1.14.653-1.814 2.279-1.498 3.628.308 1.345 1.488 1.907 2.627 1.25" id="Fill-78" fill="#F0F1FE"/><path d="M157.728 271.73l20.682-11.646c1.15-.647 1.83-2.252 1.512-3.58-.315-1.327-1.502-1.88-2.651-1.233l-20.682 11.645c-1.15.647-1.827 2.248-1.512 3.58.311 1.327 1.502 1.88 2.651 1.233" id="Fill-80" fill="#F0F1FE"/><path d="M123.767 279.718l7.621-4.415c1.166-.672 1.853-2.345 1.534-3.733-.32-1.385-1.523-1.963-2.689-1.288l-7.621 4.415c-1.166.672-1.853 2.345-1.534 3.733.32 1.385 1.523 1.963 2.689 1.288" id="Fill-82" fill="#F0F1FE"/><path d="M158.712 294.72l24.709-14.464c1.142-.672 1.815-2.327 1.502-3.702-.312-1.372-1.492-1.941-2.634-1.276l-24.709 14.468c-1.142.669-1.818 2.323-1.502 3.699.31 1.372 1.492 1.944 2.634 1.275" id="Fill-84" fill="#F0F1FE"/><path d="M158.657 213.723l17.796-10.522c1.119-.662 1.778-2.303 1.472-3.66-.306-1.361-1.462-1.927-2.581-1.262L157.548 208.8c-1.119.659-1.782 2.3-1.472 3.657.303 1.36 1.462 1.927 2.581 1.265" id="Fill-86" fill="#F0F1FE"/><path d="M179.676 317.718L200.44 305.3c1.128-.677 1.792-2.346 1.483-3.73-.308-1.386-1.473-1.96-2.603-1.289l-20.762 12.423c-1.128.67-1.792 2.342-1.483 3.726.308 1.386 1.473 1.963 2.6 1.29" id="Fill-88" fill="#F0F1FE"/><path d="M68.583 230.087L54 169.337l25.614-18.31c12.93-9.243 26.358-16.962 40.05-23.02L146.795 116l14.583 60.75s12.14 43.713-29.986 95.039c-53.564 3.671-62.808-41.702-62.808-41.702" id="Fill-90" fill="#E0E3FD"/><path d="M107.375 112.415c14.828-10.664 30.225-19.57 45.93-26.562L184.418 72l9.966 3.888-8.013 4.298 14.769 61.912s13.921 50.439-34.386 109.658c-9.272.641-17.377-.015-24.47-1.579.147.582.245.98.245.98l-8.973-3.515c-.832-.309-1.65-.63-2.45-.962l-.19-.074.015-.003c-30.054-12.612-36.208-42.962-36.208-42.962L78 133.543l29.375-21.128z" id="Fill-92" fill="#8A14C1"/><path d="M153.056 86.692L184.065 73 194 76.843s-4.362 2.318-7.99 4.249l5.344 22.206L136.077 139l-48.142-1.326L78 133.828l29.278-20.88c14.779-10.542 30.128-19.344 45.778-26.256" id="Fill-94" fill="#8A14C1"/><path d="M138.912 103L129 99.093c8.027-4.854 16.17-9.2 24.405-12.98L184.149 72 194 75.962s-4.325 2.389-7.921 4.378l.313 1.352c-19.174 8.68-47.48 21.308-47.48 21.308" id="Fill-96" fill="#8A14C1"/><path d="M136.423 95L155 101.547 139.439 110 121 103.5a266.213 266.213 0 0115.423-8.5" id="Fill-98" fill="#8A14C1"/><path d="M104.59 207.64L88 137.544l29.142-21.128c14.707-10.665 29.983-19.57 45.563-26.562L193.563 76l16.591 70.098s13.81 50.436-34.113 109.658c-60.933 4.241-71.45-48.115-71.45-48.115" id="Fill-100" fill="#B12DE8"/><path d="M171.78 247.947c21.748-27.547 29.008-52.625 31.243-69.016 2.492-18.321-.567-30.092-.59-30.174L187.873 88l-22.453 9.959c-15.135 6.713-30.069 15.316-44.386 25.573L96 141.46l15.45 64.498.06.259c.023.112 2.503 11.393 11.314 22.065 11.376 13.776 27.845 20.385 48.955 19.664" id="Fill-102" fill="#760FB2"/><g id="Group-106" transform="translate(252 216)"><mask id="mask-4" fill="#fff"><use xlink:href="#path-3"/></mask><path d="M16.667 81.995a5.635 5.635 0 01-2.731-.7 5.754 5.754 0 01-2.282-7.79L30.45 38.903a8.515 8.515 0 00-2.653-11.114L3.213 10.91a5.762 5.762 0 01-1.492-7.98 5.7 5.7 0 017.943-1.499l24.58 16.878c8.481 5.817 11.165 17.037 6.244 26.095L21.69 79.006a5.714 5.714 0 01-5.023 2.99" id="Fill-104" fill="#FFCEBD" mask="url(#mask-4)"/></g><path d="M198.923 177.89c-.863.325-1.837-.094-2.17-.939l-4.64-11.724c-.333-.845.096-1.791.964-2.116.863-.328 1.834.095 2.17.936l4.64 11.728c.333.845-.096 1.79-.964 2.115" id="Fill-107" fill="#FFCEBD"/><path d="M268.504 430l-5.33-3.148-5.539-3.223-12.51-7.314c-3.128-1.823-2.719-6.497.677-7.743a9.34 9.34 0 017.33.382l9.63 4.722 11.687 4.333a2.391 2.391 0 011.547 2.38l-.176 3.137c-.203 3.633-3.186 6.474-6.792 6.474h-.524z" id="Fill-109" fill="#4D5068"/><path d="M270.159 415.557l-7.459-1.836-5.559-2.721c-2.74 1.52-2.938 5.571-.083 7.23l8.263 4.74.407.236a5.84 5.84 0 007.045-.891c1.4-1.39 2.584-2.82 2.127-3.412l-3.23-1.031a2.328 2.328 0 00-1.511-2.315" id="Fill-111" fill="#FFCEBD"/><path d="M245.82 447l-5.814-3.435-6.04-3.514-13.652-7.98c-3.407-1.99-2.96-7.087.739-8.447a10.184 10.184 0 017.998.419l10.505 5.15 12.75 4.726a2.612 2.612 0 011.69 2.593l-.194 3.429c-.221 3.96-3.475 7.059-7.409 7.059h-.572z" id="Fill-113" fill="#4D5068"/><path d="M247.674 431.906l-8.204-1.98-6.113-2.926c-3.018 1.635-3.233 5.999-.094 7.786l9.09 5.104.447.254c2.507 1.427 5.686 1.044 7.747-.96 1.544-1.497 2.847-3.037 2.343-3.674l-3.555-1.11a2.502 2.502 0 00-1.661-2.494" id="Fill-115" fill="#FFCEBD"/><path d="M268.35 424c-2.715 0-5.317-1.495-6.567-4.058L257 364.604l7.174-57.337c.486-3.909 4.12-6.685 8.104-6.215 3.987.48 11.184 4.04 10.699 7.953L271.954 362.2l.041 51.578c1.737 3.554 3.112 7.818-.51 9.519a7.334 7.334 0 01-3.135.703" id="Fill-117" fill="#FFCEBD"/><path d="M245.601 441c-3.867 0-5.601-3.205-5.601-7.158V302.158c0-3.953 3.134-7.158 7-7.158 3.867 0 13 5.388 13 9.342l-6.072 67.064-1.326 62.436c0 3.953-3.134 7.158-7 7.158" id="Fill-119" fill="#FFCEBD"/><path d="M282.918 206.936c0-8.271-8.908-13.54-16.243-9.608l-.126.071c-1.146.613-2.599 2.037-3.274 3.136-10.862 17.705-24.765 21.771-24.765 39.892L242.773 273l-5.047 31.785-1.726 55.37c3.29 2.168 7.485 3.003 12.024 2.82.427-.016 5.33-.3 6.405-.483 12.304-2.115 23.83-2.92 28.489-12.068l1.814-23.165a136.195 136.195 0 00-5.269-46.972v-.003l3.455-73.348z" id="Fill-121" fill="#536DFE"/><path d="M265 208c-2.207 0-4-1.91-4-4.268V184h8v19.732c0 2.358-1.79 4.268-4 4.268" id="Fill-123" fill="#FFCEBD"/><path d="M273.259 197.774l-8.661 1.137c-6.377.836-12.26-4.336-11.538-10.671.038-.343.097-.685.173-1.031L257.664 167 279 171.592l-5.741 26.182z" id="Fill-125" fill="#FFCEBD"/><path d="M260.408 293c7.083 0 14.16-1.094 20.592-3.248-.677-3.234-1.431-6.455-2.326-9.64l.093-2.007c-11.24 4.102-25.838 4.07-36.977-.105L240 289.808c6.372 2.119 13.382 3.192 20.408 3.192" id="Fill-127" fill="#4D5068"/><path d="M257.263 234c-.313 0-.636-.024-.956-.078l-5.797-.964c-25.204-4.191-46.587-20.454-57.205-43.504l-4.784-10.392c-1.319-2.86-.047-6.238 2.836-7.547 2.88-1.305 6.29-.047 7.61 2.816l4.783 10.389c9.03 19.61 27.22 33.442 48.657 37.006l5.8.965c3.125.519 5.237 3.456 4.713 6.558-.472 2.782-2.9 4.751-5.657 4.751" id="Fill-129" fill="#FFCEBD"/><path d="M238 235.911c.643-5.743 2.953-9.948 6.13-13.866a68.685 68.685 0 004.941-.342l5.878-.656c3.961-.442 7.543 2.293 8.002 6.112.414 3.424-1.834 6.551-5.16 7.477a7.323 7.323 0 01-1.186.23l-5.875.653c-4.218.471-8.495.583-12.73.392" id="Fill-131" fill="#231F20"/><path d="M257.841 235a7.33 7.33 0 01-1.195-.096l-5.789-.952a79.946 79.946 0 01-13.071-3.306c-3.735-1.287-5.69-5.298-4.377-8.954 1.317-3.659 5.415-5.585 9.14-4.287a65.202 65.202 0 0010.678 2.697l5.792.951c3.905.642 6.536 4.261 5.88 8.09-.586 3.429-3.622 5.857-7.058 5.857" id="Fill-133" fill="#536DFE"/><path d="M289.613 220.87c-.764-1.435-1.613-2.895-1.77-4.52-.326-3.4 2.414-6.3 3.082-9.65.986-4.96-2.402-9.5-2.2-14.429.221-5.465 1.653-10.015.05-15.542a23.735 23.735 0 00-.852-2.435c-2.894-7.058-9.662-10.616-16.796-11.8-3.042-.508-6.165-.675-9.227-.259-1.774.239-3.662.495-5.249 1.399-.654.378-1.425.85-1.804 1.521-.58 1.03-.942 2.327-.825 3.514.275 2.766 3.73 3.725 4.031 6.341.155 1.313-.707 2.787-.818 4.114-.147 1.736.128 3.514.839 5.103 1.341 2.999 4.155 5.55 4.01 8.846-.063 1.463-.73 2.831-.938 4.28-.738 5.159 4.584 9.088 3.19 14.3-.9 3.354-4.64 5.8-4.294 9.255.141 1.395.96 2.637 1.194 4.019.473 2.838-1.563 5.908-.332 8.504 4.233 8.91 18.906 7.365 25.698 3.5 1.693-.969 3.34-2.166 4.336-3.865 2.157-3.677.678-8.426-1.325-12.195" id="Fill-135" fill="#FE5E31"/><path d="M254.848 165.13c.38-.672 1.153-1.143 1.81-1.522 1.586-.904 3.478-1.16 5.255-1.399 1.736-.235 3.49-.249 5.24-.153-1.092.013-2.187.006-3.272.153-1.777.239-3.668.495-5.254 1.4-.658.378-1.427.85-1.81 1.521-.578 1.031-.944 2.324-.823 3.515.275 2.768 3.735 3.727 4.038 6.345.15 1.314-.71 2.788-.823 4.115-.148 1.737.13 3.516.843 5.106 1.343 3 4.162 5.552 4.017 8.849-.064 1.464-.735 2.833-.944 4.283-.739 5.16 4.596 9.091 3.198 14.306-.9 3.351-4.649 5.802-4.303 9.259.141 1.396.964 2.638 1.196 4.02.477 2.843-1.565 5.91-.33 8.508 2.147 4.515 6.985 6.34 12.114 6.545-5.825.219-11.663-1.453-14.085-6.545-1.233-2.597.806-5.665.333-8.508-.236-1.382-1.055-2.624-1.196-4.02-.346-3.457 3.403-5.908 4.303-9.259 1.397-5.215-3.937-9.146-3.198-14.306.208-1.45.877-2.819.94-4.283.145-3.297-2.673-5.85-4.017-8.85-.712-1.59-.988-3.368-.84-5.105.11-1.327.974-2.801.823-4.115-.306-2.618-3.766-3.577-4.041-6.345-.118-1.19.249-2.484.826-3.515" id="Fill-137" fill="#FE9E83"/></g></g></g></g></g></svg>