<svg width="45" height="45" xmlns="http://www.w3.org/2000/svg" xmlns:xlink="http://www.w3.org/1999/xlink"><defs><path id="path-1" d="M0 .055h26.945v23.853H0z"/></defs><g id="HP" stroke="none" stroke-width="1" fill="none" fill-rule="evenodd"><g transform="translate(-1056 -134)" id="Footer"><g id="Telegram" transform="translate(1056 134)"><circle id="Oval" fill="#007BB9" cx="22.5" cy="22.5" r="22.5"/><g id="Group-8" transform="translate(7 10)"><g id="Group-3" transform="translate(0 .037)"><mask id="mask-2" fill="#fff"><use xlink:href="#path-1"/></mask><path d="M26.945.9l-4.261 22.015s-.596 1.527-2.235.794l-9.835-7.725-3.576-1.77-6.02-2.077S.094 11.8.005 11.068c-.09-.733 1.043-1.13 1.043-1.13L24.978.32s1.967-.885 1.967.58" id="Fill-1" fill="#FEFEFE" mask="url(#mask-2)"/></g><path d="M9.858 22.705s-.287-.028-.644-1.188c-.358-1.16-2.176-7.267-2.176-7.267l14.454-9.405s.834-.519.804 0c0 0 .15.092-.298.52-.447.427-11.354 10.473-11.354 10.473" id="Fill-4" fill="#D2E5F1"/><path d="M14.385 18.983l-3.89 3.634s-.304.236-.637.088l.745-6.75" id="Fill-6" fill="#B5D0E4"/></g></g></g></g></svg>