<svg width="45" height="45" xmlns="http://www.w3.org/2000/svg" xmlns:xlink="http://www.w3.org/1999/xlink"><defs><path id="path-1" d="M0 0h26.902v26.96H0z"/></defs><g id="HP" stroke="none" stroke-width="1" fill="none" fill-rule="evenodd"><g transform="translate(-936 -134)" id="Footer"><g id="WhatsApp" transform="translate(936 134)"><circle id="Oval" fill="#25D366" cx="22.5" cy="22.5" r="22.5"/><g id="Group-3" transform="translate(9 9)"><mask id="mask-2" fill="#fff"><use xlink:href="#path-1"/></mask><path d="M19.887 16.117c-.331-.18-1.957-1.053-2.262-1.176-.305-.123-.527-.187-.765.14-.238.326-.912 1.057-1.117 1.274-.205.216-.403.237-.734.056-.33-.18-1.403-.575-2.648-1.764-.968-.926-1.604-2.049-1.788-2.392-.184-.343-.001-.517.174-.678.157-.145.352-.38.528-.569.175-.189.237-.326.358-.546.12-.22.072-.417-.006-.588-.078-.17-.69-1.846-.946-2.527-.256-.682-.54-.58-.737-.588-.197-.007-.42-.044-.645-.052a1.243 1.243 0 00-.915.386c-.322.324-1.223 1.102-1.285 2.752-.062 1.65 1.085 3.288 1.246 3.518.16.23 2.191 3.806 5.567 5.276 3.377 1.47 3.395 1.022 4.014.989.62-.033 2.025-.737 2.336-1.51.31-.771.335-1.442.256-1.585-.079-.143-.3-.236-.63-.416m-6.193 7.95c-2.233 0-4.312-.667-6.049-1.809l-4.225 1.345 1.374-4.06a10.835 10.835 0 01-2.094-6.41C2.701 7.104 7.633 2.2 13.695 2.2c6.063 0 10.994 4.904 10.994 10.933s-4.931 10.933-10.994 10.933m0-24.066C6.4 0 .489 5.88.489 13.133c0 2.481.692 4.802 1.895 6.782L0 26.96l7.312-2.328a13.21 13.21 0 006.383 1.634c7.294 0 13.207-5.88 13.207-13.134C26.902 5.88 20.989 0 13.695 0" id="Fill-1" fill="#FFF" mask="url(#mask-2)"/></g></g></g></g></svg>